<?xml version="1.0" encoding="utf-8"?>
<!-- Generator: Adobe Illustrator 25.0.1, SVG Export Plug-In . SVG Version: 6.00 Build 0)  -->
<svg version="1.1" id="Layer_3" xmlns="http://www.w3.org/2000/svg" xmlns:xlink="http://www.w3.org/1999/xlink" x="0px" y="0px"
	 viewBox="0 0 170.3 129.6" style="enable-background:new 0 0 170.3 129.6;" xml:space="preserve">
<style type="text/css">
	.st0{fill:#B41F24;}
</style>
<g>
	<g>
		<polygon class="st0" points="85.1,10 134.2,36.8 134.2,72.8 125.5,72.8 125.5,41.4 85.1,63.7 36,37.3 		"/>
		<polygon class="st0" points="53.8,56.2 85.1,72.8 116.5,55.4 116.5,72.8 85.1,90.2 53.8,72.8 		"/>
	</g>
	<g>
		<path class="st0" d="M21.8,102.4v3.4h-4v13.8H14v-13.8h-4v-3.4H21.8z"/>
		<path class="st0" d="M27.5,115.8h-5.1c0,0.2,0,0.3,0,0.4c0,0.6,0.2,1.1,0.5,1.4c0.3,0.3,0.7,0.5,1.1,0.5c0.8,0,1.3-0.4,1.4-1.3
			l2.1,0.2c-0.6,2-1.8,3-3.6,3c-0.8,0-1.5-0.2-2-0.5c-0.6-0.3-1-0.8-1.4-1.5c-0.4-0.7-0.5-1.4-0.5-2.3c0-1.4,0.4-2.4,1.1-3.3
			c0.7-0.8,1.6-1.2,2.8-1.2c1,0,1.9,0.4,2.6,1.2C27.2,112.9,27.5,114.1,27.5,115.8z M22.4,114.4h2.8c-0.1-1.2-0.5-1.8-1.3-1.8
			C23,112.6,22.5,113.2,22.4,114.4z"/>
		<path class="st0" d="M35,113.2l-1.7,0.5c-0.2-0.8-0.7-1.2-1.6-1.2c-0.8,0-1.2,0.3-1.2,0.8c0,0.2,0.1,0.4,0.2,0.5
			c0.1,0.1,0.5,0.2,1.1,0.3c0.9,0.1,1.6,0.3,2,0.4c0.4,0.2,0.8,0.5,1,0.9c0.3,0.4,0.4,0.9,0.4,1.5c0,0.9-0.3,1.6-0.9,2.1
			c-0.6,0.6-1.5,0.8-2.6,0.8c-2,0-3.2-0.8-3.6-2.5l2-0.3c0.2,0.8,0.8,1.1,1.8,1.1c0.4,0,0.7-0.1,1-0.2c0.3-0.1,0.4-0.4,0.4-0.6
			c0-0.4-0.3-0.6-0.9-0.7c-1.6-0.2-2.7-0.5-3.2-1c-0.5-0.4-0.8-1.1-0.8-1.9c0-0.8,0.3-1.5,0.9-2c0.6-0.5,1.4-0.8,2.5-0.8
			c0.8,0,1.5,0.2,2,0.5C34.3,111.8,34.7,112.4,35,113.2z"/>
		<path class="st0" d="M39.4,113.1v3.6c0,0.4,0.1,0.8,0.2,0.9c0.1,0.2,0.4,0.2,0.9,0.2c0.2,0,0.5,0,0.7,0v1.9
			c-0.7,0.1-1.2,0.2-1.5,0.2c-1,0-1.7-0.2-2.1-0.6c-0.4-0.4-0.6-1.1-0.6-2.2v-4h-1.3v-2h1.4l0.2-2.5l2-0.2v2.7h1.7v2H39.4z"/>
		<path class="st0" d="M63.5,102.4l-4,17.3h-3.7l-2.7-11.4l-2.6,11.4h-3.7l-4.1-17.3h3.9l2.2,10.5c0,0.1,0.1,0.2,0.1,0.6
			c0,0.1,0.1,0.3,0.1,0.5l2.6-11.6h3.5l2.7,11.6c0.1-0.2,0.1-0.6,0.2-1.1l2.3-10.5H63.5z"/>
		<path class="st0" d="M66.9,108.1v4.2c0.4-0.9,1.1-1.3,2.1-1.3c0.5,0,1,0.1,1.4,0.4c0.4,0.3,0.6,0.6,0.8,1c0.2,0.4,0.2,1,0.2,1.7
			v5.6h-2.3v-4.8c0-0.6,0-1-0.1-1.2c0-0.2-0.1-0.4-0.3-0.5c-0.1-0.1-0.3-0.2-0.6-0.2c-0.3,0-0.6,0.1-0.9,0.4
			c-0.3,0.2-0.4,0.8-0.4,1.6v4.8h-2.3v-11.5H66.9z"/>
		<path class="st0" d="M80.3,119.6H78c-0.1-0.3-0.1-0.8-0.1-1.3c-0.4,0.6-0.8,1-1.2,1.2s-0.8,0.3-1.3,0.3c-0.7,0-1.3-0.2-1.8-0.6
			c-0.5-0.4-0.7-1-0.7-1.7c0-0.5,0.1-1,0.4-1.5c0.3-0.4,0.7-0.8,1.3-1.1c0.6-0.3,1.7-0.4,3.2-0.6v-0.5c0-0.8-0.4-1.2-1.2-1.2
			c-0.8,0-1.3,0.4-1.4,1.2l-2.2-0.2c0.1-1,0.6-1.7,1.3-2.1c0.7-0.4,1.5-0.6,2.4-0.6c0.5,0,1,0.1,1.5,0.2c0.5,0.1,0.9,0.3,1.1,0.6
			c0.3,0.3,0.4,0.6,0.5,0.9c0.1,0.3,0.1,0.8,0.1,1.6v3.9C80.2,118.8,80.2,119.3,80.3,119.6z M77.8,115.6c-1.6,0.2-2.5,0.7-2.5,1.6
			c0,0.3,0.1,0.6,0.3,0.8c0.2,0.2,0.4,0.3,0.7,0.3c0.4,0,0.8-0.2,1-0.6c0.3-0.4,0.4-0.8,0.4-1.4V115.6z"/>
		<path class="st0" d="M84.7,113.1v3.6c0,0.4,0.1,0.8,0.2,0.9c0.1,0.2,0.4,0.2,0.9,0.2c0.2,0,0.5,0,0.7,0v1.9
			c-0.7,0.1-1.2,0.2-1.5,0.2c-1,0-1.7-0.2-2.1-0.6c-0.4-0.4-0.6-1.1-0.6-2.2v-4h-1.3v-2h1.4l0.2-2.5l2-0.2v2.7h1.7v2H84.7z"/>
		<path class="st0" d="M100.4,102.4l-5.1,10v7.3h-3.8v-7.3l-5.1-10h4.4l3.1,6.5l3.1-6.5H100.4z"/>
		<path class="st0" d="M101.6,111c1.2,0,2.2,0.4,2.8,1.3c0.7,0.8,1,1.9,1,3.2c0,1.3-0.4,2.3-1.1,3.1c-0.7,0.8-1.6,1.3-2.8,1.3
			c-1.1,0-2-0.4-2.7-1.2c-0.7-0.8-1-1.9-1-3.2c0-0.9,0.2-1.7,0.5-2.3s0.7-1.1,1.3-1.5C100.1,111.1,100.8,111,101.6,111z
			 M101.7,112.6c-0.4,0-0.8,0.2-1,0.6c-0.2,0.4-0.3,1.1-0.3,2.2c0,1,0.1,1.7,0.3,2.2c0.2,0.4,0.5,0.7,1,0.7c0.4,0,0.7-0.2,1-0.6
			c0.2-0.4,0.4-1.1,0.4-2.1c0-1.1-0.1-1.9-0.3-2.3C102.5,112.8,102.1,112.6,101.7,112.6z"/>
		<path class="st0" d="M113.7,111.1v8.5h-2.2v-1.5c-0.4,1.1-1.2,1.6-2.3,1.6c-0.6,0-1.1-0.1-1.4-0.4c-0.3-0.2-0.5-0.6-0.7-1
			c-0.1-0.4-0.2-1-0.2-1.8v-5.6h2.3v5.6c0,0.8,0.3,1.1,0.9,1.1c0.3,0,0.6-0.1,0.8-0.3c0.2-0.2,0.4-0.4,0.4-0.6
			c0.1-0.2,0.1-0.6,0.1-1.1v-4.8H113.7z"/>
		<path class="st0" d="M121.3,102.4v8.1l5.1-8.1h3.6l-3.9,6.2l4.8,11.1h-4.2l-3.2-7.5l-2.3,3.5v4h-3.7v-17.3H121.3z"/>
		<path class="st0" d="M139.1,119.6h-2.3v-4.8c0-0.6,0-1-0.1-1.2c0-0.2-0.1-0.4-0.3-0.5c-0.2-0.1-0.4-0.2-0.6-0.2
			c-0.8,0-1.2,0.7-1.2,2v4.8h-2.3v-8.5h2.2v1.4c0.4-0.7,0.7-1.1,1.1-1.3c0.4-0.2,0.7-0.3,1.1-0.3c0.8,0,1.4,0.2,1.8,0.7
			c0.5,0.4,0.7,1.3,0.7,2.6V119.6z"/>
		<path class="st0" d="M144.3,111c1.2,0,2.2,0.4,2.8,1.3c0.7,0.8,1,1.9,1,3.2c0,1.3-0.4,2.3-1.1,3.1c-0.7,0.8-1.6,1.3-2.8,1.3
			c-1.1,0-2-0.4-2.7-1.2c-0.7-0.8-1-1.9-1-3.2c0-0.9,0.2-1.7,0.5-2.3c0.3-0.6,0.7-1.1,1.3-1.5C142.8,111.1,143.5,111,144.3,111z
			 M144.3,112.6c-0.4,0-0.8,0.2-1,0.6c-0.2,0.4-0.3,1.1-0.3,2.2c0,1,0.1,1.7,0.3,2.2c0.2,0.4,0.5,0.7,1,0.7c0.4,0,0.7-0.2,1-0.6
			c0.2-0.4,0.4-1.1,0.4-2.1c0-1.1-0.1-1.9-0.3-2.3C145.1,112.8,144.8,112.6,144.3,112.6z"/>
		<path class="st0" d="M160,111.1l-2.4,8.5h-2.1l-1.3-5.5l-1.3,5.5h-2l-2.5-8.5h2.4l1.3,5.2l1.2-5.2h2.1l1.2,5.2l1.4-5.2H160z"/>
	</g>
</g>
</svg>
