<?xml version="1.0" encoding="utf-8"?>
<!-- Generator: Adobe Illustrator 16.0.2, SVG Export Plug-In . SVG Version: 6.00 Build 0)  -->
<!DOCTYPE svg PUBLIC "-//W3C//DTD SVG 1.1//EN" "http://www.w3.org/Graphics/SVG/1.1/DTD/svg11.dtd">
<svg version="1.1" id="Layer_2" xmlns="http://www.w3.org/2000/svg" xmlns:xlink="http://www.w3.org/1999/xlink" x="0px" y="0px"
	 width="200px" height="46px" viewBox="0 0 200 46" enable-background="new 0 0 200 46" xml:space="preserve">
<g>
	<path fill="#FFFFFF" d="M2.236,24.682c-0.877,0-1.708-0.519-2.065-1.379c-0.472-1.14,0.069-2.447,1.209-2.92L44.264,2.606
		c1.685-0.699,3.362-0.589,4.694,0.301S51,5.354,51,7.178v7.245C51,15.431,51.928,16,52.936,16h20.517
		c1.636,0,4.17-0.937,5.317-2.104l0.109-0.136C80.034,12.586,81,10.078,81,8.43V3.657c0-1.234,1.266-2.235,2.5-2.235
		s2.5,1,2.5,2.235V8.43c0,2.837-1.68,6.503-3.669,8.527l-0.284,0.339C80.05,19.327,76.303,21,73.453,21H52.936
		C49.463,21,47,17.896,47,14.423V7.178c0-0.359-0.268-0.529-0.298-0.561c-0.023-0.005-0.304-0.02-0.636,0.118L3.136,24.512
		C2.856,24.627,2.521,24.682,2.236,24.682z"/>
	<path fill="#FFFFFF" d="M87.673,33H2.354c-1.234,0-2.234-1.266-2.234-2.5s1-2.5,2.234-2.5h85.319c1.234,0,2.235,1.266,2.235,2.5
		S88.907,33,87.673,33z"/>
	<path fill="#FFFFFF" d="M87.673,44H2.354c-1.234,0-2.234-1.266-2.234-2.5s1-2.5,2.234-2.5h85.319c1.234,0,2.235,1.266,2.235,2.5
		S88.907,44,87.673,44z"/>
	<rect x="100" fill="#FFFFFF" width="4" height="46"/>
	<g>
		<path fill="#FFFFFF" d="M124.368,2.681l2.436,16.38h-4.354l-0.229-2.944h-1.523l-0.256,2.944h-4.404l2.173-16.38H124.368z
			 M122.111,13.213c-0.216-1.855-0.432-4.148-0.649-6.88c-0.434,3.137-0.707,5.43-0.818,6.88H122.111z"/>
		<path fill="#FFFFFF" d="M136.518,2.681v3.278h-2.529v13.102h-4.259V5.959h-2.52V2.681H136.518z"/>
		<path fill="#FFFFFF" d="M148.837,2.681v16.38h-4.26v-6.879h-1.274v6.879h-4.259V2.681h4.259v5.858h1.274V2.681H148.837z"/>
		<path fill="#FFFFFF" d="M156.359,2.681v13.102h2.59v3.278h-6.85V2.681H156.359z"/>
		<path fill="#FFFFFF" d="M161.535,2.681h7.103v3.278h-2.843v3.106h2.661v3.116h-2.661v3.602h3.126v3.278h-7.386V2.681z"/>
		<path fill="#FFFFFF" d="M180.006,2.681v3.278h-2.53v13.102h-4.259V5.959h-2.52V2.681H180.006z"/>
		<path fill="#FFFFFF" d="M186.791,2.681v16.38h-4.259V2.681H186.791z"/>
		<path fill="#FFFFFF" d="M200,9.813h-4.259V6.966c0-0.828-0.045-1.344-0.136-1.549c-0.091-0.206-0.292-0.308-0.602-0.308
			c-0.351,0-0.574,0.125-0.668,0.375c-0.095,0.25-0.141,0.789-0.141,1.619v7.608c0,0.796,0.046,1.315,0.141,1.558
			c0.094,0.243,0.307,0.364,0.638,0.364c0.317,0,0.524-0.122,0.622-0.365c0.098-0.243,0.146-0.815,0.146-1.714v-2.059H200v0.638
			c0,1.695-0.12,2.898-0.359,3.607c-0.239,0.709-0.769,1.331-1.588,1.865c-0.82,0.533-1.83,0.8-3.03,0.8
			c-1.248,0-2.276-0.226-3.086-0.678c-0.809-0.451-1.345-1.077-1.608-1.876c-0.263-0.799-0.395-2.001-0.395-3.607V8.458
			c0-1.181,0.041-2.066,0.121-2.656c0.081-0.59,0.322-1.158,0.724-1.705c0.401-0.546,0.958-0.976,1.669-1.29
			c0.711-0.313,1.529-0.47,2.453-0.47c1.254,0,2.29,0.242,3.106,0.727c0.816,0.485,1.352,1.09,1.609,1.814
			C199.872,5.602,200,6.729,200,8.257V9.813z"/>
		<path fill="#FFFFFF" d="M126.03,32.502h-3.956v-1.214c0-0.566-0.051-0.927-0.152-1.083c-0.101-0.155-0.27-0.232-0.506-0.232
			c-0.256,0-0.45,0.104-0.582,0.314c-0.131,0.209-0.197,0.526-0.197,0.951c0,0.547,0.074,0.959,0.222,1.235
			c0.141,0.277,0.542,0.611,1.203,1.001c1.896,1.125,3.09,2.049,3.583,2.771c0.492,0.722,0.738,1.885,0.738,3.49
			c0,1.167-0.136,2.027-0.41,2.58c-0.273,0.553-0.801,1.017-1.583,1.391c-0.783,0.374-1.693,0.562-2.732,0.562
			c-1.14,0-2.113-0.216-2.919-0.647s-1.334-0.981-1.583-1.649c-0.25-0.667-0.374-1.615-0.374-2.843v-1.073h3.956v1.994
			c0,0.614,0.056,1.008,0.167,1.184c0.112,0.175,0.309,0.263,0.592,0.263c0.283,0,0.494-0.111,0.632-0.334
			c0.138-0.222,0.207-0.553,0.207-0.991c0-0.964-0.131-1.595-0.395-1.892c-0.27-0.297-0.934-0.792-1.993-1.487
			c-1.059-0.701-1.76-1.21-2.104-1.528c-0.344-0.317-0.629-0.755-0.854-1.315c-0.226-0.56-0.339-1.275-0.339-2.145
			c0-1.254,0.16-2.172,0.48-2.752c0.32-0.58,0.838-1.034,1.553-1.361c0.715-0.327,1.579-0.491,2.59-0.491
			c1.106,0,2.049,0.179,2.828,0.536c0.779,0.358,1.295,0.808,1.548,1.351c0.252,0.543,0.379,1.466,0.379,2.767V32.502z"/>
		<path fill="#FFFFFF" d="M139.067,27.545v16.38h-4.259v-6.88h-1.274v6.88h-4.26v-16.38h4.26v5.858h1.274v-5.858H139.067z"/>
		<path fill="#FFFFFF" d="M152.064,37.137c0,1.646-0.039,2.811-0.116,3.496s-0.32,1.31-0.729,1.876
			c-0.408,0.567-0.959,1.001-1.654,1.306c-0.695,0.303-1.504,0.455-2.428,0.455c-0.877,0-1.664-0.144-2.362-0.43
			c-0.698-0.287-1.259-0.717-1.685-1.29c-0.425-0.573-0.678-1.197-0.759-1.872c-0.081-0.674-0.121-1.854-0.121-3.541v-2.803
			c0-1.646,0.039-2.811,0.116-3.495c0.077-0.685,0.32-1.311,0.729-1.877c0.408-0.566,0.959-1.002,1.654-1.305
			c0.695-0.304,1.504-0.456,2.428-0.456c0.877,0,1.665,0.144,2.363,0.43c0.698,0.287,1.26,0.717,1.684,1.29
			c0.425,0.573,0.678,1.197,0.759,1.872c0.081,0.674,0.121,1.855,0.121,3.541V37.137z M147.805,31.754
			c0-0.762-0.042-1.25-0.126-1.462c-0.084-0.213-0.258-0.319-0.521-0.319c-0.223,0-0.393,0.086-0.511,0.258
			c-0.118,0.172-0.177,0.68-0.177,1.523v7.649c0,0.95,0.039,1.538,0.116,1.76c0.078,0.223,0.258,0.334,0.542,0.334
			c0.29,0,0.476-0.128,0.557-0.384s0.121-0.867,0.121-1.831V31.754z"/>
		<path fill="#FFFFFF" d="M155.207,27.545h4.29c1.16,0,2.052,0.091,2.676,0.273s1.093,0.445,1.406,0.789
			c0.314,0.344,0.526,0.761,0.638,1.25c0.111,0.489,0.167,1.247,0.167,2.271v1.426c0,1.046-0.108,1.808-0.324,2.287
			s-0.612,0.846-1.188,1.103s-1.331,0.385-2.261,0.385h-1.143v6.596h-4.26V27.545z M159.466,30.348v4.168
			c0.121,0.007,0.226,0.01,0.313,0.01c0.391,0,0.663-0.096,0.814-0.288c0.151-0.192,0.227-0.592,0.227-1.199v-1.346
			c0-0.56-0.087-0.924-0.262-1.093C160.383,30.433,160.019,30.348,159.466,30.348z"/>
	</g>
</g>
</svg>
