<?xml version="1.0" encoding="utf-8"?>
<!-- Generator: Adobe Illustrator 16.0.2, SVG Export Plug-In . SVG Version: 6.00 Build 0)  -->
<!DOCTYPE svg PUBLIC "-//W3C//DTD SVG 1.1//EN" "http://www.w3.org/Graphics/SVG/1.1/DTD/svg11.dtd">
<svg version="1.1" id="Layer_2" xmlns="http://www.w3.org/2000/svg" xmlns:xlink="http://www.w3.org/1999/xlink" x="0px" y="0px"
	 width="85.04px" height="40.271px" viewBox="0 0 85.04 40.271" enable-background="new 0 0 85.04 40.271" xml:space="preserve">
<g>
	<path fill="#FFFFFF" d="M2.115,22.002c-0.83,0-1.616-0.49-1.953-1.305c-0.446-1.078,0.065-2.314,1.144-2.762L41.867,1.122
		c1.594-0.661,3.18-0.557,4.44,0.285c1.26,0.841,1.932,2.314,1.932,4.039v6.854c0,0.954,0.878,1.492,1.831,1.492h19.406
		c1.547,0,3.944-0.887,5.029-1.99l0.103-0.129c1.093-1.11,2.006-3.482,2.006-5.042V2.116c0-1.167,1.198-2.114,2.365-2.114
		s2.364,0.946,2.364,2.114V6.63c0,2.684-1.589,6.151-3.47,8.065l-0.269,0.321c-1.889,1.921-5.433,3.503-8.128,3.503H50.07
		c-3.285,0-5.615-2.936-5.615-6.221V5.446c0-0.339-0.253-0.5-0.282-0.53c-0.021-0.005-0.288-0.019-0.602,0.111L2.966,21.842
		C2.701,21.951,2.384,22.002,2.115,22.002z"/>
	<path fill="#FFFFFF" d="M82.926,29.87H2.227c-1.167,0-2.113-1.197-2.113-2.364c0-1.168,0.946-2.364,2.113-2.364h80.699
		c1.167,0,2.114,1.196,2.114,2.364C85.04,28.673,84.093,29.87,82.926,29.87z"/>
	<path fill="#FFFFFF" d="M82.926,40.274H2.227c-1.167,0-2.113-1.197-2.113-2.364c0-1.168,0.946-2.365,2.113-2.365h80.699
		c1.167,0,2.114,1.197,2.114,2.365C85.04,39.077,84.093,40.274,82.926,40.274z"/>
</g>
</svg>
