<svg xmlns="http://www.w3.org/2000/svg" xmlns:xlink="http://www.w3.org/1999/xlink" width="458" height="358" viewBox="0 0 458 358"><defs><clipPath id="a"><rect width="458" height="67" transform="translate(1258.274 683)" fill="#fff" stroke="#707070" stroke-width="1"/></clipPath><clipPath id="b"><path d="M231.388,0C336.776-2.52,462.776,57.48,462.777,92.971S.224,126.461,0,92.971,126,2.52,231.388,0Z" fill="#fff" stroke="#707070" stroke-width="1" opacity="0.29"/></clipPath><clipPath id="c"><rect width="458" height="67" transform="translate(-0.497 0.232)" fill="#fff" stroke="#707070" stroke-width="1"/></clipPath><linearGradient id="d" x1="0.5" x2="0.5" y2="1" gradientUnits="objectBoundingBox"><stop offset="0" stop-color="#ff3b00"/><stop offset="1" stop-color="#ff8d00"/></linearGradient><clipPath id="e"><rect width="23.479" height="23.479" fill="none"/></clipPath><clipPath id="g"><rect width="15.155" height="15.022" fill="none"/></clipPath><clipPath id="h"><rect width="14.801" height="10.25" fill="none"/></clipPath><clipPath id="i"><rect width="81.222" height="82.288" fill="none"/></clipPath><clipPath id="k"><rect width="64.916" height="43.532" fill="none"/></clipPath><clipPath id="l"><rect width="16.339" height="12.171" fill="none"/></clipPath><clipPath id="m"><rect width="51.095" height="69.96" fill="none"/></clipPath><clipPath id="n"><rect width="7.652" height="1.094" fill="none"/></clipPath><clipPath id="o"><rect width="51.228" height="32.307" fill="none"/></clipPath><clipPath id="p"><rect width="50.169" height="50.166" fill="none"/></clipPath></defs><g transform="translate(-1016 -308)"><g transform="translate(-242.273 -84)"><g clip-path="url(#a)"><g transform="translate(1256.497 681.52)" clip-path="url(#b)"><g transform="translate(2.274 1.248)" clip-path="url(#c)"><g transform="translate(3.095 -0.249)"><g transform="translate(0)"><path d="M546.218,447.972c0,37.457-100.54,67.828-224.57,67.828-98.457,0-182.115-19.144-212.418-45.776-7.871-6.909-12.144-14.331-12.144-22.052,0-18.724,25.117-35.687,65.735-47.957q8.251-2.49,17.33-4.718h.008c38.622-9.483,87.855-15.162,141.488-15.162q15.486,0,30.448.625,10.445.42,20.571,1.128a601.109,601.109,0,0,1,63.991,7.8c65.616,11.842,109.56,33.512,109.56,58.28" transform="translate(-97.086 -380.135)" fill="#20cbd3"/><path d="M367.882,380.76a7.364,7.364,0,0,1-.34,1.072c-1.5,3.73-4.681,1.016-6.144,3.2-.637.942.256,2.275,1.25,2.7s2.167.486,2.965,1.26c1.622,1.567.3,4.756-1.716,5.641s-4.265.41-6.432.531a1.276,1.276,0,0,0-1.1.485c-.272.448-.042,1.044-.076,1.585a2.089,2.089,0,0,1-2.133,1.772,17.351,17.351,0,0,1-2.881-.578,5.541,5.541,0,0,0-4.409,1.166c.084.681.755,1.026,1.283,1.4a1.426,1.426,0,0,1,.6,1.641c-4.554,2.331-5.853-2.863-9.8-3.487-5.19-.821-7.671,3.832-7.96,8.476-1.216.774-2.71-.093-4-.727s-3.168-.821-3.746.587c-.527,1.287.551,2.62,1.419,3.665s1.521,2.872.475,3.683a2.29,2.29,0,0,1-1.665.27q-6.282-.56-12.557-1.138a1.043,1.043,0,0,1-.9-.4,1.77,1.77,0,0,1-.094-.877,3.37,3.37,0,0,0-2-2.956,8.551,8.551,0,0,0-3.493-.569,6.229,6.229,0,0,1-1.851,2.881c-1.649-2.3-.383-10.043-4.783-9.959a32.517,32.517,0,0,0-16,3.823c-2.142,1.174-3.925,3.646-6.118,4.56-2.692,1.119-4.341-.494-6.831-.4-1.953.065-3.789,2.014-5.658.41-1.393-1.184.341-4.224-1.342-5.054a2.063,2.063,0,0,0-1.631.168,3.946,3.946,0,0,1-.348,2.1c-1.291-.093-4.689-2.126-5.751-1.4-1,.671-1.147,5.091.016,5.464-5.36-1.744-9.133-8.1-8.41-14.2a3.021,3.021,0,0,0,3.492-1.623,10.283,10.283,0,0,0,8.4,2.881c.619-1.343-.867-2.742-2.218-2.984s-2.879-.056-3.907-1.044a11.442,11.442,0,0,1-1.5-2.676c-1.665-2.853-5.4-2.9-8.462-2.49a11.211,11.211,0,0,0-5.778,2c-1.631,1.352-2.565,3.991-1.511,5.911a10.323,10.323,0,0,0-5.532.635c-1.7.877-2.974,3.095-2.285,5.007-1.573,1.828-4.316.168-5.99-1.548s-4.257-3.534-5.991-1.9c.45.886.9,1.762,1.352,2.648-1.682,1.464-4.639.159-4.937-2.182-.076-.606.008-1.24-.1-1.846a3.723,3.723,0,0,0-3.466-2.788,17.454,17.454,0,0,0-4.562.718c-3,.578-5.573.541-7.477-.97,38.777-9.483,88.208-15.162,142.057-15.162q15.548,0,30.569.625" transform="translate(-112.389 -380.135)" fill="#04a02c"/><path d="M469,397.27a6.052,6.052,0,0,0,.024,5.1c-1.214-1.007-2.974.923-2.641,2.555s1.758,2.676,3.066,3.534q6.717,4.419,13.425,8.848c-5.964,3.367-13.152-1.183-17.757-6.545-1.886-2.21-3.653-4.616-5.99-6.229s-5.454-2.3-7.843-.793c-.144,1.8-.28,3.61-.415,5.408-1.284.141-2.574.281-3.856.411a11.48,11.48,0,0,1,.941,4.933,49.441,49.441,0,0,1-10.568.261,19.841,19.841,0,0,1-3.093-8.691c-1.664-.029-3.331-.057-4.995-.093a8.154,8.154,0,0,1-3.1,6.433,36.621,36.621,0,0,0-9.983-7.17,2.168,2.168,0,0,0,.993,3.385c-1.751-.112-3.593-.317-4.963-1.511-1.435-1.25-1.893-4.02-.406-5.195,2.438-1.92,5.359,2.425,8.351,2.182,2.014-.167,3.424-2.956,2.489-4.933a35.871,35.871,0,0,1-11.18-4.429c1.538.3,2.191-2.3,1.452-3.814s-2.158-2.647-2.489-4.326q3.964-.532,7.918-1.054c.867-.121,1.894-.354,2.226-1.25.263-.718-.052-1.6.3-2.275a605.889,605.889,0,0,1,64.248,7.8c-3.747,5.258-10.085,8.318-16.15,7.45" transform="translate(-145.487 -380.262)" fill="#04a02c"/><path d="M179.524,431.285c-5-1.929-11.1,2.639-11.283,8.439a6.756,6.756,0,0,1-.306,2.564,4.068,4.068,0,0,1-1.845,1.706,29.014,29.014,0,0,1-13.2,3.852,7.861,7.861,0,0,0-2.6.363,9.469,9.469,0,0,0-2.957,2.36c-7.434,7.338-18.412,7.99-28.4,7.468a4.063,4.063,0,0,0-2.336.346c-1.878,1.137-1.24,4.176-1.444,6.517a7.7,7.7,0,0,1-5.879,6.565c-7.9-6.909-12.192-14.331-12.192-22.053,0-18.724,25.217-35.686,66-47.956.331.074.654.148.986.233,1.852.466,5.786.792,6.1,2.946.459,3.125-2.719,3.711-4.63,2.779a9.873,9.873,0,0,0-2.328-1.026,1.947,1.947,0,0,0-2.175.97c-.647,1.427,1.028,3,2.056,3.507a42.185,42.185,0,0,0-5.1-.075c3.356,2,7.528,2.1,11.257,2.647-.11.55-.042,1.549.6,1.725-.739.477-1.487.951-2.226,1.427a3.6,3.6,0,0,1-.518,4.653,7.666,7.666,0,0,0,4.206,2.415c-.374-2.546.977-5.614,3.322-5.865s3.993,3.935,1.878,5.063l3.415,1.65a21.861,21.861,0,0,1-.407,6.779" transform="translate(-97.086 -381.575)" fill="#04a02c"/><path d="M201.134,414.059c-2.411.615-5.111-1.279-5.613-3.939,1.736-.368,3.847-1.15,4.075-3.074a2.952,2.952,0,0,1,.135-.84,1.238,1.238,0,0,1,1.381-.576,4.462,4.462,0,0,1,3.179,3.127,15.165,15.165,0,0,1,.584,4.848l-3.3.076Z" transform="translate(-112.23 -381.855)" fill="#88bfe2"/><path d="M214.778,414.476c-.822.256-1.312-1.244-.716-1.915a2.3,2.3,0,0,1,2.417-.361,3.388,3.388,0,0,1,2.573,2.3,9.918,9.918,0,0,1-.169,2.576c-.049.864.339,1.921,1.126,1.983l-2.458.1a2,2,0,0,0-1.211-2.231,4.794,4.794,0,0,0-2.576-.092,1.1,1.1,0,0,1,1.155-1.241Z" transform="translate(-115.033 -382.289)" fill="#88bfe2"/></g></g><g transform="translate(-2.274 -1.248)" fill="#fff" opacity="0.29"><path d="M 236.4992065429688 118.3439025878906 C 206.7889099121094 118.3439025878906 177.7157287597656 117.7876052856445 150.0872650146484 116.6906051635742 C 121.5797958374023 115.5586700439453 96.0965576171875 113.906608581543 74.34543609619141 111.7803115844727 C 51.24379348754883 109.5220184326172 33.16891098022461 106.8017883300781 20.6227912902832 103.6950225830078 C 14.04373359680176 102.0659027099609 8.995497703552246 100.3244323730469 5.618380546569824 98.51902008056641 C 2.234615802764893 96.71007537841797 0.5125569105148315 94.84219360351563 0.5000275373458862 92.96737670898438 C 0.4473804533481598 85.08190155029297 7.722851276397705 75.43495941162109 21.53996849060059 65.06961059570313 C 34.95449829101563 55.00625610351563 53.88438034057617 44.72331237792969 76.28314208984375 35.33248901367188 C 99.38779449462891 25.64566802978516 125.1744995117188 17.35854911804199 150.8555603027344 11.36702060699463 C 164.4940338134766 8.185020446777344 178.083740234375 5.652549743652344 191.2470855712891 3.839961290359497 C 205.1257934570313 1.92884361743927 218.6353149414063 0.8050789833068848 231.4003143310547 0.4999024868011475 C 233.5302581787109 0.4489613175392151 235.7089080810547 0.4231377840042114 237.875732421875 0.4231377840042114 C 250.4609680175781 0.4231377840042114 263.7378540039063 1.2872554063797 277.3375549316406 2.991431951522827 C 290.2130126953125 4.604843616485596 303.4834289550781 6.983020305633545 316.7800903320313 10.05984401702881 C 341.692138671875 15.82454967498779 366.7092590332031 24.05707931518555 389.1268615722656 33.867431640625 C 410.6960144042969 43.30654907226563 428.961669921875 53.77996063232422 441.9491577148438 64.15543365478516 C 455.2474975585938 74.77925872802734 462.2766723632813 84.74343109130859 462.2767333984375 92.97072601318359 C 462.2767333984375 94.91307830810547 460.6622009277344 96.83066558837891 457.4779663085938 98.67031097412109 C 454.2998046875 100.5064926147461 449.5360717773438 102.2684936523438 443.3192749023438 103.9074325561523 C 431.471923828125 107.0307235717773 414.3143310546875 109.742546081543 392.3231506347656 111.9676055908203 C 371.7040405273438 114.053840637207 347.341552734375 115.6664886474609 319.9125671386719 116.7607879638672 C 293.5807800292969 117.8112564086914 265.5165100097656 118.3439025878906 236.4992065429688 118.3439025878906 Z" stroke="none"/><path d="M 237.875732421875 0.9231414794921875 C 235.7132568359375 0.9231414794921875 233.5386199951172 0.9489059448242188 231.4122619628906 0.999725341796875 C 218.6660308837891 1.304489135742188 205.1754455566406 2.426727294921875 191.3152770996094 4.335258483886719 C 178.1671447753906 6.145782470703125 164.5927429199219 8.675430297851563 150.9691467285156 11.85390472412109 C 125.3149108886719 17.83925628662109 99.55572509765625 26.117431640625 76.47650146484375 35.79360961914063 C 54.11508178710938 45.16872406005859 35.22207641601563 55.43054962158203 21.8399658203125 65.4696044921875 C 8.15478515625 75.73602294921875 0.948394775390625 85.24343109130859 0.999969482421875 92.96401977539063 C 1.00531005859375 93.76737213134766 1.373626708984375 94.56043243408203 2.12591552734375 95.38848876953125 C 2.94232177734375 96.28713989257813 4.196685791015625 97.19207763671875 5.854095458984375 98.07807922363281 C 9.194732666015625 99.86402130126953 14.20404052734375 101.5905456542969 20.74298095703125 103.2097244262695 C 33.265625 106.3106079101563 51.31643676757813 109.0267868041992 74.39407348632813 111.2827301025391 C 96.13568115234375 113.4080200195313 121.6091918945313 115.0594329833984 150.1070861816406 116.1910171508789 C 177.7289733886719 117.2877807617188 206.7955017089844 117.8439025878906 236.4992065429688 117.8439025878906 C 265.5098571777344 117.8439025878906 293.5675048828125 117.3113708496094 319.8926086425781 116.2611999511719 C 347.3114929199219 115.1673126220703 371.6637268066406 113.5553741455078 392.2728576660156 111.4701385498047 C 414.2380981445313 109.2477264404297 431.3696899414063 106.5405502319336 443.1918640136719 103.4239044189453 C 449.36572265625 101.7963104248047 454.0880737304688 100.0513153076172 457.2278442382813 98.23737335205078 C 460.2462768554688 96.49349212646484 461.7767333984375 94.72154998779297 461.7767333984375 92.97072601318359 C 461.7766723632813 88.92972564697266 460.0230407714844 84.42155456542969 456.5644836425781 79.57131958007813 C 453.1560363769531 74.79137420654297 448.1337280273438 69.73613739013672 441.6370849609375 64.54608154296875 C 428.6831970214844 54.19743347167969 410.4561462402344 43.74737548828125 388.9263916015625 34.32549285888672 C 366.53662109375 24.52725219726563 341.5498657226563 16.30478668212891 316.6673583984375 10.54701995849609 C 303.3873291015625 7.474021911621094 290.1339721679688 5.098846435546875 277.275390625 3.487548828125 C 263.6962585449219 1.785903930664063 250.4402618408203 0.9231414794921875 237.875732421875 0.9231414794921875 M 237.8757476806641 -0.07686614990234375 C 341.87890625 -0.07686614990234375 462.7763977050781 58.20392608642578 462.7767333984375 92.97072601318359 C 462.7769165039063 110.4580993652344 350.4604187011719 118.843879699707 236.4991912841797 118.843879699707 C 119.1782836914063 118.843879699707 0.1134033203125 109.9591217041016 -3.0517578125e-05 92.97072601318359 C -0.2236328125 59.48043060302734 126.0003662109375 2.519607543945313 231.3883819580078 2.288818359375e-05 C 233.5367889404297 -0.0513458251953125 235.7114410400391 -0.07686614990234375 237.8757476806641 -0.07686614990234375 Z" stroke="none" fill="#707070"/></g></g></g></g><g transform="translate(1267.881 392)"><path d="M390.8,118.828a1.557,1.557,0,1,1-1.55-1.7,1.631,1.631,0,0,1,1.55,1.7" transform="translate(-122.013 -64.714)" fill="#227987"/><path d="M518.883,161.622a1.557,1.557,0,1,1-1.551-1.7,1.631,1.631,0,0,1,1.551,1.7" transform="translate(-141.275 -67.604)" fill="#227987"/><path d="M494.923,247.517a1.557,1.557,0,1,1-1.551-1.7,1.631,1.631,0,0,1,1.551,1.7" transform="translate(-137.671 -73.405)" fill="#227987"/><path d="M377.59,256.955a1.557,1.557,0,1,1-1.551-1.7,1.632,1.632,0,0,1,1.551,1.7" transform="translate(-120.027 -74.042)" fill="#227987"/><path d="M472.378,337.1a1.557,1.557,0,1,1-1.551-1.7,1.631,1.631,0,0,1,1.551,1.7" transform="translate(-134.282 -79.453)" fill="#227987"/><path d="M293.871,370.288a1.557,1.557,0,1,1-1.551-1.7,1.632,1.632,0,0,1,1.551,1.7" transform="translate(-107.437 -81.695)" fill="#227987"/><path d="M481.124,225.407a.34.34,0,1,1-.339-.372.357.357,0,0,1,.339.372" transform="translate(-135.961 -72.001)" fill="#227987"/><path d="M433.48,146.931a.341.341,0,1,1-.339-.372.356.356,0,0,1,.339.372" transform="translate(-128.796 -66.702)" fill="#227987"/><path d="M495.75,110.113a.34.34,0,1,1-.338-.372.357.357,0,0,1,.338.372" transform="translate(-138.161 -64.216)" fill="#227987"/><path d="M340.849,293.117a.34.34,0,1,1-.339-.372.357.357,0,0,1,.339.372" transform="translate(-114.866 -76.574)" fill="#227987"/><path d="M510.092,340.843a.34.34,0,1,1-.339-.372.356.356,0,0,1,.339.372" transform="translate(-140.318 -79.796)" fill="#227987"/><path d="M439.108,364.384a.341.341,0,1,1-.339-.371.357.357,0,0,1,.339.371" transform="translate(-129.643 -81.386)" fill="#227987"/><path d="M305.6,255.226a.341.341,0,1,1-.339-.372.357.357,0,0,1,.339.372" transform="translate(-109.564 -74.015)" fill="#227987"/><path d="M297.645,328.718a.341.341,0,1,1-.339-.372.357.357,0,0,1,.339.372" transform="translate(-108.369 -78.978)" fill="#227987"/><path d="M393.389,284.384a.341.341,0,1,1-.339-.371.357.357,0,0,1,.339.371" transform="translate(-122.767 -75.984)" fill="#227987"/><path d="M465.932,308.807a.341.341,0,1,1-.339-.372.357.357,0,0,1,.339.372" transform="translate(-133.676 -77.633)" fill="#227987"/><path d="M340.449,351.652a.34.34,0,1,1-.338-.372.356.356,0,0,1,.338.372" transform="translate(-114.806 -80.526)" fill="#227987"/><path d="M223.525,299.052a.341.341,0,1,1-.339-.372.357.357,0,0,1,.339.372" transform="translate(-97.222 -76.974)" fill="#227987"/><path d="M263.47,312.384a.34.34,0,1,1-.339-.371.357.357,0,0,1,.339.371" transform="translate(-103.23 -77.875)" fill="#227987"/><path d="M138.026,381.988a.341.341,0,1,1-.339-.372.357.357,0,0,1,.339.372" transform="translate(-84.365 -82.575)" fill="#227987"/><path d="M172.824,384.87a.34.34,0,1,1-.339-.371.356.356,0,0,1,.339.371" transform="translate(-89.598 -82.769)" fill="#227987"/><path d="M201.3,278.353a.34.34,0,1,1-.339-.372.357.357,0,0,1,.339.372" transform="translate(-93.88 -75.577)" fill="#227987"/><path d="M462.118,240.107a.779.779,0,1,1-.776-.851.816.816,0,0,1,.776.851" transform="translate(-132.971 -72.962)" fill="#227987"/><path d="M393.748,220.619a.779.779,0,1,1-.776-.851.816.816,0,0,1,.776.851" transform="translate(-122.69 -71.646)" fill="#227987"/><path d="M490,185.514a.779.779,0,1,1-.776-.851.817.817,0,0,1,.776.851" transform="translate(-137.164 -69.275)" fill="#227987"/><path d="M509.538,296.017a.779.779,0,1,1-.776-.851.817.817,0,0,1,.776.851" transform="translate(-140.102 -76.737)" fill="#227987"/><path d="M400.294,339.894a.778.778,0,1,1-.775-.849.816.816,0,0,1,.775.849" transform="translate(-123.674 -79.7)" fill="#227987"/><path d="M348.731,321.929a.779.779,0,1,1-.776-.851.816.816,0,0,1,.776.851" transform="translate(-115.92 -78.487)" fill="#227987"/><path d="M497.022,376.622a.778.778,0,1,1-.775-.851.815.815,0,0,1,.775.851" transform="translate(-138.221 -82.18)" fill="#227987"/><path d="M299.256,296.844a.779.779,0,1,1-.776-.851.816.816,0,0,1,.776.851" transform="translate(-108.479 -76.793)" fill="#227987"/><path d="M295.722,195.35a1.558,1.558,0,1,1-1.551-1.7,1.632,1.632,0,0,1,1.551,1.7" transform="translate(-107.715 -69.882)" fill="#227987"/><path d="M166.883,287.13a1.557,1.557,0,1,1-1.551-1.7,1.631,1.631,0,0,1,1.551,1.7" transform="translate(-88.34 -76.079)" fill="#227987"/><path d="M249.423,143.712a1.557,1.557,0,1,1-1.551-1.7,1.631,1.631,0,0,1,1.551,1.7" transform="translate(-100.752 -66.395)" fill="#227987"/><path d="M281.924,173.24a.341.341,0,1,1-.339-.372.356.356,0,0,1,.339.372" transform="translate(-106.004 -68.479)" fill="#227987"/><path d="M233.334,158.384a.341.341,0,1,1-.339-.371.357.357,0,0,1,.339.371" transform="translate(-98.697 -67.476)" fill="#227987"/><path d="M320.759,117.741a.341.341,0,1,1-.339-.372.356.356,0,0,1,.339.372" transform="translate(-111.844 -64.731)" fill="#227987"/><path d="M343.9,67.45a.341.341,0,1,1-.339-.372.357.357,0,0,1,.339.372" transform="translate(-115.324 -61.335)" fill="#227987"/><path d="M424.575,106.623a.34.34,0,1,1-.339-.372.357.357,0,0,1,.339.372" transform="translate(-127.457 -63.98)" fill="#227987"/><path d="M284.829,109.713a.34.34,0,1,1-.338-.372.356.356,0,0,1,.338.372" transform="translate(-106.442 -64.189)" fill="#227987"/><path d="M430.738,67.051a.34.34,0,1,1-.338-.371.358.358,0,0,1,.338.371" transform="translate(-128.384 -61.308)" fill="#227987"/><path d="M399.2,85.986a.34.34,0,1,1-.338-.372.357.357,0,0,1,.338.372" transform="translate(-123.641 -62.587)" fill="#227987"/><path d="M471.575,66.652a.341.341,0,1,1-.339-.372.356.356,0,0,1,.339.372" transform="translate(-134.525 -61.281)" fill="#227987"/><path d="M262.916,187.941a.778.778,0,1,1-.775-.851.815.815,0,0,1,.775.851" transform="translate(-103.015 -69.439)" fill="#227987"/><path d="M282.284,139.467a.779.779,0,1,1-.776-.851.816.816,0,0,1,.776.851" transform="translate(-105.927 -66.166)" fill="#227987"/><path d="M338.478,89.829a.778.778,0,1,1-.775-.851.816.816,0,0,1,.775.851" transform="translate(-114.378 -62.814)" fill="#227987"/><path d="M226.521,279.63a.779.779,0,1,1-.775-.85.816.816,0,0,1,.775.85" transform="translate(-97.542 -75.631)" fill="#227987"/><path d="M115.946,398.842a.779.779,0,1,1-.776-.85.816.816,0,0,1,.776.85" transform="translate(-80.914 -83.681)" fill="#227987"/><path d="M211.925,345.017a.779.779,0,1,1-.776-.851.816.816,0,0,1,.776.851" transform="translate(-95.347 -80.046)" fill="#227987"/><path d="M489.084,135.736a.779.779,0,1,1-.776-.851.816.816,0,0,1,.776.851" transform="translate(-137.026 -65.914)" fill="#227987"/><path d="M402.231,63.6a.779.779,0,1,1-.776-.851.816.816,0,0,1,.776.851" transform="translate(-123.966 -61.042)" fill="#227987"/><path d="M513.452,61.77a.779.779,0,1,1-.776-.851.816.816,0,0,1,.776.851" transform="translate(-140.691 -60.919)" fill="#227987"/><path d="M404.113,140.38a.779.779,0,1,1-.776-.851.816.816,0,0,1,.776.851" transform="translate(-124.249 -66.227)" fill="#227987"/><path d="M430.974,192.6c3.647-3.149,25.5,6.337,25.5,6.337.846-6.464,1.2-22.7,1.2-22.7l3.652-1.319s3.219,27.368-.179,31.143-27.828,0-27.828,0Z" transform="translate(-128.521 -67.617)" fill="#f2ae40"/><path d="M462.179,386.07a11.561,11.561,0,0,1-1.5-2.147,3.425,3.425,0,0,0-3.56-1.655c-.726.695-.841,3.86-.861,4.606h-.908c-.316-.891-1.421-4.977-1.087-6.5.279-1.231,1.115-4.075,1.478-5.436a4.974,4.974,0,0,0,.2-1.1c-1.012-4.65-4.489-20.527-10.534-33.322-4.8-10.163-6.348-14.2-7.3-23.314s-8.519-31.89-8.519-31.89,10.629-31.68,15.007-11.978,4.963,43.868,5.695,48.691,7.315,38.625,11.232,52.792c.747,2.7,4.378,8.076,5.793,9.331a.161.161,0,0,0,.036.015,5.023,5.023,0,0,1,1.883,1.094,4.415,4.415,0,0,1,.674.82Z" transform="translate(-128.313 -74.827)" fill="#d86"/><path d="M466.536,394.69c-.778,0-2.281-1.781-3.337-2.68-.987-.841-1.556-.8-1.556-.8-.725.695-1.009,2.738-1.029,3.484H459.7c-.316-.891-1.421-4.977-1.088-6.5a30.492,30.492,0,0,0,1.121-5.257c2.844-1.777,5.286,4.235,8.948,7.621,1.841,1.7,2.984,1.407,2.984,1.407a.293.293,0,0,0,.037.016,9.3,9.3,0,0,1,2.266.775,3.857,3.857,0,0,1,1.756,1.943Z" transform="translate(-132.669 -82.642)" fill="#164353"/><path d="M407.964,280.6c-1.172,20.083,2.3,25.065,3.643,33.325,1.019,6.248-1.88,15.3,1.045,25.362,1.946,6.7,6.272,35.1,6.272,35.1v11.791h7.232s-2.85-13.049-2.85-17.955c0-21.17-2.661-46.41-2.266-56.007.387-9.379,3.256-27.87,3.256-27.87Z" transform="translate(-125.025 -75.754)" fill="#f3a17a"/><path d="M447.137,308.471s-6.44,3.208-19.32,3.982a104.636,104.636,0,0,1-11.359.14h-.009c-1.02-3.366-4.248-14.341-5.488-23.265,0,0-2.2,12.439-.705,22.594-.68-.14-.994-.242-.994-.242-8.921-48.125,7.536-64.434,7.536-64.434a27.154,27.154,0,0,1,20.942-1.072s6.993,17.008,9.4,62.3" transform="translate(-124.857 -73.32)" fill="#935c8f"/><path d="M426.35,193.882s-3.144,3.118-9.626,4.768-10.979-.816-14.689,3.022c-5.827,6.028,3.924,19.794,8.183,26.369a41.433,41.433,0,0,1,5.615,15.777s11.245,3.585,20.944-1.07l.725-15.142s6.113-20.406-11.151-33.725" transform="translate(-123.898 -69.898)" fill="#fff"/><path d="M405.589,168.732a5.975,5.975,0,0,0-5.092-1.869c-3.275.353-3.488,7.984-1.788,11.628s-4.142,6.436-3.611,9.47,4.142,5.714,1.168,6.763.367,5.012,4.06,2.564-1.2-8.043,1.882-8.625,4.951-9.26,3.381-13.547,0-6.385,0-6.385" transform="translate(-123.121 -68.071)" fill="#935c8f"/><path d="M410.772,167.5s12.411-4.562,14.912,5.03.348,18.805-6.333,18.563c-8.239-.3-18.219-18.2-8.579-23.593" transform="translate(-124.888 -68.043)" fill="#f3a17a"/><path d="M418.83,181.957a1.153,1.153,0,0,0,1.085,1.177,1.1,1.1,0,0,0,1.285-.9,1.155,1.155,0,0,0-1.086-1.178,1.1,1.1,0,0,0-1.285.9" transform="translate(-126.694 -69.031)" fill="#ed7d66"/><path d="M422.281,178.559s-.726-.761-1.172-.642-.861.778-.861.778l-.985-.364.867.066a1.19,1.19,0,0,1,.978-.695c.667,0,1.172.856,1.172.856" transform="translate(-126.761 -68.805)" fill="#1a4850"/><path d="M427.283,178.3c.037.615.353,1.094.709,1.069s.614-.545.578-1.16-.354-1.094-.709-1.069-.613.545-.577,1.16" transform="translate(-127.966 -68.767)" fill="#1a4850"/><path d="M426.887,178.087s.3-1.415.754-1.449,1.222.909,1.222.909l.839-.67-.809.348s-.7-1.078-1.333-.858-.674,1.72-.674,1.72" transform="translate(-127.907 -68.713)" fill="#1a4850"/><path d="M419.917,175.609a.251.251,0,0,0,.2-.131,1.642,1.642,0,0,1,1.527-.781.263.263,0,0,0,.284-.252.277.277,0,0,0-.229-.31,2.127,2.127,0,0,0-2.015,1.039.3.3,0,0,0,.078.391.235.235,0,0,0,.154.044" transform="translate(-126.817 -68.564)" fill="#d14e4e"/><path d="M426.65,174.083a.25.25,0,0,0,.149-.064,1.571,1.571,0,0,1,1.672-.232.248.248,0,0,0,.338-.147.293.293,0,0,0-.132-.371,2.053,2.053,0,0,0-2.208.314.3.3,0,0,0-.034.4.251.251,0,0,0,.215.1" transform="translate(-127.829 -68.493)" fill="#d14e4e"/><path d="M426.9,180.269s2.216.021,2,.877a5.6,5.6,0,0,1-1.5,1.968s-1-1.779-.5-2.845" transform="translate(-127.888 -68.978)" fill="#dd774e"/><path d="M415.411,172.795a16.46,16.46,0,0,0-2.695,9.131s-2.082-2.8-3.172-.367,3.273,5.989,3.273,5.989-.22,1.572-2.72.173c-1.724-.964-6.264-5.68-5.129-9.71s4.62-8.036,10.443-5.216" transform="translate(-124.583 -68.41)" fill="#935c8f"/><path d="M414.176,186.375c.952,2.815,4.524,7.112,8.391,5.719,0,0-.454,3.371,1.154,4.9v5.529l-9.866-5.738c.8-8.432-1.059-9.41-1.059-9.41,1.043.757,1.38-1,1.38-1" transform="translate(-125.787 -69.391)" fill="#d86"/><path d="M423.358,184.705a3.506,3.506,0,0,1,1.7.3,2.4,2.4,0,0,1,.92.774,2.819,2.819,0,0,1,.27.487,2.747,2.747,0,0,0-.32-.439,2.186,2.186,0,0,0-.943-.6,2.971,2.971,0,0,0-1.079-.123,2.763,2.763,0,0,0-.481.069Z" transform="translate(-127.375 -69.277)" fill="#1a4850"/><path d="M419.2,169.4s-4.553,7.1-9.295,9.55-8.343,1.541-5.312-8.595a9.348,9.348,0,0,1,4.3-4.911c8.811-4.1,11.506-.764,11.506-.764,5.735-1.54,8.85,5.675,5.382,10.545a4,4,0,0,0-1.624-3.44c-1.594-1.082-3.049.022-4.963-2.386" transform="translate(-124.386 -67.84)" fill="#a5729f"/><path d="M419.5,394.679c-.182-1.684.214-4.615.214-6.037a46.5,46.5,0,0,1,.976-6.2,40,40,0,0,0,1.466,6.738c.366,1.607,3.173,1.206,3.736,0s0-6.738,0-6.738c1.295,2.239.9,5.4,2.031,6.487.8.768.878,4.241.86,5.75Z" transform="translate(-126.789 -82.63)" fill="#164353"/><path d="M438.416,173.587l-9.1,2.161c-.317.075-.438.849-.272,1.73s.557,1.539.874,1.47l9.137-1.974Z" transform="translate(-128.22 -68.527)" fill="#2e5881"/><path d="M452.379,169.872l-13.051,3.137c-.445.107-.625,1.143-.405,2.315s.761,2.044,1.208,1.95l13.116-2.8Z" transform="translate(-129.703 -68.276)" fill="#b4a963"/><path d="M475.95,165.943l-24.474,7.026c-.821.235-1.174,2.382-.79,4.8s1.359,4.205,2.186,4l24.61-6.174Z" transform="translate(-121.727 -96.707) rotate(3)" fill="#2e5881"/><path d="M480.63,170.261c-.844.176-1.8-1.16-2.143-2.984s.052-3.466.89-3.671,1.818,1.126,2.167,2.978-.063,3.5-.913,3.677" transform="translate(-135.647 -67.852)" fill="#fff"/><path d="M489.022,163.607,467.4,168.164c-1.479.312-2.151,2.948-1.509,5.889s2.361,5.111,3.85,4.842l21.755-3.928Z" transform="translate(-130.735 -73.194)" fill="#b4a963"/><path d="M483.9,176.672c-1.968.338-4.2-2.191-5-5.644s.125-6.565,2.079-6.947c1.97-.388,4.236,2.135,5.048,5.636s-.147,6.616-2.125,6.955" transform="translate(-121.92 -74.628)" fill="#164353"/><path d="M426.887,194.544s9.6,8.258,8.1,26.988l-.251,24.946,4.866,20.478s6.058-4.052,6.624-6.826l-4.814-18s3.039-27.88,1.151-33.594c-2.744-8.308-12.2-14.649-12.2-14.649Z" transform="translate(-127.907 -69.898)" fill="#ffc24e"/><path d="M409.595,198.932s-14.035-.2-8.749,13.634,13.208,20.888,13.793,29.747c0,0-5.9,11.607-7.33,18.159l19.353,8.883,4.227-21.383s1.789-20.152,0-27.359-17.62-20.668-21.293-21.68" transform="translate(-123.812 -70.239)" fill="#ffc24e"/><path d="M411.977,196.9l1.981-2.593a18.633,18.633,0,0,1,9.991,9.5l-3.821-2.681-3.9,1.748s-3.773-3.255-4.251-5.975" transform="translate(-125.664 -69.926)" fill="#e3e4e5"/><path d="M458.063,172.4l.991,2.354s2.124,1.133,2.691,1.319,3.551-.1,3.652-1.319a3.291,3.291,0,0,0-.18-1.721l-2.256.476s-.649-.412-1.995.237-1.77-1.243-2.9-1.346" transform="translate(-132.595 -67.447)" fill="#f3a17a"/><path d="M409.914,196.495s19.116,7.4,22.036,23.952c0,0-9.276-9.265-16.107-11.247l.825-5.245-9.947-.408a11.286,11.286,0,0,0,0-4.18s2.715-1.415,3.193-2.871" transform="translate(-124.875 -70.074)" fill="#f2ae40"/><path d="M437.77,182.015l-1.647-2.795s.518.039.823-1.035.194-3.6.824-4.343,1.507-1.849,1.913-1.033c0,0,1.115-1.057,1.538.213,0,0-.523.519-.32.821s.837-.945,1.653-1.14.645.466.645.466a12.555,12.555,0,0,0-.946,1.866c-.54,1.261.571-.352.961-.584s1.133-.642,1.133-.642.743-.1,0,.675a8.626,8.626,0,0,0-1.606,3.9,8.735,8.735,0,0,1-1.187,3.631c-.991,1.918-3.783,0-3.783,0" transform="translate(-129.296 -68.447)" fill="#f3a17a"/><path d="M424.3,194.546s2.014-1.755,9.821,4.073l-1.274,2.74,6.585,6.015s-2.414,10.428-4.765,13.221c0,0,1.479-20.857-10.366-26.05" transform="translate(-127.517 -69.926)" fill="#f2ae40"/><path d="M424.257,194.564s3.5.985,4.963,5.88h-3.161l-.3,3.38s-2.456-6.34-1.5-9.26" transform="translate(-127.478 -69.944)" fill="#e3e4e5"/><path d="M435.657,183.281s-.595,30.277-3.144,33.588-26.22.569-29.609-3.189c-1.811-2-2.4-5.4-2.192-8.159.187-2.415,1.011-4.355,2.192-4.448,5.37-.457,24.223,7.488,24.223,7.488l5.012-26.417s1.453-1.371,3.518,1.138" transform="translate(-123.965 -69.08)" fill="#ffc24e"/><path d="M435.657,183.39s-.595,30.277-3.144,33.588-26.22.569-29.609-3.189c-1.811-2-2.4-5.4-2.192-8.159l.008-.009s1.266,6.238,3.934,8.29,20.918,4.892,27.179,2.1c1.432-.639,3.823-32.618,3.823-32.618" transform="translate(-123.965 -69.189)" fill="#f2ae40"/><path d="M211.309,204.5a45.219,45.219,0,0,0-14,19.367c-4.46,12.353.065,14.277,3.038,12.605s18.719-18.427,18.719-18.427Z" transform="translate(-93.1 -70.614)" fill="#f2ae40"/><path d="M298.308,247c.167-.388.25-.656.25-.656s-.561-.417-1.226.391a.844.844,0,0,0-.048.07c.165-.385.247-.651.247-.651s-.56-.417-1.225.391c-.371.45.03.941-.857,1.369a1.929,1.929,0,0,0-.458-.517,2.11,2.11,0,0,1-.59-.695v.4a1.19,1.19,0,0,0-.189-.167,2.092,2.092,0,0,1-.59-.695v.989a1.88,1.88,0,0,0-.437-.485,2.12,2.12,0,0,1-.59-.695v3.768a9.694,9.694,0,0,0,1.027.084v.106c.262.037.52.048.778.064v.4a9.38,9.38,0,0,0,1.15.094c2.627.049,3.785-3.754,3.785-3.754a.811.811,0,0,0-1.028.189m-1.133.048c-.087.325-.031.656-.528.962a8.074,8.074,0,0,0,.528-.962m.36,1.355c.129-.185.248-.371.352-.554a.853.853,0,0,1-.352.554" transform="translate(-107.712 -73.42)" fill="#d86"/><path d="M277.962,394.737v-2.181c0-2.512-2.138-7.072-2.138-8.747s-5.9,1.36-5.9,1.36a8.516,8.516,0,0,1-2.031,4.874,6.626,6.626,0,0,0-1.434,4.693Z" transform="translate(-103.776 -82.689)" fill="#11393d"/><path d="M230.213,394.693l1.022-.524.477.524h3.9c.387-1.231,1.706-5.91.516-9.155-1.381-3.763-5.655-2.759-5.655-2.759s-2.9,4.44-4.579,5.235-8.089,3.643-8.853,5.486c-.228.551.161.923.049,1.194Z" transform="translate(-96.339 -82.645)" fill="#11393d"/><path d="M245.344,245.145c-2.213,35.218-8.257,81.376-14.814,129.927,0,0,1.285,2.3,8.579,1.095l22.459-103.094a.651.651,0,0,1,.6-.455.673.673,0,0,1,.646.679c.258,7.77,2.529,31.54,1.309,103.2a8.272,8.272,0,0,0,7.921,0s14.48-105.989,11.145-126.281Z" transform="translate(-98.378 -73.359)" fill="#935c8f"/><path d="M280.584,245.786c.052,3.14-5.839,15.162-23.814,12.039-10.21-1.774-14.845-7.246-14.845-7.246s-32.59-30.178-29.9-43.552c.927-4.612,11.644-11.648,19.724-11.212a51.481,51.481,0,0,1,20.917,5.947c8.558,3.546,27.721,32.095,27.918,44.024" transform="translate(-95.572 -70.027)" fill="#ffc24e"/><path d="M224.97,203.185a22.587,22.587,0,0,0,3.682,8.624,306.448,306.448,0,0,1,2.2,43.982l1.455,2.892,4.126-3.359s-2.9-30.305-5.729-43.593c0,0,1.727-6.329,4.183-8.227s-1.545-2.591-1.545-2.591Z" transform="translate(-97.542 -70.372)" fill="#a5729f"/><path d="M227.176,195.8c-2.6,1.21-5.051,5.861-2.856,12.14,0,0,.332-2.6,1.623-2.621s2.106,1.689,2.106,1.689l3.705-3.412s.121-9.978-4.578-7.8" transform="translate(-97.316 -70.006)" fill="#f2ae40"/><path d="M228.473,184.974c2.011,12.031-9.477,15.83-12.915,11.9a21.143,21.143,0,0,1-3.266-6.451q-.322-.933-.592-1.9c-1.211-4.347-1.523-8.923.551-10.543,7.216-5.642,14.212-5.036,16.223,6.994" transform="translate(-95.402 -68.591)" fill="#f3a17a"/><path d="M209.72,180.754A13.484,13.484,0,0,1,221,175.828s3.076,6.286,4.179,9.191c0,0,2.913.3,1.71,7.009,0,0,3.4-1.27,1.873-11.691-1.325-9.034-6.346-7.237-6.346-7.237a5.866,5.866,0,0,0-7.846-2.5c-5.278,2.41-7.184,5.23-8.833,2.743s-3.127,8.168,3.981,7.41" transform="translate(-94.445 -68.281)" fill="#145b6b"/><path d="M214.29,187.4c.161.656.023,1.268-.308,1.367s-.733-.353-.895-1.01-.024-1.269.308-1.367.733.353.895,1.01" transform="translate(-95.744 -69.391)" fill="#1a4850"/><path d="M215.6,188.264s-.637,2.887-1.8,2.813.323,2.469,3.044.651a4.062,4.062,0,0,0-1.247-3.464" transform="translate(-95.802 -69.518)" fill="#dd774e"/><path d="M223.77,186.633a1.218,1.218,0,0,1-.474,1.534.994.994,0,0,1-1.467-.17,1.219,1.219,0,0,1,.473-1.534,1,1,0,0,1,1.468.17" transform="translate(-97.052 -69.381)" fill="#ed7d66"/><path d="M213.558,190.434a1.064,1.064,0,0,1-1.1.991q-.322-.933-.592-1.9a1.3,1.3,0,0,1,.546-.118,1.091,1.091,0,0,1,1.143,1.024" transform="translate(-95.571 -69.596)" fill="#ed7d66"/><path d="M216.855,184.439a3.053,3.053,0,0,1,2-1.121" transform="translate(-96.322 -69.184)" fill="none" stroke="#1a4850" stroke-linecap="round" stroke-miterlimit="10" stroke-width="0.587"/><path d="M212.589,183.539s-1.325.164-1.3.969" transform="translate(-95.484 -69.199)" fill="none" stroke="#1a4850" stroke-linecap="round" stroke-miterlimit="10" stroke-width="0.587"/><path d="M228.863,185.964s1.2-2.764,3.154-1.865.249,5.836-1.538,6.2-1.616-4.333-1.616-4.333" transform="translate(-98.127 -69.225)" fill="#f3a17a"/><path d="M218.5,186.525s.321-1.562,1.984-.679c0,0-1.41-.255-1.984.679" transform="translate(-96.569 -69.337)" fill="#1a4850"/><path d="M220.822,192.028a6.566,6.566,0,0,0-.636.3,7.834,7.834,0,0,0-1.314.87,4.7,4.7,0,0,0-1.062,1.216,3.168,3.168,0,0,0-.234.5c-.048.127-.074.2-.074.2l.056-.205a3.314,3.314,0,0,1,.194-.529,4.945,4.945,0,0,1,.984-1.358,8.56,8.56,0,0,1,1.924-1.42Z" transform="translate(-96.418 -69.743)" fill="#1a4850"/><path d="M231.375,191.161s.441,2.3,4.8,5.828c0,0-2.538,6.578-8.155,7.86,0,0-2.373-4.307-4.77-5.631,0,0,4.77-1.013,6.734-7.653a1.453,1.453,0,0,0,1.4-.4" transform="translate(-97.283 -69.714)" fill="#d86"/><path d="M234.221,194.219a8.622,8.622,0,0,1-3.37,10.37,11.148,11.148,0,0,1,2.958,3.264s4.673-4.779,4.885-8.859-4.473-4.775-4.473-4.775" transform="translate(-98.426 -69.92)" fill="#f2ae40"/><path d="M259.258,202.187c-7.294.381-1.609,13.134,1.638,15.692s31.072,4.073,31.072,4.073l-6.714,14.16s-1.369,6.226,4.579,6.126c0,0,14.237-19.134,14.874-25.946s-26.333-15.1-45.449-14.1" transform="translate(-102.164 -70.453)" fill="#f2ae40"/><path d="M290.1,240.233s-1.647.973-1.223,4.58a7.334,7.334,0,0,0,5.735,6.172c2.549.7,4.461-2.718,4.461-2.718s-.461-.545-1.274.075c-.595.454.091,1.3-2.4,1.178a5.128,5.128,0,0,0-.675-1.761c-.917-.987-.778-4.234-.778-4.234Z" transform="translate(-107.141 -73.028)" fill="#f3a17a"/><path d="M201,202.642s-.956,20.074,0,23.872,1.47,10.957-3.141,10.174-5.272-12.133-3.933-18.23,3.551-16.354,3.551-16.354Z" transform="translate(-92.78 -70.453)" fill="#ffc24e"/><path d="M197.9,203.806s.483,3.4,3.471,1.049a1.979,1.979,0,0,0,1.637-1.208c.286-.663.92-3,1.371-3.744.751-1.236.85-1.854.315-1.913a9.736,9.736,0,0,1-2.706-.506c-.876-.451-3.644,2.092-4.088,6.322" transform="translate(-93.472 -70.137)" fill="#d86"/><path d="M205.223,192.169l-3.828,8.928a1.428,1.428,0,0,0,.629,1.374c.685.367,1.067-.122,1.508-1.1.715-1.591,3.084-7.036,3.084-7.036Z" transform="translate(-93.996 -69.782)" fill="#145b6b"/><g transform="translate(2)"><path d="M208.957,184.961l-1.952.444.191.8c-1.227,1.63-1.643,4.589-.882,7.76s2.48,5.645,4.319,6.577l.191.8,1.953-.444c2.514-.572,3.7-4.6,2.643-9s-3.949-7.5-6.464-6.929" transform="translate(-99.029 -75.393)" fill="#145b6b"/><path d="M214.137,192.19c1.056,4.4-.129,8.429-2.643,9s-5.41-2.53-6.464-6.927.129-8.429,2.643-9,5.41,2.531,6.464,6.929" transform="translate(-99.697 -75.249)" fill="#208191"/><path d="M212.265,191.72c.737,3.078-.091,5.9-1.851,6.3s-3.785-1.771-4.523-4.849.09-5.9,1.85-6.3,3.786,1.771,4.524,4.849" transform="translate(-99.191 -74.468)" fill="#fff"/></g><path d="M203.882,195.024a15.164,15.164,0,0,0,0,3.5c.248,1.357-.25,1.736-.371,1.682a5.782,5.782,0,0,1-.617-.94s.639,1.188-.063,1.92c-.183.19-.925-1.034-.925-1.034s.411,1.075.115,1.431-.758-.456-.758-.456.184.706-.18.761a2.725,2.725,0,0,1-1.4-.846c-.08-.136-.557-.078-.557-.078l-.61.2c.951-3.163,1.839-3.584,1.839-3.584s.3-.827.732-.7c0,0,.526-1.42,1.317-1.107,0,0,.938-2.085,1.483-.751" transform="translate(-93.564 -69.945)" fill="#f3a17a"/><path d="M316.206,226.151c-1.672,21.853-7.821,106.22-6.773,151.759h9.736q.8-7.517,1.656-15.026,1.954-17.38,4.071-34.739c1.595-13.016,3.257-26.025,5.144-39,1.349-9.273,2.574-18.731,4.878-27.792a26.928,26.928,0,0,1,.9-3.075c.717-1.85,1.439-1.913,3.47-1.873,2.315.045,3.04,6.1,3.451,8.011.969,4.494,1.736,9.044,2.471,13.591,2.029,12.575,3.7,25.221,5.313,37.869q2.443,19.176,4.624,38.391,1.286,11.22,2.5,22.448c.043.4.087.794.129,1.192h9.735c1.048-45.539-5.1-129.906-6.772-151.759Z" transform="translate(-110.225 -72.077)" fill="#327f87"/><path d="M362.549,205.137c-.11,2.145-.229,4.327-.331,6.546-.212,4.448-.4,9.045-.543,13.763,0,0-11.606-2.9-22.082-2.9a111.164,111.164,0,0,0-23.194,2.9q-.319-7.455-.7-14.062c-.2-3.646-.408-7.1-.62-10.378-2.591-39.434-5.641-53.328-.153-57.067,2.354-1.6,24.146,2.061,24.146,2.061s20.892-.9,23.551-1.305c5.047-.783,1.878,24.207-.076,60.443" transform="translate(-110.609 -66.498)" fill="#454ae5"/><path d="M348.461,130.538l-5.267,4.414a10.084,10.084,0,0,1-6.455.483,37.953,37.953,0,0,1,.127,10.336l5.448,3.458s3.475-1.827,5.7-2.967c0,0-.815-10.362.444-15.723" transform="translate(-114.35 -65.62)" fill="#d86"/><path d="M334.251,130.811a18.371,18.371,0,0,1-4.671-12.88c.425-7.685,3.822-8.85,5.167-9.161,0,0,1.246-3.04,7.192-2.769a11.192,11.192,0,0,1,9.925,6.964c2.206,4.808.745,16.077-2.894,17.847Z" transform="translate(-113.27 -63.962)" fill="#271970"/><path d="M332.269,124.559s-2.63-2.881-2.955.487c-.375,3.9,2.855,5.475,3.486,4.233s-.531-4.72-.531-4.72" transform="translate(-113.228 -65.139)" fill="#f3a17a"/><path d="M354.351,124.777s2.631-2.881,2.955.487c.375,3.9-2.855,5.475-3.485,4.233s.53-4.72.53-4.72" transform="translate(-116.89 -65.154)" fill="#f3a17a"/><path d="M341.7,137.832c-5.837,0-9.131-4.184-9.131-16.735,0-6.473,3-10.444,9.538-10.444s9.292,3.97,9.292,10.444c0,13.486-3.669,16.735-9.7,16.735" transform="translate(-113.722 -64.277)" fill="#f3a17a"/><path d="M351.979,126.586a1.324,1.324,0,0,1-1.144,1.42,1.228,1.228,0,0,1-1.513-.912,1.325,1.325,0,0,1,1.144-1.42,1.228,1.228,0,0,1,1.513.912" transform="translate(-116.24 -65.29)" fill="#ed7d66"/><path d="M337.844,126.937a1.255,1.255,0,0,1-1.415,1.084,1.292,1.292,0,0,1-1.275-1.277,1.255,1.255,0,0,1,1.415-1.084,1.292,1.292,0,0,1,1.275,1.277" transform="translate(-114.112 -65.29)" fill="#ed7d66"/><path d="M348.823,119.552a.279.279,0,0,1-.211-.1,3.146,3.146,0,0,0-2.247-.891.322.322,0,0,1-.018-.641,3.683,3.683,0,0,1,2.686,1.09.342.342,0,0,1-.009.452.275.275,0,0,1-.2.089" transform="translate(-115.753 -64.768)" fill="#a5729f"/><path d="M336.323,119.552a.273.273,0,0,1-.2-.089.342.342,0,0,1-.011-.452,3.685,3.685,0,0,1,2.686-1.09.322.322,0,0,1-.018.641,3.168,3.168,0,0,0-2.245.891.282.282,0,0,1-.212.1" transform="translate(-114.244 -64.768)" fill="#a5729f"/><path d="M348.459,123.211c0,.8-.327,1.441-.729,1.441s-.73-.644-.73-1.441.327-1.441.73-1.441.729.645.729,1.441" transform="translate(-115.893 -65.028)" fill="#1a4850"/><path d="M339.284,123.212c0,.8-.326,1.44-.729,1.44s-.73-.644-.73-1.44.327-1.441.73-1.441.729.644.729,1.441" transform="translate(-114.513 -65.028)" fill="#1a4850"/><path d="M343.242,123.314c.531-.365,1.912,5.2.425,5.582s-1.057-5.147-.425-5.582" transform="translate(-115.24 -65.131)" fill="#ed7d66"/><path d="M339.542,130.877s5.148.559,7.8-.512c0,0-1.5,2.954-4.308,2.689a3.864,3.864,0,0,1-3.487-2.177" transform="translate(-114.772 -65.609)" fill="#1a4850"/><path d="M335.872,113.324a19.073,19.073,0,0,0,14.1,4.274l.954,7.907s5.222-16.534-10.022-16.534-8.378,16.166-8.378,16.166-.774-6.647,3.346-11.814" transform="translate(-113.485 -64.164)" fill="#0c1048"/><path d="M350.618,145.543c-.535,2.872-4.9,7.059-4.9,7.059l-1.987-3.17-1.886,1.352-2.158-1.352-2.481,2.35-.008.009s-3.985-5.511-3.56-7.087,3.042-2.387,3.042-2.387a3.737,3.737,0,0,0,2.845,3.808l2.26,3.012,2.1-2.242c2.549-.075,3.461-3.954,3.461-3.954a6.4,6.4,0,0,1,3.28,2.6" transform="translate(-113.878 -66.416)" fill="#ffc24e"/><path d="M340.151,147.227l2.328,3.888-2.158-1.352-2.481,2.35c.085-.205,1.555-3.45,2.311-4.886" transform="translate(-114.515 -66.747)" fill="#f2ae40"/><path d="M347.173,152.976l-1.988-3.17-1.886,1.352,2.345-3.32s2.422,2.686,1.529,5.138" transform="translate(-115.336 -66.788)" fill="#f2ae40"/><path d="M357,196.84l6.133-34.365-8.216-8.561-9.559,7.88-6.418-6.62-8.234,5.132-6.8-7.831-9.771,8.116,5.31,14.691,5.608,18.653c-4.525,1.629-7.643,4.121-9.635,7.673.212,3.282.425,6.732.62,10.378l5.811,6.816,8.819-14.258,10.28,12.859,9.635-12.859,5.82,14.258,6.151-6.518c.1-2.219.221-4.4.331-6.546a60.042,60.042,0,0,0-10.086-8.757Z" transform="translate(-110.951 -67.102)" fill="#4549c1"/><path d="M311.487,144.315s1.327,17.541-2.5,23.689-10.794,28.566-16.334,26.685-7.417-9.933,0-21.643,13.715-29.5,18.83-28.731" transform="translate(-106.986 -66.549)" fill="#f2ae40"/><path d="M288.75,185.343c1.659-6.076,7.367-9.111,8.748-8.27s4.279,5.652,2.4,12.648-7.113,9.963-10.37,5.528-.782-9.906-.782-9.906" transform="translate(-106.997 -68.753)" fill="#ffc24e"/><path d="M299.2,175.221s-3.2,5.146-3.2,8.948a13.03,13.03,0,0,0-1.028,1.079c-.911,1.119-2.142,4.642-.518,6.536s3.918-1.708,3.918-1.708c1.425-.109,4.586-4.271,4.484-7.167s-3.654-7.687-3.654-7.687" transform="translate(-107.872 -68.638)" fill="#f3a17a"/><path d="M372.429,145.471s-2.6,17.4,1.225,23.545,10.794,28.566,16.335,26.685,7.415-9.934,0-21.643-12.444-29.352-17.56-28.587" transform="translate(-119.587 -66.627)" fill="#f2ae40"/><path d="M395.778,186.344c-1.658-6.076-7.367-9.111-8.747-8.271s-4.279,5.653-2.405,12.649,7.114,9.963,10.37,5.528.782-9.906.782-9.906" transform="translate(-121.459 -68.821)" fill="#ffc24e"/><path d="M385.942,176.222s3.2,5.146,3.2,8.948a13.172,13.172,0,0,1,1.028,1.079c.911,1.119,2.142,4.642.517,6.536s-3.918-1.708-3.918-1.708c-1.426-.109-4.586-4.27-4.485-7.167s3.655-7.687,3.655-7.687" transform="translate(-121.198 -68.705)" fill="#f3a17a"/><path d="M377.435,154.8s-7.853,16.309-8.312,25.6,1.373,26.536,1.373,26.536h-7.53l-6.895,4.7-10.3-1.351-8.059,1.846-8.416-4.373-10.575,2.527-6.857-5.492-8.872,2.34s1.26-21.093-.206-27.956-5.662-26.258-5.662-26.258l12.242-2.751,7.366,9.12,12.563-2.928,9.033,6.434,8.43-5.548,9.706,3.32,7.921-6.443Z" transform="translate(-108.391 -66.946)" fill="#fff" stroke="#e9e9e9" stroke-width="1"/><path d="M321.463,185.928l-.579,24.356-6.856-5.492c.579-35.667-2.5-54.624-2.5-54.624l7.366,9.12Z" transform="translate(-110.56 -66.946)" fill="#e3e4e5"/><path d="M334.989,156.808v51.4l8.414,4.376v-26.2l.616-23.128Z" transform="translate(-114.087 -67.394)" fill="#e3e4e5"/><path d="M355.281,157.759l-1.453,27L354.3,210.8l10.3,1.353s-2.807-25.1-2.807-27.394,3.2-23.676,3.2-23.676Z" transform="translate(-116.92 -67.458)" fill="#e3e4e5"/><path d="M388.737,155.089s-7.853,16.309-8.312,25.6,1.373,26.536,1.373,26.536h-7.53l-1.995-22.695,3.41-30.119Z" transform="translate(-119.693 -67.232)" fill="#e3e4e5"/><path d="M300.182,175.1s2.944-1.689,4.06-1.624A15.117,15.117,0,0,1,308.1,175.1s-.2,1.53-1.116.932a2.422,2.422,0,0,0-2.843,0l2.234.138,2.538,1.269s-.406,1.336-1.015,1.114-2.031-.78-2.031-.78l-1.319.8a12.634,12.634,0,0,1,2.841.867c.306.334,1.523,1.383,1.523,1.383s-.406,1.18-1.319.51a4.7,4.7,0,0,0-2.64-.51s1.523.7,1.726,1.277.914,1.908.914,1.908-.3.78-1.015,0-3.563-.509-3.563-.509-2.629-4.5-2.832-8.4" transform="translate(-108.852 -68.52)" fill="#f3a17a"/><path d="M385.044,176.1s-2.944-1.689-4.06-1.624a15.118,15.118,0,0,0-3.857,1.624s.2,1.53,1.116.932a2.422,2.422,0,0,1,2.843,0l-2.233.138-2.538,1.269s.405,1.337,1.014,1.114,2.031-.781,2.031-.781l1.32.8a12.639,12.639,0,0,0-2.842.867c-.3.334-1.523,1.383-1.523,1.383s.405,1.18,1.319.511a4.692,4.692,0,0,1,2.64-.511s-1.523.7-1.725,1.277-.915,1.908-.915,1.908.305.78,1.016,0,3.562-.509,3.562-.509,2.63-4.5,2.833-8.4" transform="translate(-120.301 -68.587)" fill="#f3a17a"/><path d="M318.185,398.515a73.422,73.422,0,0,0-1.681-13.531s-7.41-3.346-8.181,2.155-4.827,6.792-6.9,7.282c-1.325.312-1.6,2.529-1.63,4.094Z" transform="translate(-108.793 -82.734)" fill="#11393d"/><path d="M365.834,398.515a73.417,73.417,0,0,1,1.681-13.531s7.41-3.346,8.18,2.155,4.827,6.792,6.9,7.282c1.324.312,1.6,2.529,1.63,4.094Z" transform="translate(-118.725 -82.734)" fill="#11393d"/></g></g><g transform="translate(19.98 165.98)"><path d="M18.321,2.291a5.1,5.1,0,0,0,1.658-.311A8.292,8.292,0,0,0,11.609.559a10.01,10.01,0,0,0,6.712,1.732" transform="translate(1350.696 330)" fill="#fff8c2"/><path d="M17.553,4.129a2.461,2.461,0,0,1,.489-.247,8.379,8.379,0,0,0-1.18-1.238,5.094,5.094,0,0,1-1.658.311A10.01,10.01,0,0,1,8.493,1.223,8.294,8.294,0,0,0,5.87,2.857c3.31,2.627,7.409,3.715,11.683,1.272" transform="translate(1353.813 329.336)" fill="#fff39c"/><path d="M17.563,8.237a8.283,8.283,0,0,0-1.3-2.414,2.436,2.436,0,0,0-.489.247C11.5,8.513,7.4,7.425,4.09,4.8a8.306,8.306,0,0,0-1.5,1.838c1.948.643,3.234,2.713,5.2,3.426,3.726,1.6,6.782.11,9.775-1.826" transform="translate(1355.593 327.395)" fill="#ffeb73"/><path d="M4.8,26.844c-1.378-.765-2.457-2.03-3.822-2.817A8.3,8.3,0,0,0,12.1,28.971a12.484,12.484,0,0,1-7.3-2.127" transform="translate(1356.469 316.954)" fill="#ffbe06"/><path d="M16.316,20.684A12.559,12.559,0,0,1,1.462,19.076,1.908,1.908,0,0,0,.02,18.839,8.248,8.248,0,0,0,.457,21.19c1.365.787,2.444,2.052,3.822,2.817a12.488,12.488,0,0,0,7.3,2.127,8.317,8.317,0,0,0,4.736-5.45" transform="translate(1356.989 319.79)" fill="#ffc533"/><path d="M1.451,13.656A12.56,12.56,0,0,0,16.3,15.264a8.292,8.292,0,0,0-.149-4.843c-2.993,1.936-6.048,3.423-9.775,1.826-1.963-.713-3.248-2.783-5.2-3.427A8.247,8.247,0,0,0,0,13.087c0,.111.005.222.01.332a1.905,1.905,0,0,1,1.441.237" transform="translate(1357 325.211)" fill="#ffde3e"/><path d="M-697.2,410.3a8.266,8.266,0,0,1-4.45-1.294,8.32,8.32,0,0,1-3-3.362,7.562,7.562,0,0,0,1.663.586,11.816,11.816,0,0,0,1.762,1.273,12.712,12.712,0,0,0,6.76,2.142l.218,0-.216,0a12.714,12.714,0,0,1-6.761-2.142,11.8,11.8,0,0,1-1.762-1.272,7.652,7.652,0,0,0,1.679.186,7.55,7.55,0,0,0,3-.616,7.677,7.677,0,0,0,4.062-4.155,15.67,15.67,0,0,0,4.909-2.309A8.292,8.292,0,0,1-688.9,402a8.3,8.3,0,0,1-.291,2.177,8.33,8.33,0,0,1-1.754,3.275,8.373,8.373,0,0,1-2.983,2.175h0A8.222,8.222,0,0,1-697.2,410.3Zm2.949-8.655h0a7.573,7.573,0,0,0,.283-.843,7.6,7.6,0,0,0,.267-2,7.606,7.606,0,0,0-.4-2.446,7.575,7.575,0,0,0-1.193-2.215c-.07-.09-.142-.179-.216-.266a8.316,8.316,0,0,1,3.69,1.808,5.075,5.075,0,0,1-1.658.311l-.026,0,.026,0a5.072,5.072,0,0,0,1.658-.311,8.4,8.4,0,0,1,1.18,1.238,8.266,8.266,0,0,1,1.3,2.414,15.679,15.679,0,0,1-4.908,2.309Z" transform="translate(2062.499 -63.704)" opacity="0.16" fill="url(#d)"/><path d="M12,6.46a1,1,0,1,1-1-1,1,1,0,0,1,1,1" transform="translate(1351.57 327.034)" fill="#e2a213"/><path d="M12.045,6.775a.734.734,0,1,1-.734-.733.734.734,0,0,1,.734.733" transform="translate(1351.256 326.719)" fill="#ffbf1f"/><path d="M19.06,29.97a1,1,0,1,1-1-1,1,1,0,0,1,1,1" transform="translate(1347.735 314.269)" fill="#e2a213"/><path d="M19.111,30.285a.734.734,0,1,1-.734-.734.733.733,0,0,1,.734.734" transform="translate(1347.42 313.954)" fill="#ffbf1f"/><path d="M6.967,17.435A1.438,1.438,0,1,1,5.529,16a1.437,1.437,0,0,1,1.438,1.439" transform="translate(1354.779 321.314)" fill="#e2a213"/><path d="M7.039,17.888a1.057,1.057,0,1,1-1.057-1.057,1.057,1.057,0,0,1,1.057,1.057" transform="translate(1354.326 320.861)" fill="#ffbf1f"/><path d="M27.907,12.3a1.439,1.439,0,1,1-1.439-1.438A1.439,1.439,0,0,1,27.907,12.3" transform="translate(1343.409 324.104)" fill="#e2a213"/><path d="M27.978,12.749a1.058,1.058,0,1,1-1.058-1.057,1.058,1.058,0,0,1,1.058,1.057" transform="translate(1342.957 323.651)" fill="#ffbf1f"/><path d="M26.7,26.144a1.027,1.027,0,1,1-1.027-1.027A1.028,1.028,0,0,1,26.7,26.144" transform="translate(1343.618 316.362)" fill="#e2a213"/><path d="M26.751,26.468A.755.755,0,1,1,26,25.713a.755.755,0,0,1,.755.755" transform="translate(1343.295 316.038)" fill="#ffbf1f"/><path d="M10.3,29.284a.763.763,0,1,1-.763-.763.763.763,0,0,1,.763.763" transform="translate(1352.234 314.513)" fill="#e2a213"/><path d="M10.344,29.525a.561.561,0,1,1-.562-.561.561.561,0,0,1,.562.561" transform="translate(1351.993 314.273)" fill="#ffbf1f"/><path d="M11.591,22.091a.763.763,0,1,1-.763-.763.763.763,0,0,1,.763.763" transform="translate(1351.535 318.419)" fill="#e2a213"/><path d="M11.629,22.332a.562.562,0,1,1-.562-.561.562.562,0,0,1,.562.561" transform="translate(1351.296 318.179)" fill="#ffbf1f"/><path d="M18.012,13.356a.763.763,0,1,1-.763-.763.763.763,0,0,1,.763.763" transform="translate(1348.048 323.162)" fill="#e2a213"/><path d="M18.051,13.6a.561.561,0,1,1-.562-.562.562.562,0,0,1,.562.562" transform="translate(1347.808 322.923)" fill="#ffbf1f"/><path d="M32.466,19.2a.763.763,0,1,1-.763-.763.763.763,0,0,1,.763.763" transform="translate(1340.2 319.989)" fill="#e2a213"/><path d="M32.5,19.44a.561.561,0,1,1-.561-.561.562.562,0,0,1,.561.561" transform="translate(1339.96 319.749)" fill="#ffbf1f"/><path d="M21.162,4.042a.763.763,0,1,1-.763-.763.763.763,0,0,1,.763.763" transform="translate(1346.338 328.22)" fill="#e2a213"/><path d="M21.2,4.282a.562.562,0,1,1-.561-.561.562.562,0,0,1,.561.561" transform="translate(1346.099 327.98)" fill="#ffbf1f"/><path d="M21.162,21a.763.763,0,1,1-.763-.763.763.763,0,0,1,.763.763" transform="translate(1346.338 319.012)" fill="#e2a213"/><path d="M21.2,21.239a.562.562,0,1,1-.561-.562.561.561,0,0,1,.561.562" transform="translate(1346.099 318.773)" fill="#ffbf1f"/><path d="M3.56,11.751a.763.763,0,1,1-.763-.763.763.763,0,0,1,.763.763" transform="translate(1355.896 324.034)" fill="#e2a213"/><path d="M3.6,11.991a.561.561,0,1,1-.562-.562.561.561,0,0,1,.562.562" transform="translate(1355.656 323.794)" fill="#ffbf1f"/></g><g transform="translate(1164.021 340.021)"><g clip-path="url(#e)"><g transform="translate(0 0)"><g clip-path="url(#e)"><path d="M23.479,11.739a11.738,11.738,0,1,1-6.9-10.695,11.74,11.74,0,0,1,6.9,10.695" transform="translate(0 0)" fill="#f2505e"/><path d="M27.5,12.987a11.737,11.737,0,0,1-20.11,8.227,12.411,12.411,0,0,0,9.9-1.153A12.37,12.37,0,0,0,23.16,9.23a12.084,12.084,0,0,0-1.553-5.424,11.738,11.738,0,0,0-1-1.514,11.736,11.736,0,0,1,6.9,10.695" transform="translate(-4.024 -1.247)" fill="#e82334"/><path d="M21.806,16.162A1.565,1.565,0,1,1,20.241,14.6a1.565,1.565,0,0,1,1.565,1.565" transform="translate(-10.165 -7.945)" fill="#e82334"/><path d="M36.383,7.951a.848.848,0,1,1-.848-.848.848.848,0,0,1,.848.848" transform="translate(-18.88 -3.866)" fill="#e82334"/><path d="M28.567,23.744A.745.745,0,1,1,27.823,23a.745.745,0,0,1,.745.745" transform="translate(-14.738 -12.518)" fill="#e82334"/><path d="M29.925,12.526a.382.382,0,1,1-.382-.382.383.383,0,0,1,.382.382" transform="translate(-15.871 -6.61)" fill="#e82334"/><path d="M7.273,16.942a.227.227,0,1,1-.227-.227.228.228,0,0,1,.227.227" transform="translate(-3.711 -9.098)" fill="#e82334"/><path d="M13.187,23.5a.472.472,0,1,1,.437.5.472.472,0,0,1-.437-.5" transform="translate(-7.176 -12.551)" fill="#e82334"/><path d="M13.7,6.78a.877.877,0,1,1,.812.937A.877.877,0,0,1,13.7,6.78" transform="translate(-7.453 -3.247)" fill="#e82334"/><g transform="translate(1.668 1.059)" opacity="0.16"><g clip-path="url(#g)"><path d="M8.206,3.638a9.443,9.443,0,0,0-4.515,7.188A6.784,6.784,0,0,0,4.871,15.5,4.424,4.424,0,0,0,9.2,17.26c1.835-.41,3.063-2.129,3.877-3.824s1.441-3.559,2.807-4.851c1.107-1.047,2.868-1.863,2.931-3.615.042-1.158-.7-1.7-1.719-2.048a11.136,11.136,0,0,0-8.888.715" transform="translate(-3.66 -2.323)" fill="#fff"/></g></g><g transform="translate(6.593 10.217)" opacity="0.16"><g clip-path="url(#h)"><path d="M17.5,32.288a10.873,10.873,0,0,0,8.348-1.112,7.4,7.4,0,0,0,2.827-2.8,4.586,4.586,0,0,0,.278-3.886A3.347,3.347,0,0,0,25.8,22.426c-1.695.117-2.9,1.646-3.845,3.057s-2.058,2.977-3.737,3.236a18.622,18.622,0,0,1-2.074,0c-1.156.048-2.171.682-1.406,1.829A4.808,4.808,0,0,0,17.5,32.288" transform="translate(-14.468 -22.42)" fill="#fff"/></g></g></g></g></g></g><g transform="translate(1062.589 512.575) rotate(17)"><g clip-path="url(#i)"><g transform="translate(0 0)"><g clip-path="url(#i)"><path d="M19.68,60.27a32.614,32.614,0,0,0,7.538,3.455,32.026,32.026,0,0,0,6,1.261,32.616,32.616,0,0,0,36.1-28.948c.024-.2.039-.395.061-.587a32.413,32.413,0,0,0-.426-8.75,30.671,30.671,0,0,0-1.357-5.041c-.078-.231-.162-.454-.245-.678a30.771,30.771,0,0,0-1.381-3.141c-.249-.484-.5-.962-.776-1.437a29.075,29.075,0,0,0-1.638-2.566,29.757,29.757,0,0,0-1.818-2.358,32.553,32.553,0,0,0-4.985-4.738C55.9,6.1,55.033,5.495,54.113,4.922q-.943-.586-1.91-1.1A32.618,32.618,0,0,0,4.648,27.784a32.649,32.649,0,0,0,5,22.707,32.724,32.724,0,0,0,5.387,6.289l.012.008c.339.3.681.6,1.034.889l.353.295a33.763,33.763,0,0,0,3.245,2.3" transform="translate(5.917 0)" fill="#fbc02d"/><path d="M4.389,55.769A32.588,32.588,0,0,0,35.747,40.594a32.435,32.435,0,0,0,4.741-13.773c.026-.2.041-.395.062-.587a18.67,18.67,0,0,0-6.82,1.476,44.478,44.478,0,0,0-10.795,6.372,52.356,52.356,0,0,0-5.726,5.342c-1.261,1.339-2.466,2.746-3.635,4.174-2.705,3.3-5.2,6.8-7.72,10.241-.474.645-.957,1.3-1.464,1.93" transform="translate(34.742 9.218)" fill="#f2ad00"/><path d="M17.095,10.684a70.23,70.23,0,0,0,17.936-.478c5.481-.846,15.722-2.6,21.507-6.38a32.6,32.6,0,0,0-39.443,6.858" transform="translate(1.582 0)" fill="#fbd169"/><path d="M12.26,48.738q3.426-1.916,6.845-3.831,6.207-3.472,12.4-6.95,9.26-5.177,18.51-10.36l3.16-1.77c2.7-1.505,5.415-3.027,8.049-4.654a74.667,74.667,0,0,0,7.35-5.083c-.25-.485-.5-.964-.776-1.438a29.714,29.714,0,0,0-1.638-2.566,29.509,29.509,0,0,0-1.819-2.357A32.551,32.551,0,0,0,59.361,4.99c-.578.505-1.168,1-1.774,1.489A89.74,89.74,0,0,1,21.218,24.058,85.082,85.082,0,0,1,7.26,26.031a32.653,32.653,0,0,0,5,22.707" transform="translate(3.307 1.754)" fill="#ff9800"/><path d="M9.037,54.814a32.614,32.614,0,0,0,7.538,3.455c2.251-3.051,4.264-6.326,7.47-8.266,2.332-1.42,5.047-1.962,7.711-2.643a32,32,0,0,0,3.234-.991c6.991-2.678,11.694-9.284,18.134-13.09a51.109,51.109,0,0,1,5.546-2.7c.024-.2.039-.395.061-.587a32.413,32.413,0,0,0-.426-8.75,30.673,30.673,0,0,0-1.357-5.041c-.078-.231-.162-.454-.245-.678-4.578,3.126-8.745,7.892-13.021,10.161-.05.027-.109.055-.158.082-4.769,2.505-10.107,4.378-13.614,8.468-1.82,2.119-3.084,4.773-5.354,6.4-3.246,2.319-7.645,1.943-11.454,3.105a11.574,11.574,0,0,0-1.481.542A12.484,12.484,0,0,0,8.185,46.63a.024.024,0,0,0-.014.009,27.025,27.025,0,0,0-3.778,4.685,1.258,1.258,0,0,0-.095.139c.035-.045.07-.088.107-.131.339.3.681.6,1.034.889l.353.295a33.762,33.762,0,0,0,3.245,2.3" transform="translate(16.56 5.456)" fill="#f59200"/><path d="M8.925,54.08a39.929,39.929,0,0,0,4.207-2.872,46.611,46.611,0,0,1,8.781-4.71c7.939-3.381,16.509-5.673,22.655-11.61,3.731-3.6,6.547-8.527,11.391-10.385a21.176,21.176,0,0,1,3.439-.9c.8-.151,1.612-.3,2.395-.5a30.676,30.676,0,0,0-1.358-5.041c-.078-.231-.161-.454-.243-.678a31.382,31.382,0,0,0-1.381-3.141c-.25-.484-.5-.962-.777-1.437a29.077,29.077,0,0,0-1.638-2.566,23.05,23.05,0,0,0-6.833,4.077c-3.65,3.3-6.383,7.469-9.311,11.434-.065.091-.139.185-.2.276-2.995,4.046-6.392,8-10.88,10.292-4.561,2.331-10.1,2.87-13.964,6.227a21.778,21.778,0,0,0-2.023,2.074c-1.784,2.034-3.455,4.2-6,4.893a18.221,18.221,0,0,1-2.478.359,31.43,31.43,0,0,0,3.176,3.308,1.381,1.381,0,0,0-.095.138c.035-.043.07-.086.107-.13.339.3.681.6,1.034.889" transform="translate(13.074 3.599)" fill="#fbd169"/><g transform="translate(10.497 21.661)" opacity="0.43"><g clip-path="url(#k)"><path d="M19.4,54.638a32.614,32.614,0,0,0,7.538,3.455,32.026,32.026,0,0,0,6,1.261,32.616,32.616,0,0,0,36.1-28.948c.024-.2.039-.395.061-.587a32.413,32.413,0,0,0-.426-8.75,30.672,30.672,0,0,0-1.357-5.041,52.722,52.722,0,0,1-1.037,5.543,32.065,32.065,0,0,1-4,9.725,25.768,25.768,0,0,1-1.912,2.638,29.536,29.536,0,0,1-14.608,9.076,43.144,43.144,0,0,1-8.468,1.546,45.864,45.864,0,0,1-8.495-.092,42.15,42.15,0,0,1-5.324-.9c-.654-.153-1.3-.327-1.951-.515-.495-.145-.977-.3-1.457-.462a32.632,32.632,0,0,1-3.843-1.559A32.071,32.071,0,0,1,4.3,31.244a32.754,32.754,0,0,0,5.07,13.615,32.724,32.724,0,0,0,5.387,6.289,1.258,1.258,0,0,0-.095.139c.035-.045.07-.088.107-.131.339.3.681.6,1.034.889l.353.295a33.762,33.762,0,0,0,3.245,2.3" transform="translate(-4.299 -16.028)" fill="#e08600"/></g></g><path d="M9.621,81.524C14.969,80.2,22.155,76.393,30.127,70.67A174.608,174.608,0,0,0,50.673,53.109,176.626,176.626,0,0,0,69.882,30.845c1.642-2.295,3.13-4.53,4.45-6.664,6.212-10.118,8.593-18.257,5.612-21.734A5.851,5.851,0,0,0,75.1.713a12.983,12.983,0,0,0-1.747.164,20.652,20.652,0,0,0-2.115.436,42.746,42.746,0,0,0-8.257,3.35c5.284-2.235,9.272-2.52,11.111-.372,2.011,2.337,1.127,7.17-1.962,13.354l-.008.012c-.477.938-.991,1.91-1.56,2.905l-.012.018c-1.019,1.77-2.182,3.63-3.492,5.547A145.153,145.153,0,0,1,49.493,46.867C31.232,64.939,12.642,75.174,7.969,69.732,5.2,66.5,7.945,58.475,14.452,48.7a.292.292,0,0,0-.042-.066c-.085-.169-.174-.341-.266-.512C2.821,62.875-2.677,75.695,1.273,80.3a4.543,4.543,0,0,0,.693.645c1.662,1.257,4.295,1.4,7.654.581" transform="translate(0.001 0.249)" fill="#c77700"/><path d="M8.063,13.393C7.586,14.331,7.072,15.3,6.5,16.3L6.6,16.15a17.9,17.9,0,0,0,1.468-2.757" transform="translate(64.373 4.706)" fill="#b86e00"/><path d="M22.984,67.03c11.522-5.318,21.683-13.317,30.387-22.559a172.088,172.088,0,0,0,19.056-24.81,143.351,143.351,0,0,1-17.6,20.717c-18.317,18.037-37,28.214-41.739,22.733-2.8-3.26-.078-11.292,6.435-21.057a.274.274,0,0,0-.042-.068,9.323,9.323,0,0,0-2.026,2.278,48.662,48.662,0,0,0-6.316,12.811c-1.108,3.474-1.605,7.833,1.123,10.246,2.839,2.514,7.275,1.3,10.725-.292" transform="translate(-5.055 6.909)" fill="#b86e00"/><g transform="translate(2.159 67.873)" opacity="0.31"><g clip-path="url(#l)"><path d="M46.45,56.277a6.634,6.634,0,0,0,3.024,5.338,8.586,8.586,0,0,0,5.027.7c3.093-.288,6.38-1.228,8.252-3.708-1.251-1.027-3.08-.909-4.647-.507s-3.135,1.043-4.746.881A5.03,5.03,0,0,1,48.992,54.6c-.085-.873.068-1.761-.076-2.627a2.2,2.2,0,0,0-1.28-1.75c-1.074,1.45-1.324,4.238-1.187,6.053" transform="translate(-46.414 -50.225)" fill="#f59200"/></g></g><g transform="translate(30.127 0.959)" opacity="0.31"><g clip-path="url(#m)"><path d="M0,70.67A174.717,174.717,0,0,0,20.547,53.109,176.513,176.513,0,0,0,39.754,30.845c1.642-2.295,3.131-4.528,4.45-6.662C50.418,14.063,52.8,5.924,49.816,2.448A5.844,5.844,0,0,0,44.978.713,13,13,0,0,0,43.23.876a20.46,20.46,0,0,0-2.115.438,5.18,5.18,0,0,1,1.674.63c2.677,1.755,3.962,5.642,3.773,8.726-.284,4.62-2.919,8.752-5.527,12.6C29.237,40.606,15.991,57.137,0,70.67" transform="translate(0 -0.709)" fill="#f59200"/></g></g><g transform="translate(1.969 81.194)" opacity="0.31"><g transform="translate(0)"><g clip-path="url(#n)"><path d="M60.636,60.662A19.249,19.249,0,0,1,53.06,60.1c-.027-.009-.049-.015-.076-.023,1.661,1.255,4.3,1.405,7.652.58" transform="translate(-52.984 -60.082)" fill="#f59200"/></g></g></g><path d="M0,24.181C6.212,14.063,8.593,5.923,5.612,2.447A5.849,5.849,0,0,0,.772.713,7.593,7.593,0,0,1,3.263,2.928a10.993,10.993,0,0,1,1.608,7.8,29.018,29.018,0,0,1-2.512,7.73C1.521,20.346.645,22.23,0,24.181" transform="translate(74.334 0.249)" fill="#c77700"/><g transform="translate(12.664 5.101)" opacity="0.28"><g clip-path="url(#o)"><path d="M23.914,11.581A37.108,37.108,0,0,1,42.581,4.048a26.074,26.074,0,0,1,12.073.989,14.491,14.491,0,0,1,8.711,8.042c1.454,3.81.6,8.566-2.535,11.175-3.672,3.057-9.068,2.524-13.749,1.565s-9.784-2.131-14.044.038c-2.677,1.364-4.565,3.849-6.639,6.024-2.23,2.343-5.568,4.989-9.034,3.98a6.552,6.552,0,0,1-4.538-6.039c.223-6.618,6.226-14.353,11.088-18.241" transform="translate(-12.824 -3.774)" fill="#fff"/></g></g></g></g></g></g><g transform="translate(1315.333 312.981)"><g transform="translate(0 0)" clip-path="url(#p)"><path d="M3.5,23.66A10.63,10.63,0,0,0,.445,22.252a24.937,24.937,0,0,0,3.531,8.287C5.244,27.82,6.39,25.464,3.5,23.66" transform="translate(0.167 8.347)" fill="#8d58b7"/><path d="M27.1,31.414C12.9,38.515,9.351,22.187.829,15.086a1.458,1.458,0,0,0-.384-.26A25.009,25.009,0,0,0,0,19.521a25.4,25.4,0,0,0,.612,5.516,10.672,10.672,0,0,1,3.058,1.41c2.886,1.8,1.741,4.16.473,6.878a25.137,25.137,0,0,0,9.564,8.551c7.54-6.891,17.147-6.712,26.173-4.777a4.875,4.875,0,0,1,2.357.716,25.052,25.052,0,0,0,6.914-11.229A21.041,21.041,0,0,0,41.3,21.478c-7.808-2.841-8.518,7.1-14.2,9.937" transform="translate(0 5.561)" fill="#a177c9"/><path d="M9.968,36.117A25.072,25.072,0,0,0,38.5,32.056a4.878,4.878,0,0,0-2.357-.718C27.116,29.4,17.508,29.225,9.968,36.117" transform="translate(3.739 11.321)" fill="#8d58b7"/><path d="M10.971,15.282c2.39-3.348-1.657-6.051-5.858-8.541a24.994,24.994,0,0,0-3.758,6.343c4.153,3,7.211,7.49,9.616,2.2" transform="translate(0.508 2.528)" fill="#a27ec9"/><path d="M49.716,19.512c-4.939,1.587-9.934,1.088-12.8-1.782-2.71-3.252,3.687-5.677,8.124-9.169A25.019,25.019,0,0,0,41.5,4.736,10.077,10.077,0,0,0,34.075,8.5c-3.548,6.39-2.13,14.2-7.807,17.749-3.551,2.129-6.389-.708-8.519-2.838C13.487,17.73,17.037,7.795,9.938,4.243c-.2-.091-.417-.173-.626-.252A24.9,24.9,0,0,0,5.5,7.773c4.2,2.489,8.248,5.192,5.857,8.541-2.405,5.292-5.462.806-9.616-2.2A24.931,24.931,0,0,0,.324,18.891a1.483,1.483,0,0,1,.382.26c8.523,7.1,12.074,23.429,26.272,16.328,5.679-2.838,6.387-12.778,14.2-9.935a21.035,21.035,0,0,1,7.855,5.107,25.095,25.095,0,0,0,.686-11.139" transform="translate(0.122 1.497)" fill="#ba9cdb"/><path d="M27.111,16.483c2.866,2.87,7.86,3.369,12.8,1.782A24.965,24.965,0,0,0,35.234,7.314C30.8,10.807,24.4,13.231,27.111,16.483" transform="translate(9.927 2.743)" fill="#a27ec9"/><path d="M14.565,10.71c0,2.129,2.838,4.259,5.678,3.551C25.2,11.507,24.176,5.766,23.8.347a25.167,25.167,0,0,0-8.524.032c.477,3.086-1.141,7.347-.712,10.331" transform="translate(5.436 -0.001)" fill="#ece4f9"/><path d="M26.663.253c.374,5.418,1.4,11.159-3.559,13.912-2.838.71-5.678-1.421-5.678-3.549C17,7.631,18.616,3.37,18.139.283A25.016,25.016,0,0,0,6.86,5.393c.208.078.419.161.626.253,7.1,3.551,3.549,13.486,7.811,19.169,2.13,2.13,4.97,4.968,8.52,2.84C29.493,24.1,28.074,16.3,31.622,9.906a10.077,10.077,0,0,1,7.427-3.768A25,25,0,0,0,26.663.253" transform="translate(2.573 0.094)" fill="#d6c3ed"/><path d="M17.275,26.11c-.4,1.037-2.25,1.288-4.132.567s-3.086-2.155-2.688-3.192,2.25-1.29,4.135-.564,3.083,2.151,2.686,3.189" transform="translate(3.893 8.443)" fill="#a177c9"/><path d="M21.561,16.406c.337,1.449-.987,2.99-2.955,3.445s-3.83-.349-4.165-1.8.99-2.992,2.954-3.445,3.831.351,4.167,1.8" transform="translate(5.398 5.431)" fill="#ba9cdb"/><path d="M31.056,25.954a2.6,2.6,0,1,1-1.095-3.567,2.646,2.646,0,0,1,1.095,3.567" transform="translate(9.802 8.294)" fill="#8d58b7"/><path d="M22.5,32.855c.05.734-1.067,1.407-2.5,1.507s-2.631-.414-2.68-1.147,1.068-1.411,2.5-1.511,2.629.418,2.68,1.151" transform="translate(6.498 11.888)" fill="#6a4084"/><path d="M14.7,2.88c.337.653-.424,1.715-1.7,2.368s-2.582.656-2.917,0,.422-1.715,1.7-2.368,2.584-.657,2.917,0" transform="translate(3.754 0.895)" fill="#ba9cdb"/><path d="M33.624,12.727c.056.733-1.056,1.416-2.489,1.522s-2.632-.4-2.688-1.13,1.06-1.415,2.486-1.524,2.636.4,2.691,1.132" transform="translate(10.67 4.344)" fill="#8d58b7"/></g></g></g></svg>