<?xml version="1.0"?><svg width="186.69325" height="206.07425" xmlns="http://www.w3.org/2000/svg" xmlns:xlink="http://www.w3.org/1999/xlink">
 <title>Missing database</title>
 <defs>
  <filter color-interpolation-filters="sRGB" height="1.385542" y="-0.192771" width="1.128514" x="-0.064257" id="filter6093">
   <feGaussianBlur id="feGaussianBlur6095" stdDeviation="0.892504"/>
  </filter>
  <linearGradient id="linearGradient6035">
   <stop stop-color="#ffffff" id="stop6037" offset="0"/>
   <stop stop-color="#ffffff" stop-opacity="0" id="stop6039" offset="1"/>
  </linearGradient>
  <linearGradient id="linearGradient5495">
   <stop stop-color="#c6c6c6" offset="0" id="stop5497"/>
   <stop stop-color="#e3e3e3" id="stop5501" offset="0.204846"/>
   <stop stop-color="#a5a5a8" offset="1" id="stop5499"/>
  </linearGradient>
  <linearGradient id="linearGradient5466">
   <stop stop-color="#e3e3e3" id="stop5468" offset="0"/>
   <stop stop-color="#a5a5a8" id="stop5470" offset="1"/>
  </linearGradient>
  <linearGradient y2="0.485811" x2="0.500013" y1="0.485811" x1="0.000012" spreadMethod="reflect" id="linearGradient6110" xlink:href="#linearGradient5495"/>
  <linearGradient y2="0.999951" x2="0.499998" y1="0.210056" x1="0.371781" id="linearGradient6112" xlink:href="#linearGradient5466"/>
  <linearGradient y2="0.499999" x2="1" y1="0.853091" x1="0.510706" spreadMethod="reflect" id="linearGradient6114" xlink:href="#linearGradient6035"/>
  <linearGradient y2="0.499999" x2="1" y1="0.853091" x1="0.510706" spreadMethod="reflect" id="linearGradient6116" xlink:href="#linearGradient6035"/>
  <linearGradient y2="0.499999" x2="1" y1="0.853091" x1="0.510706" spreadMethod="reflect" id="linearGradient6118" xlink:href="#linearGradient6035"/>
  <filter id="svg_1_blur">
   <feGaussianBlur stdDeviation="2.5" in="SourceGraphic"/>
  </filter>
 </defs>
 <metadata id="metadata4">image/svg+xml</metadata>
 <g>
  <title>Layer 1</title>
  <g id="layer1">
   <g transform="matrix(4.19923, 0, 0, 4.19923, -914.556, -1633.81)" id="g6097">
    <path fill="#2e3436" filter="url(#filter6093)" d="m259.718964,429.051208c0,3.626312 -8.819122,6.56601 -19.698013,6.56601c-10.878922,0 -19.698029,-2.939697 -19.698029,-6.56601c0,-3.626343 8.819107,-6.56601 19.698029,-6.56601c10.878891,0 19.698013,2.939667 19.698013,6.56601z" id="path6079"/>
    <path fill="url(#linearGradient6110)" d="m220.330185,395.885315l0,30.091919l0.125,0c-0.080597,0.241272 -0.125,0.470337 -0.125,0.71875c0,3.626282 8.808624,6.5625 19.6875,6.5625c10.878876,0 19.687515,-2.936218 19.687515,-6.5625c0,-0.248779 -0.044189,-0.477173 -0.125,-0.71875l0.125,0l0,-30.091919l-39.375015,0z" id="path5488"/>
    <path fill="url(#linearGradient6112)" id="path5460" d="m259.718964,395.640442c0,3.626312 -8.819122,6.56601 -19.698013,6.56601c-10.878922,0 -19.698029,-2.939697 -19.698029,-6.56601c0,-3.626343 8.819107,-6.56601 19.698029,-6.56601c10.878891,0 19.698013,2.939667 19.698013,6.56601z"/>
    <path fill="#565656" d="m220.298935,417.479065c0.147339,3.583984 8.931824,6.46875 19.71875,6.46875c10.756287,0 19.491776,-2.867676 19.687515,-6.4375c-3.451538,2.935913 -10.959213,4.96875 -19.687515,4.96875c-8.746124,0 -16.276855,-2.054443 -19.71875,-5z" id="path6026"/>
    <path fill="url(#linearGradient6114)" d="m220.298935,395.729309c0.147003,3.583984 8.932007,6.468018 19.718994,6.468018c10.756012,0 19.49202,-2.867004 19.687027,-6.437012c-0.215027,0.182983 -0.44104,0.35498 -0.687012,0.531006c-0.009033,0.012024 -0.022034,0.02002 -0.031006,0.031006c-2.29303,2.778015 -9.904007,4.812988 -18.969009,4.812988c-9.122009,0 -16.78598,-2.070984 -19.031006,-4.875c-0.024994,-0.018005 -0.037994,-0.044983 -0.062988,-0.062988c-0.218994,-0.158997 -0.432007,-0.30304 -0.625,-0.468018l0,0z" id="path6030"/>
    <g id="g6071">
     <g id="g6067">
      <path fill="#565656" id="path6022" d="m220.298935,406.955902c0.147339,3.583984 8.931824,6.46875 19.71875,6.46875c10.756287,0 19.491776,-2.867676 19.687515,-6.4375c-3.451538,2.935913 -10.959213,4.96875 -19.687515,4.96875c-8.746124,0 -16.276855,-2.054443 -19.71875,-5z"/>
      <path fill="url(#linearGradient6116)" d="m220.298935,406.956146c0.147003,3.583984 8.932007,6.468018 19.718994,6.468018c10.756012,0 19.49202,-2.867004 19.687027,-6.437012c-0.049011,0.041992 -0.105042,0.083984 -0.156006,0.125c-1.242004,3.22699 -9.511002,5.718994 -19.531021,5.718994c-10.113007,0 -18.467987,-2.510986 -19.593994,-5.781006c-0.040009,-0.031982 -0.085999,-0.060974 -0.125,-0.093994l0,0z" id="path6043"/>
     </g>
     <path fill="url(#linearGradient6118)" d="m220.298935,417.479309c0.147003,3.583984 8.932007,6.468018 19.718994,6.468018c10.756012,0 19.49202,-2.867004 19.687027,-6.437012c-0.049011,0.041992 -0.105042,0.083984 -0.156006,0.125c-1.242004,3.22699 -9.511002,5.718994 -19.531021,5.718994c-10.113007,0 -18.467987,-2.510986 -19.593994,-5.781006c-0.040009,-0.031982 -0.085999,-0.060974 -0.125,-0.093994l0,0z" id="path6054"/>
    </g>
    <path fill="#565656" d="m220.423935,428.322815c1.126007,3.27002 9.480988,5.78125 19.59375,5.78125c10.020599,0 18.289078,-2.492004 19.531265,-5.71875c-3.516357,2.867798 -10.928574,4.84375 -19.531265,4.84375c-8.647827,0 -16.100037,-2.013733 -19.59375,-4.90625z" id="path6060"/>
   </g>
  </g>
  <text opacity="0.82" font-weight="bold" filter="url(#svg_1_blur)" xml:space="preserve" text-anchor="middle" font-family="Times New Roman" font-size="240" id="svg_1" y="178.037125" x="93.3464" stroke-width="0" stroke="#000000" fill="#000000">?</text>
 </g>
</svg>