<svg width="120" height="120" viewBox="0 0 120 120" fill="none" xmlns="http://www.w3.org/2000/svg">
<circle cx="60" cy="60" r="60" fill="#D9D9D9" fill-opacity="0.3"/>
<path d="M57.5916 86.237C57.9503 86.5532 57.9886 87.1046 57.6785 87.4695C56.8145 88.4839 55.881 89.382 54.9051 90.1392C52.6215 91.9115 50.2043 92.8467 47.9105 92.8467H47.8536C47.3794 92.843 46.9981 92.45 47.001 91.9675C47.004 91.4874 47.3878 91.0999 47.8596 91.0999H47.9105C49.8247 91.0999 51.882 90.289 53.8638 88.7507C54.747 88.0659 55.5936 87.2495 56.3804 86.3247C56.6917 85.9615 57.2336 85.9208 57.5916 86.237ZM82.7476 96.6996C81.8764 96.9001 80.9956 97 80.112 97C76.8153 97 73.4809 95.6158 70.501 92.9674C68.0366 90.7759 66.0207 87.8754 64.5734 84.55C62.6569 88.4523 59.9463 91.7203 56.7132 93.9276C53.9171 95.8357 50.9635 96.8111 48.1021 96.8111C46.689 96.8111 45.2988 96.5729 43.9605 96.0928C36.2984 93.339 32.6694 83.2736 35.2644 72.9518C32.1043 74.7272 29.2405 75.9785 27.1479 76.7833C26.7671 76.9302 26.3791 77.0014 25.9989 77.0014C25.2721 77.0014 24.5745 76.7389 24.0129 76.2332C23.1573 75.4619 22.8148 74.3031 23.0968 73.1321C24.4009 67.7207 27.7065 57.3574 35.1986 48.7511C42.6888 40.1454 52.3948 35.5554 57.5127 33.5851C57.6954 33.5144 57.8798 33.4675 58.0642 33.4315L62.7081 28.0963C62.729 26.9333 62.7817 25.7721 62.8679 24.6158C62.9021 24.1503 63.1146 23.7269 63.4637 23.4222C63.8151 23.1164 64.2606 22.9726 64.7216 23.0043L67.2285 23.2047C68.1631 23.2791 68.854 24.0869 68.8008 25.0422C68.2458 35.3057 70.2581 45.4054 74.6278 54.5623C78.3699 54.1121 82.2318 55.4823 85.6327 58.506C89.334 61.7972 92.0553 66.6656 93.2948 72.2165C95.8772 83.7764 91.1441 94.7601 82.7474 96.7004L82.7476 96.6996ZM82.3674 94.9955C89.8409 93.2683 93.9932 83.2231 91.6222 72.6032C90.463 67.4093 87.9357 62.8705 84.5055 59.8205C81.8464 57.4573 78.8995 56.2204 76.0142 56.2204C75.2592 56.2204 74.5095 56.3051 73.7694 56.4757C66.2959 58.2029 62.143 68.2482 64.5134 78.8681C65.6726 84.062 68.1999 88.6008 71.6307 91.6501C74.9855 94.633 78.7995 95.8229 82.3674 94.9949V94.9955ZM63.7104 82.3055C63.3751 81.3136 63.0722 80.3016 62.8386 79.2555C61.5663 73.5541 62.0758 67.996 63.923 63.5901C62.4872 60.6535 60.2719 58.4182 57.3955 57.3843C56.2393 56.9688 55.0448 56.7702 53.8408 56.7702C53.6061 56.7702 53.3708 56.7939 53.1361 56.8085C52.0416 58.4407 50.8279 60.0558 49.4724 61.6131C45.7279 65.9157 41.4295 69.2141 37.427 71.6834C34.189 81.7171 37.3018 91.8454 44.5321 94.4438C48.0563 95.7123 52.0421 95.0104 55.7567 92.4753C59.1383 90.1669 61.9177 86.5917 63.7104 82.3051V82.3055ZM26.5406 75.1498C31.5137 73.2367 40.9392 68.7832 48.1864 60.4559C55.4319 52.1317 58.6375 42.0766 59.9031 36.8252C59.9475 36.6406 59.9481 36.4615 59.9283 36.2872L32.346 67.9768C32.1765 68.1712 31.94 68.2711 31.7029 68.2711C31.5011 68.2711 31.2976 68.1986 31.1341 68.0518C30.7791 67.7319 30.7461 67.1793 31.0611 66.8187L58.6449 35.129C58.4725 35.1303 58.2971 35.1516 58.1222 35.2192C53.1508 37.1329 43.7302 41.5858 36.4855 49.91C29.2384 58.2367 26.0321 68.2955 24.7664 73.5501C24.6388 74.0795 24.7837 74.5944 25.1532 74.9276C25.522 75.2603 26.0405 75.3443 26.5416 75.1506L26.5406 75.1498ZM61.5707 37.2418C60.5881 41.3196 58.4649 48.2101 54.2708 55.0424C55.4928 55.0814 56.7047 55.2977 57.8848 55.712C60.3588 50.9153 62.197 45.7623 63.3393 40.3533C63.4627 39.7672 63.4752 39.1354 63.3771 38.475C63.2238 37.4338 63.104 36.3896 63.0028 35.3435L61.6263 36.9245C61.6108 37.0305 61.5964 37.1359 61.5706 37.242L61.5707 37.2418ZM66.5749 51.0242C65.5738 53.8237 64.3727 56.538 62.9938 59.1505C63.686 59.912 64.3045 60.7607 64.8451 61.6843C65.951 59.6932 67.3664 58.0203 69.0411 56.7883C68.1304 54.9148 67.3 52.9939 66.5749 51.0242ZM67.0886 24.9448L64.5883 24.7456C64.2489 29.2101 64.4147 33.7412 65.0751 38.2148C65.2044 39.0836 65.1847 39.9269 65.017 40.72C63.8519 46.2386 61.9778 51.4952 59.4648 56.3948C60.2642 56.8121 61.0077 57.3208 61.6981 57.9008C63.3207 54.7674 64.681 51.4866 65.7433 48.0889C65.8564 47.7282 66.1851 47.4821 66.557 47.4802C66.9006 47.5083 67.2593 47.7209 67.3766 48.081C68.2412 50.7561 69.3021 53.3516 70.5129 55.858C71.2619 55.4565 72.0534 55.1385 72.8815 54.907C68.5225 45.5958 66.5252 35.3501 67.0886 24.9439L67.0886 24.9448ZM62.7328 30.7041L60.0899 33.74C60.2887 33.8502 60.4797 33.9782 60.6551 34.136C60.8689 34.3285 61.0509 34.546 61.1994 34.7812L62.8292 32.9089C62.7849 32.1742 62.7495 31.4395 62.7328 30.7041ZM83.8391 91.9621C83.996 91.9621 84.154 91.9189 84.2966 91.8275C86.2226 90.5889 87.7591 88.471 88.7391 85.7038C89.1541 84.531 89.4606 83.262 89.6492 81.9332C89.7169 81.4555 89.3918 81.0126 88.9236 80.9437C88.4523 80.8645 88.0183 81.2045 87.9512 81.6821C87.7788 82.8958 87.5003 84.0491 87.1249 85.1116C86.2747 87.509 84.9797 89.3208 83.3797 90.3493C82.9792 90.607 82.8594 91.1468 83.1121 91.5544C83.2756 91.8176 83.554 91.962 83.839 91.962L83.8391 91.9621Z" fill="white"/>
</svg>
