<svg width="120" height="120" viewBox="0 0 120 120" fill="none" xmlns="http://www.w3.org/2000/svg">
<circle cx="60" cy="60" r="60" fill="#D9D9D9" fill-opacity="0.3"/>
<path d="M49.1359 80.9886C50.1378 80.7829 51.3782 80.2948 51.4503 78.7299C59.6695 70.383 69.3153 66.2397 78.51 60.3748C79.957 60.8884 81.1591 60.6816 82.6068 61.396C83.0457 60.9124 82.803 60.5923 83.041 60.1101C84.6474 60.5028 86.9772 61.052 87.1253 58.7246C85.7621 58.852 84.2768 58.6196 82.7507 58.2665C82.907 57.5437 82.3838 57.1851 83.0234 56.7008C84.2728 57.817 90.1279 57.5055 88.147 54.6281C87.3103 55.7154 85.3853 55.7659 84.6605 55.2079C84.858 54.6053 85.3402 54.8432 85.6577 54.1999C87.5023 54.1098 92.2265 52.4405 90.7309 50.2018C89.9727 50.9278 88.4936 51.8984 87.8898 51.5007C89.4062 50.0486 91.4526 50.158 92.8886 48.6663C92.6066 48.4273 92.1238 48.1891 92.122 47.7882C90.8396 47.9554 88.9587 48.9281 88.0757 48.692C87.9888 47.4492 89.469 46.6788 89.4624 45.4756C86.1668 44.2495 86.7189 50.023 85.3224 51.4343C85.1133 49.831 86.0262 47.9807 84.9761 46.6628C83.5754 47.272 84.1889 49.4747 83.955 50.7595C81.5503 51.1729 79.0391 54.235 79.6161 57.1199C79.0555 57.2433 78.7389 58.0873 78.0559 57.8502C78.6123 56.9248 78.7694 56.2018 78.7256 55.4799C78.2428 55.2418 78.3213 54.8805 77.5987 54.7236C76.7233 56.0919 77.1747 58.0149 76.2997 59.3835C75.225 60.9535 71.7425 62.3358 69.8632 63.509C63.7861 67.3119 57.0655 70.7967 52.0366 75.5166C58.3692 66.9389 64.8887 55.7532 67.6068 46.3921C69.0084 45.9835 70.656 46.4963 71.7326 45.3272C71.2028 43.7654 69.4836 44.8178 68.3179 44.3424C68.7951 43.5776 68.5122 43.138 69.1093 42.3324C70.9571 42.8442 72.4386 42.2748 73.7567 41.2248C73.3535 40.8255 73.4308 40.264 72.6671 39.9871C71.7072 40.5137 70.829 41.2804 69.4616 40.6057C69.6998 40.1229 70.0975 39.5192 69.9752 39.1588C70.2961 39.1168 70.5771 39.1556 71.0197 39.4738C72.3345 37.822 74.8196 37.4481 75.4505 35.359C73.6787 34.0848 72.0538 37.7839 71.1627 36.1437C72.9228 35.212 77.0016 32.8235 76.0643 30.0603C74.4653 31.0715 73.1919 33.044 71.4299 33.5749C71.9408 31.5264 75.0209 29.9454 73.3671 28.2298C72.446 28.4754 71.9715 29.8417 71.1718 30.2471C71.4852 28.8013 73.1659 28.0306 72.1985 27.1534C68.7524 27.8536 69.7711 30.8564 69.2218 33.1862C69.183 33.4672 68.5835 33.8716 68.4655 34.3131C68.1093 35.2374 68.3968 36.4795 68.1983 36.8819C67.8006 37.4856 67.0366 37.2091 66.7192 37.8524C66.1239 39.0588 66.8927 40.3386 66.6994 41.7433C66.7017 42.1444 66.1031 42.7494 66.0247 43.1107C65.7123 44.7568 66.4051 46.7989 64.7672 48.0912C64.6343 45.7251 62.2952 43.371 64.2473 40.8335C64.3233 40.0711 63.2791 39.7555 63.4751 38.9524C63.1867 37.5098 64.8599 35.3352 64.4912 33.8529C65.2024 31.8032 67.0792 30.2291 65.309 29.1553C64.7906 29.8 64.4349 30.7245 63.8354 31.1289C63.3829 29.0057 68.2136 24.6874 66.038 22.8141C65.1541 22.7793 64.9688 25.5881 64.2059 25.5118C63.7577 24.1905 65.9522 21.9724 63.9026 21.2612C61.7049 22.8775 63.6493 26.4371 62.6954 28.1672C60.9247 27.0932 63.1974 24.5143 61.1063 23.4825C58.2745 26.5861 63.5437 29.2858 61.7128 31.9833C60.3023 30.7876 61.3335 28.4953 60.246 27.6593C57.292 30.4024 62.4005 33.0228 61.6546 36.156C60.726 34.9977 60.3977 33.6358 59.2353 33.7623C58.5672 36.333 62.3431 37.396 61.8346 39.8458C61.031 39.6496 60.9475 39.0081 60.4672 39.1711C59.5521 40.6196 60.6795 41.3761 62.2067 41.9294C61.5403 44.9014 64.8425 47.3308 64.2974 50.4625C64.219 50.8238 63.8213 51.4275 63.5435 51.9905C60.4926 59.1867 55.5689 68.5586 50.0665 74.8452C49.9591 69.7917 50.1387 65.7794 49.6716 60.8479C49.4574 58.2418 48.5565 54.7966 49.1467 52.5876C49.4222 51.6234 50.582 50.8952 50.335 49.7732C49.9714 49.2936 49.2948 50.2602 49.4511 49.5374C50.2075 48.4105 51.6465 47.52 51.3586 46.0775C50.5523 45.2797 49.5985 47.0093 48.7589 47.4955C49.2287 45.3268 53.7551 44.0596 53.1403 41.656C51.495 41.5443 50.7055 43.9551 49.0615 44.0445C49.7782 42.9979 49.1732 42.3992 49.9295 41.2723C51.4897 40.5421 55.0498 38.5979 54.4341 35.9934C53.232 36.2002 52.6804 38.1288 51.4775 38.1349C52.3516 36.5657 55.3471 34.1431 53.8536 32.3062C52.9756 33.0728 52.2597 34.3201 51.3409 34.9669C51.2938 33.6433 52.4532 32.9149 52.2065 31.7937C48.8787 32.0518 49.5068 37.0627 48.637 39.434C47.1033 37.6771 48.9744 34.8994 48.4818 32.8562C48.3231 33.1779 47.9196 32.7791 47.5979 32.6204C45.8527 36.3599 46.3898 39.3256 47.8075 41.9257C47.4098 42.5294 47.7719 42.8086 47.2939 43.3726C46.4448 42.0533 46.836 40.2464 45.2262 39.2519C44.5183 41.9033 46.4926 43.5775 46.5051 45.9842C45.9412 45.5057 45.8982 44.9846 45.0566 45.0692C44.548 47.5189 48.0039 48.6236 47.1348 51.1956C46.6502 50.5565 45.6055 50.2407 44.7207 49.8042C43.3266 51.6167 46.1363 52.0027 47.5854 52.918C47.7886 61.2181 49.5146 69.0714 47.6371 78.1464C47.6395 78.5476 48.0821 78.8658 48.0446 79.3477C45.865 84.3736 43.9665 89.4378 42.188 94.4613L44.2301 93.7685C45.7705 89.2277 47.3921 84.9268 49.1364 80.9872L49.1359 80.9886ZM83.6021 52.4866C84.3313 53.8466 82.3298 54.6593 81.5729 55.5862C81.2864 54.5444 82.7225 53.0528 83.6021 52.4866Z" fill="white"/>
</svg>