<svg width="120" height="120" viewBox="0 0 120 120" fill="none" xmlns="http://www.w3.org/2000/svg">
<circle cx="60" cy="60" r="60" fill="#D9D9D9" fill-opacity="0.3"/>
<path d="M89.7721 26.2241H77.2377C71.8501 26.2401 66.8479 29.0135 63.9912 33.5691V26.2241C63.9912 25.5478 63.4419 25 62.7636 25C62.0854 25 61.536 25.5478 61.536 26.2241V34.7931C59.6044 32.4797 56.7465 31.1357 53.7277 31.1203H50.487C49.8088 31.1203 49.2594 31.6687 49.2594 32.3444V33.1282C49.2625 35.8413 50.3446 38.4427 52.2689 40.3608C54.1927 42.2795 56.8013 43.3586 59.5222 43.3616H61.536V47.6953C60.116 46.4294 58.2601 45.7605 56.3569 45.8299C54.4534 45.8988 52.6512 46.7005 51.3281 48.0666C50.0044 49.4321 49.2632 51.2556 49.2596 53.1547C49.2627 53.5943 49.3034 54.0326 49.3823 54.4648C47.6405 54.728 46.051 55.6053 44.9022 56.9369C43.7536 58.2692 43.1216 59.9673 43.121 61.7238C43.1234 62.1634 43.1648 62.6017 43.2437 63.0339C40.9062 63.393 38.8839 64.8494 37.8074 66.949C36.7309 69.0492 36.7309 71.5366 37.8074 73.6362C38.8839 75.7364 40.9063 77.1929 43.2437 77.5519C43.1654 77.9841 43.1241 78.4224 43.121 78.862C43.1105 80.6813 43.7776 82.4401 44.9935 83.797C46.2094 85.1538 47.8871 86.0127 49.701 86.2064C49.4186 86.9928 49.2688 87.8203 49.2595 88.6553C49.2595 91.2793 50.6634 93.704 52.9423 95.016C55.2212 96.328 58.0291 96.328 60.3085 95.016C62.5875 93.704 63.9913 91.2793 63.9913 88.6553C63.9815 87.8204 63.8322 86.9929 63.5492 86.2064C65.3638 86.0128 67.0415 85.1539 68.2567 83.797C69.4726 82.4401 70.1398 80.6811 70.1299 78.862C70.1262 78.4224 70.0855 77.9841 70.0066 77.5519C71.7484 77.2887 73.3378 76.4114 74.4866 75.0797C75.6353 73.7475 76.2672 72.0494 76.2679 70.2929C76.2648 69.8533 76.2235 69.4156 76.1452 68.9828C78.4827 68.6237 80.505 67.1673 81.5814 65.0677C82.6586 62.9675 82.6586 60.4801 81.5814 58.3805C80.5049 56.2803 78.4825 54.8238 76.1452 54.4648C76.2235 54.0326 76.2648 53.5943 76.2679 53.1547C76.2642 51.2556 75.5224 49.4321 74.1993 48.0666C72.8762 46.7005 71.0739 45.8988 69.1706 45.8299C67.2672 45.7604 65.4108 46.4293 63.9915 47.6953V43.3616H75.2982C79.4607 43.3554 83.4505 41.7035 86.3941 38.7689C89.3371 35.8339 90.9938 31.8554 91 27.7049V27.4479C91 27.1233 90.8711 26.8116 90.6405 26.5823C90.4106 26.353 90.098 26.2239 89.7724 26.2239L89.7721 26.2241ZM59.523 40.9136C57.5277 40.9142 55.6077 40.1537 54.1557 38.7882C52.7043 37.4227 51.8312 35.5555 51.7153 33.5691H53.7168H53.7161C55.7138 33.5654 57.6376 34.3247 59.0915 35.6903C60.546 37.0564 61.4209 38.9254 61.5368 40.9137L59.523 40.9136ZM56.6258 75.1899C55.3236 75.1899 54.0744 74.6741 53.1539 73.7562C52.2327 72.8376 51.7154 71.592 51.7154 70.2936C51.7197 69.8282 51.7943 69.3659 51.9361 68.9226C53.8568 68.5371 55.5443 67.4053 56.6258 65.7767C57.7073 67.4053 59.3949 68.5371 61.3155 68.9226C61.4579 69.3659 61.5325 69.8282 61.5368 70.2936C61.5368 71.592 61.0195 72.8376 60.0984 73.7562C59.1772 74.6741 57.9286 75.1899 56.6258 75.1899ZM62.7645 66.6214C61.4623 66.6214 60.2131 66.105 59.2919 65.1871C58.3714 64.2686 57.8535 63.023 57.8535 61.7245C57.8535 60.426 58.3714 59.1805 59.2919 58.2619C60.2131 57.344 61.4623 56.8282 62.7645 56.8282C64.0667 56.8282 65.3159 57.344 66.237 58.2619C67.1576 59.1804 67.6749 60.426 67.6749 61.7245C67.6749 63.023 67.1576 64.2686 66.237 65.1871C65.3159 66.105 64.0667 66.6214 62.7645 66.6214ZM56.6258 48.2597C57.9286 48.2597 59.1772 48.7755 60.0983 49.6941C61.0195 50.612 61.5368 51.8575 61.5368 53.156C61.5325 53.6214 61.4579 54.0837 61.3155 54.527C59.3948 54.9125 57.7073 56.0443 56.6258 57.6735C55.5443 56.0442 53.8568 54.9125 51.9361 54.527C51.7943 54.0837 51.7197 53.6214 51.7154 53.156C51.7154 51.8575 52.2327 50.612 53.1539 49.6941C54.0744 48.7756 55.3236 48.2597 56.6258 48.2597ZM50.4877 56.8288C51.79 56.8288 53.0391 57.3446 53.9597 58.2625C54.8808 59.181 55.3981 60.4266 55.3981 61.7251C55.3981 63.0236 54.8808 64.2691 53.9597 65.1877C53.0391 66.1056 51.79 66.622 50.4877 66.622C49.1849 66.622 47.9364 66.1056 47.0152 65.1877C46.094 64.2692 45.5767 63.0236 45.5767 61.7251C45.5767 60.4266 46.094 59.1811 47.0152 58.2625C47.9364 57.3446 49.1849 56.8288 50.4877 56.8288ZM39.4387 70.2943C39.4375 69.0327 39.924 67.8196 40.7977 66.9073C41.6714 65.9949 42.8645 65.4545 44.1285 65.3973C45.1884 67.2104 46.9758 68.4848 49.0388 68.8986C49.1837 69.3498 49.2577 69.8202 49.2602 70.2942C49.2602 72.0433 48.3242 73.6603 46.8043 74.5344C45.285 75.4093 43.4132 75.4093 41.8939 74.5344C40.3747 73.6602 39.4387 72.0434 39.4387 70.2943ZM45.5768 78.8634C45.5817 78.398 45.6557 77.9356 45.7981 77.4924C47.7188 77.1069 49.4063 75.975 50.4878 74.3458C51.5693 75.9751 53.2569 77.1069 55.1775 77.4924C55.3193 77.9356 55.3939 78.398 55.3982 78.8634C55.3982 80.6124 54.4623 82.2288 52.943 83.1036C51.4237 83.9784 49.5519 83.9785 48.0326 83.1036C46.5128 82.2287 45.5768 80.6124 45.5768 78.8634ZM56.6258 93.5529C55.3236 93.5529 54.0744 93.037 53.1539 92.1185C52.2327 91.2006 51.7154 89.955 51.7154 88.6566C51.7179 87.6692 52.0268 86.707 52.599 85.9023C54.2483 85.4024 55.672 84.3462 56.6259 82.915C57.5803 84.3463 59.0033 85.4025 60.6528 85.9023C61.2256 86.707 61.5339 87.6693 61.5369 88.6566C61.5369 89.955 61.0196 91.2006 60.0985 92.1185C59.1773 93.037 57.9287 93.5529 56.6258 93.5529ZM62.7645 83.7596C61.4623 83.7596 60.2131 83.2438 59.2919 82.3253C58.3714 81.4074 57.8535 80.1618 57.8535 78.8633C57.8584 78.3979 57.9324 77.9356 58.0748 77.4923C59.9955 77.1068 61.683 75.975 62.7645 74.3458C63.846 75.9751 65.5335 77.1069 67.4542 77.4923C67.596 77.9356 67.6706 78.3979 67.6749 78.8633C67.6749 80.1618 67.1576 81.4074 66.237 82.3253C65.3159 83.2438 64.0667 83.7596 62.7645 83.7596ZM68.9026 75.1905C67.6003 75.1905 66.3512 74.6747 65.4306 73.7568C64.5095 72.8383 63.9922 71.5927 63.9922 70.2942C63.9965 69.8288 64.0711 69.3665 64.2129 68.9232C66.1335 68.5377 67.821 67.4059 68.9026 65.7773C69.984 67.406 71.6722 68.5378 73.5922 68.9232C73.7347 69.3665 73.8093 69.8288 73.8136 70.2942C73.8136 71.5927 73.2963 72.8383 72.3751 73.7568C71.4546 74.6747 70.2054 75.1905 68.9026 75.1905ZM79.9516 61.725C79.9516 63.0235 79.4343 64.2691 78.5137 65.1876C77.5926 66.1055 76.3434 66.622 75.0412 66.622C73.739 66.622 72.4898 66.1055 71.5686 65.1876C70.6481 64.2691 70.1308 63.0235 70.1308 61.725C70.1308 60.4266 70.6481 59.181 71.5686 58.2625C72.4898 57.3446 73.739 56.8287 75.0412 56.8287C76.3434 56.8287 77.5925 57.3446 78.5137 58.2625C79.4343 59.181 79.9516 60.4266 79.9516 61.725ZM68.9025 48.2596C70.2053 48.2596 71.4545 48.7754 72.3751 49.6939C73.2962 50.6118 73.8135 51.8574 73.8135 53.1559C73.8092 53.6213 73.7346 54.0836 73.5922 54.5269C71.6722 54.9123 69.9841 56.0442 68.9025 57.6734C67.821 56.0441 66.1335 54.9123 64.2128 54.5269C64.071 54.0836 63.9964 53.6213 63.9921 53.1559C63.9921 51.8574 64.5094 50.6118 65.4306 49.6939C66.3511 48.7754 67.6003 48.2596 68.9025 48.2596ZM75.2988 40.9145H63.992C64.243 37.5841 65.748 34.4708 68.205 32.2003C70.6614 29.9298 73.8886 28.6701 77.2384 28.6732H88.5451C88.2942 32.0042 86.7891 35.1169 84.3326 37.3874C81.8756 39.6579 78.6485 40.9177 75.2988 40.9145Z" fill="white"/>
</svg>