<svg width="120" height="120" viewBox="0 0 120 120" fill="none" xmlns="http://www.w3.org/2000/svg">
<circle cx="60" cy="60" r="60" fill="#D9D9D9" fill-opacity="0.3"/>
<path d="M40.6585 50.8299C46.2285 46.3286 52.0458 43.2114 52.1043 43.1803L52.1038 43.1808C52.2477 43.1041 52.4118 43.075 52.573 43.0961C52.594 43.074 52.615 43.0505 52.6361 43.0289C51.8216 41.5315 51.4468 39.8326 51.5557 38.1294C51.6641 36.4262 52.2515 34.7892 53.2496 33.409L50.9599 30.2733C50.8304 30.1045 50.7743 29.891 50.8038 29.6803C50.8337 29.4696 50.9463 29.2796 51.1169 29.1536C51.287 29.0281 51.501 28.9763 51.7094 29.0111C51.9178 29.0459 52.1038 29.164 52.2248 29.3384L54.3079 32.1905C55.9729 30.5813 58.1916 29.6826 60.4995 29.6826C62.8074 29.6826 65.0261 30.5813 66.6911 32.1905L68.7738 29.3375C68.8948 29.163 69.0808 29.0454 69.2892 29.0106C69.4981 28.9759 69.7116 29.0271 69.8822 29.1531C70.0527 29.2792 70.1653 29.4687 70.1948 29.6793C70.2242 29.89 70.1681 30.104 70.0392 30.2723L67.7494 33.408C68.7261 34.7596 69.3102 36.3579 69.4359 38.024C69.5616 39.6906 69.2242 41.359 68.4611 42.8431C68.5457 42.9311 68.6294 43.0204 68.7121 43.1112C68.7756 43.1262 68.8373 43.1493 68.8953 43.1799C68.9532 43.2109 74.7709 46.3282 80.341 50.8295C87.962 56.9888 91.5269 62.6883 90.9372 67.7712C90.9157 67.9828 90.6732 70.0106 89.0106 72.2414C86.1999 76.0129 81.5355 77.4486 78.1163 77.9888H78.1159C77.9621 78.0119 77.8061 78.0227 77.6505 78.0208C76.7177 78.0208 74.5775 77.6968 72.3729 75.117C71.2229 78.1572 69.6706 80.7196 67.8397 82.5846C66.4412 84.009 64.8944 85.0111 63.2692 85.5604V85.5609C63.3772 85.7781 63.3795 86.0339 63.2753 86.2531L62.9365 86.9655C62.6449 87.5787 62.422 88.2225 62.2716 88.885L61.265 93.3548C61.1889 93.7183 60.8781 93.9835 60.5094 94H60.4996C60.1356 93.9868 59.8244 93.731 59.7389 93.3746L58.5823 88.7906H58.5828C58.4347 88.2037 58.23 87.6328 57.9716 87.0864L57.5791 86.2569C57.4847 86.057 57.4777 85.8261 57.5594 85.6206C53.7983 84.4262 50.4679 80.8104 48.3329 75.4495C46.2338 77.726 44.2404 78.0213 43.3493 78.0213C43.1937 78.0232 43.038 78.0124 42.8838 77.9894C39.4642 77.4495 34.7998 76.0129 31.9896 72.2419C30.327 70.0111 30.0839 67.9829 30.063 67.7712C29.4723 62.6887 33.0372 56.9893 40.6587 50.8307L40.6585 50.8299ZM67.3147 63.2103C65.2703 63.3857 63.0101 63.4736 60.6951 63.4736C58.355 63.4736 55.9628 63.3833 53.6862 63.2042C53.2811 65.0532 52.7442 66.8707 52.0801 68.6427C51.8217 69.3871 51.553 70.0713 51.2778 70.7028C57.4904 71.1519 64.0861 71.1552 69.7252 70.7117C69.4486 70.0774 69.1785 69.3903 68.9191 68.6422V68.6427C68.2556 66.8727 67.7197 65.0575 67.3145 63.2103L67.3147 63.2103ZM66.9885 61.6527C66.9221 61.3076 66.8581 60.9535 66.7964 60.5909V60.5904C66.4843 58.748 66.2927 56.8862 66.224 55.0184C64.5324 55.1529 62.6193 55.2206 60.6651 55.2206C58.6801 55.2206 56.6535 55.151 54.776 55.0123V55.0118C54.7073 56.882 54.5157 58.7457 54.2031 60.5905C54.1419 60.9512 54.0783 61.3029 54.0124 61.6452C58.3344 61.974 63.0591 61.9763 66.9882 61.6528L66.9885 61.6527ZM54.7987 53.4294C58.508 53.7092 62.8224 53.7115 66.2004 53.4355C66.2181 50.5058 66.5822 47.326 67.5864 44.2138C65.5121 41.9274 62.8668 40.5741 60.4309 40.5741C58.2365 40.5741 55.7216 41.9755 53.4809 44.433C54.4318 47.4727 54.7808 50.5702 54.7987 53.4294ZM60.4995 31.263C57.9649 31.2639 55.6074 32.5717 54.2523 34.7273C52.8977 36.8829 52.7342 39.5868 53.8196 41.8921C56.649 39.4176 59.0967 38.9954 60.4308 38.9954C62.7309 38.9954 65.1617 39.9871 67.2561 41.7228H67.2556C68.271 39.4214 68.0612 36.7594 66.6976 34.6483C65.3342 32.5369 63.0017 31.263 60.4995 31.263ZM75.3654 75.6873C76.7845 76.5813 77.8172 76.436 77.85 76.4312L77.8687 76.428C82.3149 75.7263 85.7135 73.977 87.6961 71.3704C89.1849 69.4131 89.3733 67.631 89.3746 67.6163C89.3751 67.6088 89.376 67.6012 89.3769 67.5932C90.0325 61.984 84.3003 56.0589 79.3752 52.0769C75.1373 48.6496 70.7496 46.0398 68.9762 45.0316C68.0505 48.0426 67.7397 51.1369 67.7752 54.0421C67.7771 54.0553 67.7799 54.0685 67.7808 54.0816L67.7804 54.0812C67.786 54.1399 67.785 54.1987 67.7776 54.2575C67.9135 61.7825 70.3468 67.9826 70.3822 68.0704C70.3868 68.0822 70.3915 68.094 70.3953 68.1057H70.3948C70.7195 69.0537 71.1004 69.9815 71.5345 70.884C71.6209 70.9841 71.6808 71.104 71.7083 71.2333C73.0027 73.7727 74.3504 75.0485 75.3653 75.6876L75.3654 75.6873ZM60.1036 88.4132L60.4568 89.7957L60.74 88.5679H60.7395C60.8727 87.9452 61.0708 87.3386 61.3311 86.7579H59.5255C59.7666 87.2911 59.9601 87.8451 60.1036 88.4132ZM49.784 74.8482C52.1802 80.8741 56.1167 84.4715 60.3129 84.4715C62.5806 84.4715 64.7969 83.4351 66.7222 81.4742C68.5876 79.5744 70.1469 76.8544 71.2474 73.5947C70.981 73.1813 70.717 72.7289 70.4558 72.2366C67.41 72.4971 64.1399 72.6293 60.7821 72.6293C57.4063 72.6293 53.9443 72.4957 50.5448 72.2319C50.2228 72.846 49.8649 73.4404 49.4728 74.0118C49.5845 74.3175 49.7275 74.7068 49.784 74.8484L49.784 74.8482ZM31.6212 67.5931C31.6222 67.6006 31.6231 67.6082 31.6236 67.6162C31.6297 67.6872 32.3694 74.7292 43.1375 76.4292C43.1805 76.4358 44.2137 76.5811 45.6328 75.6871C46.6473 75.048 47.9954 73.7723 49.2897 71.2329C49.3173 71.104 49.3771 70.9846 49.4626 70.8854C49.8972 69.9825 50.278 69.0542 50.6028 68.1052C50.607 68.0934 50.6112 68.0817 50.6159 68.0699C50.6514 67.9815 53.0851 61.7925 53.2224 54.2714C53.2135 54.2112 53.2112 54.1506 53.2163 54.0899C53.2182 54.0678 53.2215 54.0462 53.2252 54.025C53.2584 51.1264 52.9467 48.0387 52.0215 45.0319C50.2482 46.0397 45.8604 48.6501 41.6225 52.0772C32.7006 59.2923 31.259 64.4985 31.6212 67.5936L31.6212 67.5931Z" fill="white"/>
</svg>
