<svg width="120" height="120" viewBox="0 0 120 120" fill="none" xmlns="http://www.w3.org/2000/svg">
<circle cx="60" cy="60" r="60" fill="#D9D9D9" fill-opacity="0.3"/>
<path d="M42.6604 40.8907C43.3409 40.435 44.0503 40.0162 44.7521 39.6195C46.4747 37.7383 49.1454 35.2102 52.1636 33.8657C54.4344 32.9251 56.8296 32.3311 59.2711 32.1019C58.8369 31.0291 58.3446 29.8973 57.9175 28.8757C57.3672 27.5896 56.933 26.5681 56.7523 26.0247V26.0252C56.6134 25.5731 56.7396 25.0795 57.0784 24.7535C58.3451 23.4751 61.4213 21.7553 64.0486 24.3495H64.0481C64.1885 24.491 64.2925 24.6653 64.3521 24.8565C65.1159 27.2672 65.742 29.7209 66.2266 32.2049C69.1053 32.6324 71.9069 33.4838 74.5428 34.733C75.1724 35.0488 80.1232 37.6721 81.9543 40.9574V40.9569C83.367 41.9467 84.6831 43.0713 85.8847 44.3154C88.1606 46.5975 89.9625 49.3198 91.1848 52.3215C92.4066 55.3227 93.0236 58.5422 92.9993 61.7899C92.9993 77.3463 79.0963 90 61.9997 90C44.903 90 31 77.3458 31 61.7899C31 53.442 35.2196 45.8294 42.6599 40.8902L42.6604 40.8907ZM73.4856 37.0038C70.8173 35.7393 67.9648 34.9228 65.0391 34.5859C64.4913 34.5285 64.051 34.1025 63.9677 33.55C63.5179 30.9721 62.9035 28.4267 62.1295 25.9294C61.7276 25.6357 61.2409 25.4855 60.7456 25.5024C60.2504 25.5198 59.7748 25.7039 59.3936 26.0253C59.596 26.5399 59.8788 27.1934 60.1751 27.8772C60.8264 29.4057 61.6226 31.3018 62.1583 32.7714V32.7709C62.2916 33.1384 62.2431 33.5485 62.028 33.8729C61.8165 34.1969 61.4691 34.4034 61.0875 34.4316C58.3754 34.5398 55.701 35.1113 53.1762 36.1216C51.2743 37.0515 49.5356 38.293 48.0306 39.7958C50.4525 39.0623 52.9587 38.6523 55.4856 38.5759C55.9854 38.579 56.4337 38.8906 56.617 39.3627C56.8002 39.8353 56.6816 40.3735 56.3176 40.722C55.6804 41.3248 54.8701 42.9267 54.1461 44.6315V44.631C56.5724 42.8133 59.2842 41.4242 62.166 40.5236C62.3881 40.4575 62.6239 40.4575 62.846 40.5236C65.3213 41.3392 69.3093 43.5879 72.0452 45.2194V45.2189C71.0314 43.264 69.8798 41.3847 68.6 39.5974C68.3274 39.2206 68.287 38.7198 68.4945 38.3021C68.7025 37.8848 69.1241 37.6213 69.5845 37.6208H69.635C72.2856 37.8638 74.8862 38.505 77.3509 39.5241C76.1468 38.5568 74.8523 37.7126 73.4856 37.0037L73.4856 37.0038ZM61.9993 87.5242C77.7492 87.5242 90.5601 75.9797 90.5601 61.8047C90.5828 58.8829 90.029 55.9863 88.9314 53.2855C87.8337 50.5847 86.2142 48.134 84.1689 46.0791C83.3687 45.2595 82.5125 44.4983 81.6067 43.8007C81.3291 43.8776 81.0332 43.8484 80.7747 43.7202C78.0121 42.3434 75.1157 41.2624 72.1324 40.494C73.5006 42.6397 75.2661 45.77 75.5489 47.9454C75.6034 48.4124 75.3919 48.8707 75.0026 49.1264C74.6139 49.3827 74.1156 49.3919 73.7177 49.1505C73.638 49.0993 66.2559 44.4107 62.4487 43.0143C58.6833 44.3803 55.2347 46.5164 52.3155 49.2899C52.0898 49.498 51.7955 49.6133 51.4906 49.6133C51.2588 49.6138 51.0326 49.5446 50.8393 49.4149C50.3738 49.1166 50.1653 48.5369 50.3324 48.0043C51.0523 45.6875 51.9505 43.432 53.0177 41.2582C49.9966 41.679 47.0547 42.5561 44.2891 43.8595C43.8595 44.0651 43.3511 43.9933 42.9937 43.676C36.8272 48.1806 33.4472 54.5664 33.4472 61.782C33.4396 75.9789 46.2505 87.5238 62.0002 87.5238L61.9993 87.5242Z" fill="white"/>
</svg>
