<svg width="120" height="120" viewBox="0 0 120 120" fill="none" xmlns="http://www.w3.org/2000/svg">
<circle cx="60" cy="60" r="60" fill="#D9D9D9" fill-opacity="0.3"/>
<path fill-rule="evenodd" clip-rule="evenodd" d="M60.792 52.2057C60.8637 52.1876 60.9328 52.1593 60.9977 52.1225L61.0317 52.1028C61.7917 51.6211 70.5857 45.8902 72.7979 39.3404C75.2784 31.9965 69.1272 28.3325 65.5927 28.0214C63.1908 27.8097 61.4686 29.2131 60.564 30.2132H60.5635C59.6588 29.2131 57.9367 27.8096 55.5348 28.0214C52.0002 28.3324 45.8489 31.9969 48.3296 39.3404C48.3976 39.5431 48.4726 39.7442 48.5528 39.9453C48.5597 39.964 48.5672 39.9826 48.5751 40.0002C50.6975 45.2186 56.7573 49.8113 59.155 51.4734C59.1072 52.9147 58.9307 59.6047 59.5818 64.0267H55.741C55.7261 63.2623 55.5582 58.1245 53.6851 53.3873C52.3192 49.9319 50.0464 46.7122 46.3715 45.392C46.6431 44.4602 46.8185 43.1143 46.2189 41.7958C45.7682 40.8036 44.8859 39.8035 43.2302 39.0365C41.6734 38.3153 39.483 38.103 37.1725 38.6151C31.9838 39.7656 26.0994 44.5445 26 55.1516C25.9979 55.3815 26.0909 55.6023 26.2573 55.7618C26.4231 55.9203 26.6474 56.0035 26.8765 55.9901C26.8765 55.9901 32.9012 55.6439 37.7758 56.4494C42.9305 57.3013 47.5414 55.5725 48.5916 51.3724C48.8765 50.2319 48.7171 49.2356 48.3492 48.4002C50.1043 49.8303 51.3051 51.8786 52.1443 54.0016C53.9004 58.4437 54.0674 63.26 54.0828 64.027H44.5627C43.2653 64.027 42.2129 65.0831 42.2129 66.3857V72.4969C42.2139 72.538 42.2182 72.5785 42.2245 72.618L45.0639 91.0035C45.2414 92.153 46.2274 93 47.386 93H72.5994C73.7581 93 74.7441 92.1524 74.9216 91.0035L77.7609 72.618C77.7678 72.5785 77.7715 72.538 77.7726 72.4969L77.7731 72.4729V66.3857C77.7731 65.0836 76.7207 64.027 75.4228 64.027H65.9215C65.9592 62.854 66.2074 58.3564 67.8557 54.1888C68.6944 52.0658 69.8962 50.0175 71.6507 48.5874C71.2824 49.4227 71.1235 50.4191 71.4084 51.5596C72.4587 55.7597 77.0691 57.489 82.2242 56.6366C87.0987 55.8307 93.1235 56.1774 93.1235 56.1774C93.3526 56.1907 93.5769 56.1075 93.7427 55.9491C93.9086 55.7901 94.0021 55.5687 94 55.3388C93.9 44.732 88.0157 39.9535 82.827 38.8023C80.517 38.2897 78.3267 38.502 76.7698 39.2237C75.1136 39.9907 74.2319 40.9904 73.7805 41.983C73.181 43.3022 73.3564 44.6474 73.628 45.5793C69.953 46.8995 67.6803 50.1191 66.3149 53.5746C64.556 58.0226 64.3004 62.8255 64.2638 64.0267H61.2591C60.6516 60.2181 60.7313 54.4531 60.7919 52.2064L60.792 52.2057ZM44.0107 73.3072L46.7039 90.7477C46.756 91.0859 47.0462 91.3355 47.3874 91.3355H72.6008C72.9421 91.3355 73.2323 91.0859 73.2844 90.7477L75.9775 73.3072H44.0107ZM44.5635 65.6913H75.4251C75.8072 65.6913 76.1166 66.0017 76.1166 66.3852V71.6436H43.8725V66.3852C43.8725 66.0017 44.1824 65.6913 44.564 65.6913H44.5635ZM75.2577 47.09C77.8558 47.1733 85.0424 48.0208 91.4185 54.4543C90.2492 54.4314 88.6152 54.4282 86.8385 54.5119C86.1374 53.9209 85.7106 53.2456 85.4522 52.6327C85.2736 52.2097 84.7862 52.0118 84.3647 52.191C83.9432 52.3703 83.746 52.8594 83.9246 53.2824C84.1122 53.7257 84.3647 54.1929 84.7059 54.6543C83.779 54.7359 82.8483 54.8469 81.9548 54.9941C81.3085 55.1013 80.6696 55.1653 80.0477 55.184C80.0205 55.1605 79.9913 55.1381 79.9605 55.1179C77.8483 53.7112 78.2006 50.7188 78.2006 50.7188C78.2484 50.2622 77.9178 49.8526 77.4628 49.804C77.0073 49.7555 76.5991 50.0878 76.5508 50.5444C76.5508 50.5444 76.3142 53.0071 77.5803 55.0005C75.307 54.5557 73.5573 53.3149 73.0167 51.1547C72.701 49.8915 73.2442 48.9063 73.8448 48.23C74.4316 47.5696 75.2124 47.1151 75.2124 47.1151L75.2103 47.1157C75.2257 47.1077 75.2411 47.0997 75.2565 47.0906L75.2577 47.09ZM44.7444 46.9028C44.7593 46.9119 44.7747 46.9204 44.7901 46.9279L44.788 46.9274C44.788 46.9274 45.5688 47.3823 46.1556 48.0422C46.7563 48.7185 47.2989 49.7038 46.9837 50.9663C46.4437 53.1266 44.694 54.3673 42.4201 54.8127C43.6857 52.8193 43.4497 50.3566 43.4497 50.3566C43.4013 49.9 42.9931 49.5677 42.5376 49.6162C42.0826 49.6642 41.7515 50.0744 41.7999 50.531C41.7999 50.531 42.1517 53.5234 40.04 54.9301C40.0091 54.9509 39.9804 54.9728 39.9528 54.9962C39.3309 54.9776 38.6915 54.913 38.0457 54.8063C37.1517 54.6586 36.2215 54.5482 35.2945 54.4665C35.6357 54.0057 35.8882 53.5373 36.0753 53.0946C36.2539 52.6716 36.0572 52.1825 35.6357 52.0032C35.2142 51.824 34.7268 52.0219 34.5482 52.4449C34.2894 53.0578 33.8626 53.7331 33.1616 54.3241C31.4273 54.2425 29.8274 54.2436 28.6649 54.2649C35.0298 47.8389 42.1596 46.9871 44.7441 46.9023L44.7444 46.9028ZM75.3067 45.4264C75.0702 44.8066 74.8108 43.728 75.2902 42.673C75.6134 41.9619 76.2788 41.2839 77.4651 40.7346C78.5127 40.2497 79.909 40.0705 81.4223 40.2497C81.3346 40.2977 81.2479 40.3484 81.1602 40.4018C80.2136 40.9794 79.3121 41.8462 78.8933 43.0902C78.7466 43.5249 78.9794 43.9981 79.4131 44.1453C79.8463 44.2925 80.3178 44.0583 80.464 43.6231C80.7478 42.7814 81.3814 42.215 82.0218 41.8239C83.0689 41.1854 84.1676 41.0035 84.1676 41.0035C84.1958 40.9987 84.2239 40.9928 84.2505 40.9853C85.9402 41.674 87.6001 42.8283 88.9736 44.5298C88.3974 44.668 87.6405 44.8872 86.9192 45.2131C86.502 45.402 86.3154 45.8948 86.5036 46.3141C86.6912 46.7328 87.1823 46.9195 87.6001 46.7312C88.5659 46.2954 89.6071 46.0826 90.0069 46.0117C91.0912 47.8178 91.8853 50.089 92.1978 52.8878C85.5283 46.4105 78.127 45.5171 75.3077 45.428L75.3067 45.4264ZM38.5792 40.0614C40.0924 39.8827 41.4887 40.0619 42.5363 40.5468C43.7227 41.0962 44.3875 41.7742 44.7112 42.4852C45.1907 43.5402 44.9307 44.6188 44.6942 45.2386C41.8756 45.3298 34.4752 46.2356 27.7946 52.7863C28.1002 49.9486 28.8991 47.6479 29.9945 45.8226C30.3947 45.8936 31.4355 46.1064 32.4017 46.5422C32.8189 46.7305 33.3106 46.5433 33.4982 46.1245C33.6858 45.7064 33.4998 45.2124 33.0826 45.0241C32.3608 44.6982 31.6039 44.479 31.0282 44.3408C32.4017 42.6387 34.0621 41.485 35.7507 40.7963C35.7778 40.8038 35.806 40.8102 35.8336 40.8145C35.8336 40.8145 36.9328 40.9964 37.9794 41.6348C38.621 42.0258 39.254 42.5923 39.5373 43.4341C39.684 43.8693 40.1554 44.103 40.5886 43.9563C41.0218 43.8091 41.2551 43.3359 41.1084 42.9012C40.6896 41.6573 39.7882 40.7905 38.8405 40.2127C38.7533 40.1599 38.6661 40.1087 38.5789 40.0602L38.5792 40.0614ZM49.6113 37.7587C48.4967 32.542 53.0077 29.9144 55.6806 29.6786C57.9406 29.4802 59.3587 31.2682 59.7649 31.857C60.3788 37.0189 60.2804 43.208 59.8239 49.9216C58.4185 48.9438 56.0167 47.141 53.8762 44.8787C54.3636 44.325 55.3022 43.3601 56.5156 42.6037C56.9047 42.3616 57.0238 41.8484 56.783 41.458C56.5411 41.0675 56.0293 40.948 55.6407 41.1902C54.3678 41.9834 53.3585 42.9782 52.7658 43.6311C51.7506 42.4106 50.8592 41.0889 50.2549 39.7142C50.7784 38.8554 52.5053 36.4551 55.8959 35.513C56.3365 35.3903 56.5959 34.9316 56.4736 34.4889C56.3514 34.0467 55.8943 33.7864 55.4531 33.9091C52.5202 34.7247 50.6483 36.4742 49.6117 37.7592L49.6113 37.7587ZM61.4242 31.7706C61.8983 31.1113 63.2887 29.4887 65.4477 29.6786C68.1335 29.9154 72.6769 32.5686 71.4996 37.8371C70.477 36.5457 68.5885 34.7406 65.5961 33.9085C65.1554 33.7858 64.6978 34.0461 64.5761 34.4883C64.4538 34.931 64.7127 35.3897 65.1538 35.5124C68.6496 36.4843 70.3771 39.0068 70.8405 39.7898C70.1554 41.3191 69.1174 42.7811 67.9528 44.1105C67.4654 43.5141 66.6745 42.6431 65.6869 41.8968C65.3213 41.6205 64.8009 41.6936 64.5256 42.0606C64.2503 42.4276 64.3231 42.9498 64.6888 43.2261C65.6593 43.96 66.4119 44.8311 66.809 45.3373C64.8817 47.2885 62.8173 48.8578 61.4943 49.7892C61.9407 43.1034 62.0263 36.9356 61.4236 31.7711L61.4242 31.7706Z" fill="white"/>
</svg>
