<svg width="120" height="120" viewBox="0 0 120 120" fill="none" xmlns="http://www.w3.org/2000/svg">
<circle cx="60" cy="60" r="60" fill="#D9D9D9" fill-opacity="0.3"/>
<path d="M58.0896 86.8804H67.1788C67.8055 86.8804 68.2235 86.4625 68.2235 85.8357C68.2235 85.209 67.8055 84.791 67.1788 84.791H58.0896C57.4629 84.791 57.0449 85.209 57.0449 85.8357C57.0449 86.4624 57.5673 86.8804 58.0896 86.8804Z" fill="white"/>
<path d="M58.0896 35.9998H67.1788C67.8055 35.9998 68.2235 35.5818 68.2235 34.9551C68.2235 34.3284 67.8055 33.9104 67.1788 33.9104H58.0896C57.4629 33.9104 57.0449 34.3284 57.0449 34.9551C57.0449 35.5823 57.5673 35.9998 58.0896 35.9998Z" fill="white"/>
<path d="M78.1489 29H47.224C44.4031 29 42 31.2986 42 34.224V86.776C42 89.5969 44.2986 92 47.224 92H78.1489C80.9699 92 83.3729 89.7014 83.3729 86.776V34.224C83.2681 31.2986 80.9694 29 78.1484 29H78.1489ZM44.0891 41.0151H81.178V79.8808L44.0891 79.8803V41.0158V41.0151ZM78.1489 31.0894C79.8203 31.0894 81.283 32.4477 81.283 34.2235V38.9253H44.0894V34.2235C44.0894 32.5521 45.4477 31.0894 47.2235 31.0894H78.1489ZM81.1791 86.6704C81.1791 88.3418 79.8208 89.8045 78.045 89.8045L47.2248 89.805C45.5534 89.805 44.0907 88.4467 44.0907 86.6709V81.9692H81.1796L81.1791 86.6704Z" fill="white"/>
<path d="M67.7013 60.3425C72.9254 58.3575 76.5818 53.3427 76.5818 47.3877C76.5818 46.761 76.1638 46.343 75.5371 46.343C69.7907 46.343 64.7759 49.8952 62.7904 54.9099C60.7009 49.895 55.7905 46.343 49.9402 46.343C49.3135 46.343 48.8955 46.761 48.8955 47.3877C48.8955 53.2385 52.5519 58.2532 57.776 60.2379C52.5519 62.2229 48.8955 67.342 48.8955 73.1927C48.8955 73.8194 49.3135 74.2374 49.9402 74.2374C54.8506 74.2374 59.2387 71.6256 61.6417 67.6556V73.402H63.7311V67.6556C66.3429 71.8345 70.731 74.2374 75.4326 74.2374C76.0593 74.2374 76.4773 73.8194 76.4773 73.1927C76.4773 67.3419 72.8208 62.3272 67.7012 60.3425H67.7013ZM74.3881 48.5367C73.8657 54.1781 69.3732 58.6711 63.7313 59.1935C64.2536 53.5515 68.7461 49.059 74.3881 48.5367ZM50.9854 48.5367C56.6269 49.059 61.1199 53.5515 61.6422 59.1935C56.0003 58.5663 51.5078 54.0738 50.9854 48.5367ZM50.9854 72.1487C51.5078 66.5072 56.0003 62.0142 61.6422 61.4919C61.0155 67.1338 56.5231 71.6263 50.9854 72.1487ZM63.7321 61.4919C69.3736 62.0142 73.8666 66.5067 74.3889 72.1487C68.747 71.6263 64.2545 67.1338 63.7321 61.4919Z" fill="white"/>
</svg>
