<svg width="120" height="120" viewBox="0 0 120 120" fill="none" xmlns="http://www.w3.org/2000/svg">
<circle cx="60" cy="60" r="60" fill="#D9D9D9" fill-opacity="0.3"/>
<path d="M65.5498 65.3381C65.5498 66.5076 66.4975 67.4553 67.667 67.4553C68.836 67.4553 69.7837 66.5076 69.7837 65.3381C69.7837 64.1691 68.836 63.2214 67.667 63.2214C66.4975 63.2214 65.5498 64.1691 65.5498 65.3381Z" fill="white"/>
<path d="M50.1714 65.3381C50.1714 66.5076 51.1191 67.4553 52.2881 67.4553C53.4576 67.4553 54.4053 66.5076 54.4053 65.3381C54.4053 64.1691 53.4576 63.2214 52.2881 63.2214C51.1191 63.2214 50.1714 64.1691 50.1714 65.3381Z" fill="white"/>
<path d="M64.1791 85.7367C65.3387 85.7367 66.2798 84.7956 66.2798 83.636V81.9891C66.2798 80.8295 65.3387 79.8884 64.1791 79.8884C63.0194 79.8884 62.0783 80.8295 62.0783 81.9891V83.636C62.0783 84.7961 63.0194 85.7367 64.1791 85.7367Z" fill="white"/>
<path d="M55.7762 85.7367C56.9359 85.7367 57.877 84.7956 57.877 83.636V81.9891C57.877 80.8295 56.9359 79.8884 55.7762 79.8884C54.6166 79.8884 53.6755 80.8295 53.6755 81.9891V83.636C53.6755 84.7961 54.6166 85.7367 55.7762 85.7367Z" fill="white"/>
<path d="M31.3214 56.593C32.5462 55.3448 33.8924 54.6846 35.2143 54.3737C34.4871 53.056 34.0693 51.5532 34.0693 49.9706C34.0693 46.1723 36.4026 42.8807 39.782 41.5293C39.7079 41.0674 39.6709 40.5994 39.6709 40.1306C39.6709 35.0963 43.7547 31 48.7738 31C50.8431 31 52.7947 31.6921 54.3759 32.9502C57.5378 30.4335 62.4177 30.4335 65.5796 32.9502C67.1608 31.6922 69.1124 31 71.1817 31C76.2008 31 80.2846 35.0959 80.2846 40.1306C80.2846 40.5995 80.2476 41.0674 80.1739 41.5298C83.5538 42.8807 85.8867 46.1729 85.8867 49.9706C85.8867 51.5433 85.4722 53.0368 84.7529 54.3483C86.1156 54.6456 87.5082 55.3059 88.7723 56.593C92.9809 60.8807 92.011 67.9922 91.967 68.2933C91.8343 69.2152 91.1108 69.9372 90.1889 70.0713C90.0947 70.0849 89.3369 70.189 88.2102 70.189C86.1798 70.189 82.9616 69.8275 80.2847 68.01V75.1839C80.2847 77.0328 80.0329 78.8686 79.5368 80.6411C77.0821 89.3825 69.0388 95.4902 59.9785 95.4902C48.7814 95.4902 39.6712 86.3816 39.6712 75.1828V68.0995C37.0218 69.8368 33.8792 70.1879 31.8825 70.1879C30.7571 70.1879 29.998 70.0838 29.9046 70.0702C28.9827 69.9361 28.2592 69.214 28.1266 68.2922C28.083 67.9916 27.1134 60.8807 31.3214 56.593ZM77.3199 45.1075C76.6513 45.0324 76.059 44.6437 75.7266 44.0599C75.3932 43.4771 75.3604 42.7685 75.6366 42.1562C75.9334 41.4969 76.084 40.8141 76.084 40.1305C76.084 37.4131 73.8848 35.2014 71.182 35.2014C69.6379 35.2014 68.21 35.9305 67.268 37.2022C66.4746 38.2718 64.6857 38.2718 63.8928 37.2022C62.0083 34.6584 57.9489 34.6584 56.0643 37.2022C55.2709 38.2718 53.482 38.2718 52.6891 37.2022C51.7466 35.9305 50.3188 35.2014 48.7747 35.2014C46.0724 35.2014 43.8732 37.4128 43.8732 40.1305C43.8732 40.8142 44.0237 41.4969 44.3206 42.1562C44.5967 42.7691 44.5639 43.4776 44.2301 44.0599C43.8976 44.6437 43.3054 45.0324 42.6368 45.1075C40.1473 45.3837 38.2712 47.4736 38.2712 49.9706C38.2712 52.3052 39.9208 54.3361 42.1895 54.7998C43.9549 55.1637 45.9384 54.4481 47.0873 52.8988C47.4835 52.3643 48.11 52.0497 48.7749 52.0497C49.4399 52.0497 50.0659 52.3643 50.4626 52.8988C52.3471 55.4399 56.4065 55.4399 58.2911 52.8988C59.0845 51.8293 60.8734 51.8293 61.6663 52.8988C63.5508 55.4399 67.6102 55.4399 69.4947 52.8988C70.2881 51.8293 72.0771 51.8293 72.8699 52.8988C73.7318 54.0608 75.0663 54.7529 76.4205 54.8734C76.714 54.8992 77.0057 54.8542 77.2974 54.8256C77.4526 54.8101 77.612 54.8312 77.7649 54.7998C80.0368 54.336 81.6859 52.3052 81.6859 49.9705C81.6859 47.4736 79.8094 45.3837 77.3199 45.1075ZM81.7334 63.7979C83.4402 65.5788 86.1454 65.952 87.8934 65.9862C87.8784 64.1738 87.538 61.3337 85.7749 59.5364C84.8887 58.6338 83.8149 58.3491 82.8152 58.3491C81.966 58.3491 81.1683 58.5545 80.5831 58.7594C80.5081 60.3884 80.7008 62.7212 81.7334 63.7979ZM43.8724 75.1835C43.8724 84.0651 51.0978 91.2894 59.9783 91.2894C67.1639 91.2894 73.5442 86.4423 75.4912 79.5057C75.8837 78.1023 76.0835 76.6501 76.0835 75.1838V59.0742C74.9829 58.9903 73.9353 58.6869 72.96 58.2283C72.8883 58.1955 72.8189 58.1613 72.7481 58.1261C72.1994 57.8499 71.6682 57.5381 71.1814 57.1512C68.0195 59.665 63.1396 59.665 59.9777 57.1512C56.8158 59.665 51.9359 59.665 48.7741 57.1512C48.3994 57.449 48.0013 57.7092 47.5891 57.9418C47.455 58.0173 47.312 58.0736 47.1741 58.142C46.8872 58.2846 46.5992 58.4224 46.2982 58.5336C46.128 58.5964 45.9531 58.6414 45.7791 58.6939C45.4968 58.7793 45.2136 58.8571 44.9224 58.9143C44.7339 58.9514 44.5431 58.9762 44.3513 59.0011C44.1909 59.0217 44.0353 59.0611 43.8725 59.0738L43.8724 75.1835ZM38.3609 63.7979C39.4361 62.6762 39.5768 60.3049 39.5055 58.7581C38.2296 58.3079 35.9577 57.8676 34.3193 59.5364C32.5562 61.3324 32.2172 64.1716 32.2008 65.9821C33.9518 65.945 36.6625 65.5717 38.3609 63.7979Z" fill="white"/>
</svg>
