<svg width="120" height="120" viewBox="0 0 120 120" fill="none" xmlns="http://www.w3.org/2000/svg">
<circle cx="60" cy="60" r="60" fill="#D9D9D9" fill-opacity="0.3"/>
<path d="M77.9998 34.3469C77.9998 33.5355 77.3281 32.8776 76.4998 32.8776C75.6715 32.8776 74.9998 33.5355 74.9998 34.3469V40.273C71.6764 40.3576 68.44 41.3285 65.6377 43.0806C64.8863 40.1983 63.4707 37.5225 61.4999 35.2595V28.4694C61.4999 27.6579 60.8283 27 59.9999 27C59.1716 27 58.4999 27.6579 58.4999 28.4694V35.2595C56.5285 37.5227 55.1129 40.1976 54.3608 43.08C51.559 41.3278 48.3227 40.3577 45 40.273V34.3469C45 33.5355 44.3284 32.8776 43.5001 32.8776C42.6717 32.8776 42.0001 33.5355 42.0001 34.3469C42.0001 34.3469 42.0021 41.7903 42.0074 41.8401C42.3831 44.3787 43.2148 46.8327 44.465 49.0867C44.1402 49.0755 43.8309 49.0407 43.5001 49.0407C43.0762 49.0407 42.6724 49.2165 42.3878 49.5242C42.1039 49.8325 41.9653 50.2431 42.0074 50.6564C42.3831 53.197 43.2155 55.6517 44.4671 57.907C44.141 57.8958 43.8329 57.8571 43.5001 57.8571C43.0762 57.8571 42.6725 58.0329 42.3878 58.3406C42.1039 58.6489 41.9653 59.0595 42.0075 59.4728C42.3832 62.0127 43.2155 64.4674 44.4664 66.7227C44.141 66.7108 43.8323 66.6735 43.5002 66.6735C43.0763 66.6735 42.6725 66.8493 42.3879 67.1569C42.104 67.4652 41.9653 67.8758 42.0075 68.2891C42.0229 68.4439 43.7171 83.3116 58.5 84.2583V97.5306C58.5 98.342 59.1717 99 60 99C60.8284 99 61.5 98.342 61.5 97.5306V84.2583C76.2829 83.3117 77.9771 68.444 77.9925 68.2891C78.0347 67.8759 77.8961 67.4652 77.6121 67.1569C77.3275 66.8493 76.9238 66.6735 76.4999 66.6735C76.1677 66.6735 75.859 66.7115 75.5329 66.7233C76.7845 64.468 77.6168 62.0134 77.9926 59.4728C78.0347 59.0595 77.8961 58.6489 77.6122 58.3405C77.3276 58.0329 76.9238 57.8571 76.4999 57.8571C76.1758 57.8571 75.8624 57.8741 75.545 57.8853C76.7892 55.6359 77.6183 53.1885 77.9925 50.6564C78.0347 50.2432 77.8961 49.8325 77.6121 49.5242C77.3275 49.2165 76.9237 49.0407 76.4999 49.0407C76.1697 49.0407 75.8597 49.0742 75.5356 49.0853C76.7851 46.8314 77.6176 44.3788 77.9925 41.84C77.9978 41.7902 77.9998 34.3469 77.9998 34.3469ZM74.7012 43.2296C73.8836 46.644 71.0316 54.0801 61.6292 54.8535C62.1066 51.5389 64.3298 44.0103 74.7012 43.2296ZM61.6467 63.6684C61.9781 61.4557 62.8071 59.3428 64.0741 57.4825C67.6908 56.8337 70.9667 54.9766 73.3431 52.2281C73.7938 52.1645 74.2277 52.0818 74.7012 52.0464C73.8836 55.4588 71.0342 62.8865 61.6467 63.6684ZM60 66.674C60.1366 66.674 60.2639 66.6641 60.3978 66.6615C60.2618 66.9344 60.1185 67.2086 60.0014 67.4775C59.8842 67.2086 59.7368 66.9337 59.6003 66.6615C59.7355 66.6641 59.8627 66.674 60 66.674ZM59.6076 57.8459C59.7402 57.8479 59.8654 57.8577 60 57.8577C60.1346 57.8577 60.2598 57.8479 60.3918 57.8459C60.2552 58.1188 60.1192 58.3923 60.0014 58.6619C59.8842 58.3923 59.7435 58.1188 59.6076 57.8459ZM60.0027 38.1494C61.6239 40.2492 62.6423 42.7359 62.9518 45.3514C61.7096 46.7007 60.7112 48.2468 60 49.9248C59.2888 48.2475 58.2904 46.7007 57.0481 45.3514C57.3642 42.7367 58.3841 40.2512 60.0025 38.1494H60.0027ZM58.3621 54.8519C49.0106 54.0713 46.1366 46.6429 45.3062 43.2299C55.6146 44.0178 57.8685 51.5366 58.3621 54.8519ZM46.6568 52.2273C49.032 54.9751 52.3059 56.8323 55.922 57.4817C57.1829 59.3447 58.0113 61.4562 58.348 63.6668C49.0066 62.8803 46.1359 55.4566 45.3069 52.0463C45.7769 52.0817 46.2088 52.1637 46.6568 52.2273ZM45.3062 69.6786C45.7769 69.714 46.2088 69.796 46.6568 69.8596C49.032 72.6075 52.3066 74.4646 55.9227 75.1147C57.1843 76.977 58.012 79.0885 58.348 81.2992C49.0052 80.5127 46.1352 73.0889 45.3062 69.6786ZM45.3062 60.8622C45.7769 60.8977 46.2088 60.9797 46.6568 61.0433C49.032 63.7911 52.3059 65.6483 55.922 66.2977C57.1829 68.1607 58.0113 70.2722 58.348 72.4829C49.0066 71.6963 46.1352 64.2726 45.3062 60.8622ZM60.0001 76.298C59.8822 76.0278 59.7376 75.7523 59.6003 75.4781C59.7356 75.48 59.8628 75.4905 60.0001 75.4905C60.138 75.4905 60.2666 75.4807 60.4025 75.4781C60.2653 75.7516 60.1179 76.0271 60.0001 76.298ZM61.6467 81.3005C61.9782 79.0879 62.8072 76.975 64.0741 75.1147C67.6909 74.4659 70.9667 72.6088 73.3432 69.8603C73.7939 69.7967 74.2278 69.714 74.7012 69.6786C73.8836 73.0909 71.0342 80.5186 61.6467 81.3005ZM74.7012 60.8624C73.8836 64.2748 71.0349 71.7025 61.6467 72.485V72.4844C61.9782 70.2717 62.8072 68.1588 64.0741 66.2985C67.6909 65.6497 70.9667 63.7926 73.3432 61.0441C73.7932 60.9798 74.2271 60.8972 74.7012 60.8624Z" fill="white"/>
</svg>
