<svg width="120" height="120" viewBox="0 0 120 120" fill="none" xmlns="http://www.w3.org/2000/svg">
<circle cx="60" cy="60" r="60" fill="#B2B2B2" fill-opacity="0.3"/>
<path d="M54.5848 72.8404C54.2751 72.8404 53.9483 72.7134 53.7077 72.4593C53.4841 72.2227 53.3637 71.9139 53.3461 71.6045C53.2948 71.3323 53.1226 70.696 52.9509 70.0596C52.7097 69.1511 52.5551 68.5695 52.5033 68.1693L49.8371 57.0456L43.0594 48.0302C42.6294 47.5576 42.3716 46.9394 42.3369 46.2851C42.3197 45.5764 42.5433 44.922 43.008 44.3947C43.937 43.3406 45.5195 43.2677 46.5169 44.2677L54.1375 51.8833L57.9391 45.6306C58.5931 44.4313 60.1067 43.9948 61.2935 44.7221C62.4807 45.4488 62.8932 47.0484 62.2053 48.303L58.2835 57.0095L61.9818 64.7702L66.4715 61.2808L73.0599 51.1747C73.3177 50.5931 73.7477 50.1386 74.2981 49.884C74.9003 49.5932 75.5886 49.5751 76.2074 49.8297C76.8267 50.0839 77.3086 50.575 77.584 51.2108C77.859 51.8471 77.8761 52.5743 77.6354 53.2287L73.0081 63.3163L68.9141 70.514C68.5531 71.1323 67.7958 71.3322 67.2113 70.9686C66.6262 70.5869 66.4369 69.7868 66.7813 69.1691L70.8234 62.0623L75.3132 52.2835C75.3132 52.2835 75.21 52.4653 75.1758 52.5195L68.398 62.9164C68.3119 63.0435 68.2258 63.1344 68.1055 63.2253L62.2743 67.7513C61.9818 67.9873 61.6032 68.0601 61.2592 67.9693C60.8977 67.8783 60.6057 67.6242 60.4335 67.2787L55.8062 57.5542C55.634 57.1906 55.634 56.7727 55.8062 56.4091L60.0378 47.0302L55.3763 54.6826C55.118 55.1004 54.6537 55.337 54.1719 55.2822C53.7248 55.228 53.3637 54.9186 53.1915 54.4827L44.8484 46.1398C44.8484 46.1398 44.9345 46.2488 44.9687 46.3035L51.97 55.591C52.0732 55.7367 52.1593 55.9004 52.1935 56.0822L54.9286 67.5514C54.9286 67.5514 54.9633 67.7151 54.9633 67.7874C55.0147 68.0601 55.1869 68.6783 55.3415 69.3142C55.9437 71.6042 55.9955 71.8408 55.4623 72.4043C55.2212 72.6589 54.8944 72.786 54.5847 72.786L54.5848 72.8404Z" fill="white"/>
<path d="M34.4934 89.9814C33.9602 89.9814 33.4612 89.5998 33.3066 89.0363C33.1173 88.3457 33.4959 87.6185 34.1495 87.4186C40.394 85.5102 49.6484 84.3651 59.5738 84.2561C60.245 84.2561 60.8125 84.8377 60.8125 85.5468C60.8125 86.2735 60.2793 86.8551 59.5915 86.8736C49.8893 86.9826 40.8584 88.091 34.8198 89.9452C34.6995 89.9814 34.5963 90 34.4759 90L34.4934 89.9814Z" fill="white"/>
<path d="M67.9845 86.8724C67.3999 86.8724 66.8667 86.4179 66.7635 85.7816L64.5789 72.5314C64.5099 72.1316 64.6302 71.7318 64.8714 71.441L66.9353 68.9872C67.2278 68.6417 67.6578 68.4965 68.0707 68.5693C68.5007 68.6417 68.8446 68.951 69.0168 69.3689C69.2751 70.0775 69.6703 70.7138 70.1864 71.2411C71.8551 73.0224 74.5901 73.3675 76.6026 72.0587C76.7748 71.9497 77.308 71.4229 77.5834 71.1502C78.237 70.5139 78.5985 70.1503 79.0285 70.0594L79.4756 69.8962C79.7163 69.8053 79.9746 69.8053 80.2153 69.8595C80.3699 69.9142 80.5249 69.9871 80.6453 70.096C82.6235 70.0232 84.4815 69.1689 85.8918 67.6783C87.3711 66.1154 88.1798 64.0252 88.1798 61.8255C88.1798 60.6262 87.9391 59.4631 87.4572 58.3542C87.1818 57.7179 86.8379 57.1182 86.4079 56.5728C85.9779 56.0274 86.0469 55.2098 86.5625 54.7553C86.9754 54.3917 87.3369 53.9552 87.6118 53.4646C88.1455 52.5741 88.4205 51.5381 88.4205 50.4839C88.4205 49.266 88.0594 48.1028 87.3711 47.139C86.855 46.4123 86.1672 45.8122 85.3757 45.4305C84.9457 45.2125 84.6703 44.7766 84.6532 44.2673C84.6189 42.0862 83.7932 40.0507 82.331 38.5054C80.8346 36.9244 78.8563 36.0334 76.7576 36.0334C75.45 36.0334 74.16 36.379 73.0246 37.0334C72.1304 37.5602 71.3388 38.2327 70.6853 39.0689C70.3756 39.4686 69.8767 39.6323 69.3953 39.5053L69.0856 39.4325C68.7588 39.3596 68.4834 39.1417 68.3112 38.8509C68.1395 38.5601 68.0705 38.1965 68.1566 37.8515C68.277 37.3061 68.4316 36.5789 68.4316 36.1424C68.4316 34.1431 67.6919 32.2527 66.3677 30.8355C63.9765 28.2908 60.0028 27.9633 57.2849 30.0174C56.4077 31.0896 55.582 32.1624 55.1519 32.7253C54.7048 33.3074 54.3433 33.7614 53.6036 33.5982C52.0725 33.2526 50.5589 33.6524 49.355 34.6342C48.787 35.1063 48.3056 35.6698 47.9613 36.3428C47.6516 36.9424 46.9291 37.1971 46.3446 36.8877C45.9488 36.6878 45.5359 36.506 45.1059 36.379C41.9237 35.3429 38.4485 36.288 36.1092 38.76C34.4063 40.5776 33.4774 42.9772 33.4774 45.5214C33.4774 47.0668 33.8213 48.5568 34.4924 49.9384C35.0256 51.0292 35.7481 52.0105 36.6424 52.8101C37.021 53.1556 37.1585 53.6825 37.021 54.1736C36.9692 54.3554 36.9178 54.5553 36.8836 54.737C36.7803 55.2277 36.7456 55.7184 36.7456 56.209C36.7456 58.0266 37.3997 59.7718 38.5864 61.0986C39.5325 62.1528 40.7364 62.8614 42.0611 63.1522C42.6115 63.2798 43.0244 63.7705 43.0415 64.3701C43.1276 66.1153 43.8159 67.7692 44.9855 69.0231C47.2735 71.4588 51.075 71.7497 53.6554 69.7142C53.9822 69.4595 54.4293 69.3867 54.808 69.5324C55.2032 69.6775 55.4958 70.023 55.599 70.4409L55.7712 71.1681C55.8054 71.3137 55.8226 71.4769 55.8054 71.6226L54.3774 85.6365C54.3089 86.3632 53.6725 86.8725 53.0185 86.7997C52.3307 86.7269 51.8488 86.0725 51.9178 85.3638L53.1735 72.9857C52.0723 73.4583 50.9027 73.7129 49.6988 73.7129C47.2562 73.7129 44.9512 72.6949 43.2307 70.8593C41.8376 69.3868 40.9428 67.4965 40.6503 65.461C39.1881 64.9703 37.8468 64.0975 36.7803 62.8801C35.1631 61.062 34.2688 58.6991 34.2688 56.1911C34.2688 55.5367 34.3373 54.8823 34.4577 54.2279C33.5805 53.3193 32.858 52.2833 32.2905 51.1196C31.4476 49.3929 31 47.4483 31 45.5032C31 42.2498 32.1873 39.1963 34.3544 36.8876C37.3306 33.7251 41.7857 32.5253 45.8284 33.8522C46.0177 33.9251 46.2242 33.9798 46.413 34.0707C46.8259 33.5072 47.3077 32.998 47.841 32.5434C49.4235 31.2533 51.3504 30.6716 53.363 30.9077C53.8444 30.2719 54.6701 29.2358 55.513 28.1998C55.5649 28.1269 55.6333 28.0541 55.7023 27.9999C57.3538 26.6911 59.315 26 61.3789 26C63.9246 26 66.3158 27.0547 68.1224 28.9812C69.7391 30.7079 70.7024 32.9437 70.8917 35.3428C71.2013 35.1248 71.5281 34.9064 71.8549 34.7246C73.369 33.8522 75.0718 33.3983 76.7746 33.3983C79.5444 33.3983 82.1587 34.5433 84.1198 36.6335C85.8403 38.4691 86.8896 40.8502 87.1132 43.3949C87.9903 43.9404 88.7642 44.6671 89.3664 45.54C90.3814 46.9758 90.9147 48.6662 90.9147 50.4472C90.9147 51.9926 90.5018 53.5012 89.7279 54.828C89.5043 55.1911 89.2632 55.5366 89.0054 55.8641C89.2803 56.3 89.5043 56.7545 89.7103 57.2272C90.3296 58.663 90.6569 60.2079 90.6569 61.7713C90.6569 64.6796 89.59 67.4056 87.6635 69.4778C85.5478 71.7317 82.6747 72.8769 79.6647 72.6588C79.5444 72.7678 79.4235 72.8948 79.2861 73.0405C78.6839 73.6221 78.271 74.0218 77.9099 74.2584C74.9338 76.1849 70.9087 75.6576 68.449 73.0405C68.1565 72.7316 67.8982 72.4042 67.6575 72.0587L67.1585 72.6588L69.2401 85.2912C69.3604 86.0003 68.9133 86.6728 68.2255 86.7998C68.1565 86.7998 68.0876 86.8179 68.0191 86.8179L67.9845 86.8724Z" fill="white"/>
<path d="M87.7506 89.9993C87.6302 89.9993 87.527 89.9993 87.4067 89.9445C81.0075 87.9813 71.4256 86.8729 61.1214 86.8729H59.6073C58.9366 86.8729 58.3691 86.2908 58.3691 85.5822C58.3691 84.855 58.9024 84.2734 59.5901 84.2554H61.1384C71.6835 84.2554 81.5057 85.4004 88.1105 87.4179C88.7641 87.6178 89.1427 88.345 88.9534 89.0355C88.7988 89.599 88.2998 89.9807 87.7666 89.9807L87.7506 89.9993Z" fill="white"/>
</svg>
