<?xml version="1.0" encoding="utf-8"?>
<!-- Generator: Adobe Illustrator 25.0.1, SVG Export Plug-In . SVG Version: 6.00 Build 0)  -->
<svg version="1.1" id="Layer_1" xmlns="http://www.w3.org/2000/svg" xmlns:xlink="http://www.w3.org/1999/xlink" x="0px" y="0px"
	 viewBox="0 0 120 120" style="enable-background:new 0 0 120 120;" xml:space="preserve">
<style type="text/css">
	.st0{fill:#B31F24;fill-opacity:0.75;}
	.st1{fill:#FFFFFF;}
</style>
<circle class="st0" cx="60" cy="60" r="60"/>
<path class="st1" d="M57.6,86.2c0.4,0.3,0.4,0.9,0.1,1.2c-0.9,1-1.8,1.9-2.8,2.7c-2.3,1.8-4.7,2.7-7,2.7h-0.1
	c-0.5,0-0.9-0.4-0.9-0.9c0-0.5,0.4-0.9,0.9-0.9h0.1c1.9,0,4-0.8,6-2.3c0.9-0.7,1.7-1.5,2.5-2.4C56.7,86,57.2,85.9,57.6,86.2z
	 M82.7,96.7C81.9,96.9,81,97,80.1,97c-3.3,0-6.6-1.4-9.6-4c-2.5-2.2-4.5-5.1-5.9-8.4c-1.9,3.9-4.6,7.2-7.9,9.4
	c-2.8,1.9-5.7,2.9-8.6,2.9c-1.4,0-2.8-0.2-4.1-0.7c-7.7-2.8-11.3-12.8-8.7-23.1c-3.2,1.8-6,3-8.1,3.8C26.8,76.9,26.4,77,26,77
	c-0.7,0-1.4-0.3-2-0.8c-0.9-0.8-1.2-1.9-0.9-3.1c1.3-5.4,4.6-15.8,12.1-24.4c7.5-8.6,17.2-13.2,22.3-15.2c0.2-0.1,0.4-0.1,0.6-0.2
	l4.6-5.3c0-1.2,0.1-2.3,0.2-3.5c0-0.5,0.2-0.9,0.6-1.2c0.4-0.3,0.8-0.4,1.3-0.4l2.5,0.2c0.9,0.1,1.6,0.9,1.6,1.8
	c-0.6,10.3,1.5,20.4,5.8,29.5c3.7-0.5,7.6,0.9,11,3.9c3.7,3.3,6.4,8.2,7.7,13.7C95.9,83.8,91.1,94.8,82.7,96.7L82.7,96.7z M82.4,95
	c7.5-1.7,11.6-11.8,9.3-22.4c-1.2-5.2-3.7-9.7-7.1-12.8c-2.7-2.4-5.6-3.6-8.5-3.6c-0.8,0-1.5,0.1-2.2,0.3
	c-7.5,1.7-11.6,11.8-9.3,22.4c1.2,5.2,3.7,9.7,7.1,12.8C75,94.6,78.8,95.8,82.4,95L82.4,95z M63.7,82.3c-0.3-1-0.6-2-0.9-3
	c-1.3-5.7-0.8-11.3,1.1-15.7c-1.4-2.9-3.7-5.2-6.5-6.2c-1.2-0.4-2.4-0.6-3.6-0.6c-0.2,0-0.5,0-0.7,0c-1.1,1.6-2.3,3.2-3.7,4.8
	c-3.7,4.3-8,7.6-12,10.1c-3.2,10-0.1,20.2,7.1,22.8c3.5,1.3,7.5,0.6,11.2-2C59.1,90.2,61.9,86.6,63.7,82.3L63.7,82.3z M26.5,75.1
	c5-1.9,14.4-6.4,21.6-14.7c7.2-8.3,10.5-18.4,11.7-23.6c0-0.2,0-0.4,0-0.5L32.3,68c-0.2,0.2-0.4,0.3-0.6,0.3c-0.2,0-0.4-0.1-0.6-0.2
	c-0.4-0.3-0.4-0.9-0.1-1.2l27.6-31.7c-0.2,0-0.3,0-0.5,0.1c-5,1.9-14.4,6.4-21.6,14.7C29.2,58.2,26,68.3,24.8,73.6
	c-0.1,0.5,0,1,0.4,1.4C25.5,75.3,26,75.3,26.5,75.1L26.5,75.1z M61.6,37.2c-1,4.1-3.1,11-7.3,17.8c1.2,0,2.4,0.3,3.6,0.7
	c2.5-4.8,4.3-9.9,5.5-15.4c0.1-0.6,0.1-1.2,0-1.9c-0.2-1-0.3-2.1-0.4-3.1l-1.4,1.6C61.6,37,61.6,37.1,61.6,37.2L61.6,37.2z M66.6,51
	c-1,2.8-2.2,5.5-3.6,8.1c0.7,0.8,1.3,1.6,1.9,2.5c1.1-2,2.5-3.7,4.2-4.9C68.1,54.9,67.3,53,66.6,51z M67.1,24.9l-2.5-0.2
	c-0.3,4.5-0.2,9,0.5,13.5c0.1,0.9,0.1,1.7-0.1,2.5c-1.2,5.5-3,10.8-5.6,15.7c0.8,0.4,1.5,0.9,2.2,1.5c1.6-3.1,3-6.4,4-9.8
	c0.1-0.4,0.4-0.6,0.8-0.6c0.3,0,0.7,0.2,0.8,0.6c0.9,2.7,1.9,5.3,3.1,7.8c0.7-0.4,1.5-0.7,2.4-1C68.5,45.6,66.5,35.4,67.1,24.9
	L67.1,24.9z M62.7,30.7l-2.6,3c0.2,0.1,0.4,0.2,0.6,0.4c0.2,0.2,0.4,0.4,0.5,0.6l1.6-1.9C62.8,32.2,62.7,31.4,62.7,30.7z M83.8,92
	c0.2,0,0.3,0,0.5-0.1c1.9-1.2,3.5-3.4,4.4-6.1c0.4-1.2,0.7-2.4,0.9-3.8c0.1-0.5-0.3-0.9-0.7-1c-0.5-0.1-0.9,0.3-1,0.7
	c-0.2,1.2-0.5,2.4-0.8,3.4c-0.9,2.4-2.1,4.2-3.7,5.2c-0.4,0.3-0.5,0.8-0.3,1.2C83.3,91.8,83.6,92,83.8,92L83.8,92z"/>
</svg>
