<?xml version="1.0" encoding="utf-8"?>
<!-- Generator: Adobe Illustrator 25.0.1, SVG Export Plug-In . SVG Version: 6.00 Build 0)  -->
<svg version="1.1" id="Layer_1" xmlns="http://www.w3.org/2000/svg" xmlns:xlink="http://www.w3.org/1999/xlink" x="0px" y="0px"
	 viewBox="0 0 120 120" style="enable-background:new 0 0 120 120;" xml:space="preserve">
<style type="text/css">
	.st0{fill:#B31F24;fill-opacity:0.75;}
	.st1{fill:#FFFFFF;}
</style>
<circle class="st0" cx="60" cy="60" r="60"/>
<path class="st1" d="M89.8,26.2H77.2c-5.4,0-10.4,2.8-13.2,7.3v-7.3c0-0.7-0.5-1.2-1.2-1.2c-0.7,0-1.2,0.5-1.2,1.2v8.6
	c-1.9-2.3-4.8-3.7-7.8-3.7h-3.2c-0.7,0-1.2,0.5-1.2,1.2v0.8c0,2.7,1.1,5.3,3,7.2c1.9,1.9,4.5,3,7.3,3h2v4.3
	c-1.4-1.3-3.3-1.9-5.2-1.9c-1.9,0.1-3.7,0.9-5,2.2c-1.3,1.4-2.1,3.2-2.1,5.1c0,0.4,0,0.9,0.1,1.3c-1.7,0.3-3.3,1.1-4.5,2.5
	c-1.1,1.3-1.8,3-1.8,4.8c0,0.4,0,0.9,0.1,1.3c-2.3,0.4-4.4,1.8-5.4,3.9c-1.1,2.1-1.1,4.6,0,6.7c1.1,2.1,3.1,3.6,5.4,3.9
	c-0.1,0.4-0.1,0.9-0.1,1.3c0,1.8,0.7,3.6,1.9,4.9c1.2,1.4,2.9,2.2,4.7,2.4c-0.3,0.8-0.4,1.6-0.4,2.4c0,2.6,1.4,5,3.7,6.4
	c2.3,1.3,5.1,1.3,7.4,0c2.3-1.3,3.7-3.7,3.7-6.4c0-0.8-0.2-1.7-0.4-2.4c1.8-0.2,3.5-1.1,4.7-2.4c1.2-1.4,1.9-3.1,1.9-4.9
	c0-0.4,0-0.9-0.1-1.3c1.7-0.3,3.3-1.1,4.5-2.5c1.1-1.3,1.8-3,1.8-4.8c0-0.4,0-0.9-0.1-1.3c2.3-0.4,4.4-1.8,5.4-3.9
	c1.1-2.1,1.1-4.6,0-6.7c-1.1-2.1-3.1-3.6-5.4-3.9c0.1-0.4,0.1-0.9,0.1-1.3c0-1.9-0.7-3.7-2.1-5.1c-1.3-1.4-3.1-2.2-5-2.2
	c-1.9-0.1-3.8,0.6-5.2,1.9v-4.3h11.3c4.2,0,8.2-1.7,11.1-4.6c2.9-2.9,4.6-6.9,4.6-11.1v-0.3c0-0.3-0.1-0.6-0.4-0.9
	C90.4,26.4,90.1,26.2,89.8,26.2L89.8,26.2z M59.5,40.9c-2,0-3.9-0.8-5.4-2.1c-1.5-1.4-2.3-3.2-2.4-5.2h2h0c2,0,3.9,0.8,5.4,2.1
	c1.5,1.4,2.3,3.2,2.4,5.2L59.5,40.9z M56.6,75.2c-1.3,0-2.6-0.5-3.5-1.4c-0.9-0.9-1.4-2.2-1.4-3.5c0-0.5,0.1-0.9,0.2-1.4
	c1.9-0.4,3.6-1.5,4.7-3.1c1.1,1.6,2.8,2.8,4.7,3.1c0.1,0.4,0.2,0.9,0.2,1.4c0,1.3-0.5,2.5-1.4,3.5C59.2,74.7,57.9,75.2,56.6,75.2z
	 M62.8,66.6c-1.3,0-2.6-0.5-3.5-1.4c-0.9-0.9-1.4-2.2-1.4-3.5s0.5-2.5,1.4-3.5c0.9-0.9,2.2-1.4,3.5-1.4c1.3,0,2.6,0.5,3.5,1.4
	c0.9,0.9,1.4,2.2,1.4,3.5s-0.5,2.5-1.4,3.5C65.3,66.1,64.1,66.6,62.8,66.6z M56.6,48.3c1.3,0,2.6,0.5,3.5,1.4
	c0.9,0.9,1.4,2.2,1.4,3.5c0,0.5-0.1,0.9-0.2,1.4c-1.9,0.4-3.6,1.5-4.7,3.1c-1.1-1.6-2.8-2.8-4.7-3.1c-0.1-0.4-0.2-0.9-0.2-1.4
	c0-1.3,0.5-2.5,1.4-3.5C54.1,48.8,55.3,48.3,56.6,48.3z M50.5,56.8c1.3,0,2.6,0.5,3.5,1.4c0.9,0.9,1.4,2.2,1.4,3.5s-0.5,2.5-1.4,3.5
	c-0.9,0.9-2.2,1.4-3.5,1.4c-1.3,0-2.6-0.5-3.5-1.4c-0.9-0.9-1.4-2.2-1.4-3.5s0.5-2.5,1.4-3.5C47.9,57.3,49.2,56.8,50.5,56.8z
	 M39.4,70.3c0-1.3,0.5-2.5,1.4-3.4c0.9-0.9,2.1-1.5,3.3-1.5c1.1,1.8,2.8,3.1,4.9,3.5c0.1,0.5,0.2,0.9,0.2,1.4c0,1.7-0.9,3.4-2.5,4.2
	c-1.5,0.9-3.4,0.9-4.9,0C40.4,73.7,39.4,72,39.4,70.3z M45.6,78.9c0-0.5,0.1-0.9,0.2-1.4c1.9-0.4,3.6-1.5,4.7-3.1
	c1.1,1.6,2.8,2.8,4.7,3.1c0.1,0.4,0.2,0.9,0.2,1.4c0,1.7-0.9,3.4-2.5,4.2c-1.5,0.9-3.4,0.9-4.9,0C46.5,82.2,45.6,80.6,45.6,78.9z
	 M56.6,93.6c-1.3,0-2.6-0.5-3.5-1.4c-0.9-0.9-1.4-2.2-1.4-3.5c0-1,0.3-1.9,0.9-2.8c1.6-0.5,3.1-1.6,4-3c1,1.4,2.4,2.5,4,3
	c0.6,0.8,0.9,1.8,0.9,2.8c0,1.3-0.5,2.5-1.4,3.5C59.2,93,57.9,93.6,56.6,93.6z M62.8,83.8c-1.3,0-2.6-0.5-3.5-1.4
	c-0.9-0.9-1.4-2.2-1.4-3.5c0-0.5,0.1-0.9,0.2-1.4c1.9-0.4,3.6-1.5,4.7-3.1c1.1,1.6,2.8,2.8,4.7,3.1c0.1,0.4,0.2,0.9,0.2,1.4
	c0,1.3-0.5,2.5-1.4,3.5C65.3,83.2,64.1,83.8,62.8,83.8z M68.9,75.2c-1.3,0-2.6-0.5-3.5-1.4c-0.9-0.9-1.4-2.2-1.4-3.5
	c0-0.5,0.1-0.9,0.2-1.4c1.9-0.4,3.6-1.5,4.7-3.1c1.1,1.6,2.8,2.8,4.7,3.1c0.1,0.4,0.2,0.9,0.2,1.4c0,1.3-0.5,2.5-1.4,3.5
	C71.5,74.7,70.2,75.2,68.9,75.2z M80,61.7c0,1.3-0.5,2.5-1.4,3.5c-0.9,0.9-2.2,1.4-3.5,1.4s-2.6-0.5-3.5-1.4
	c-0.9-0.9-1.4-2.2-1.4-3.5c0-1.3,0.5-2.5,1.4-3.5c0.9-0.9,2.2-1.4,3.5-1.4s2.6,0.5,3.5,1.4C79.4,59.2,80,60.4,80,61.7z M68.9,48.3
	c1.3,0,2.6,0.5,3.5,1.4c0.9,0.9,1.4,2.2,1.4,3.5c0,0.5-0.1,0.9-0.2,1.4c-1.9,0.4-3.6,1.5-4.7,3.1c-1.1-1.6-2.8-2.8-4.7-3.1
	c-0.1-0.4-0.2-0.9-0.2-1.4c0-1.3,0.5-2.5,1.4-3.5C66.4,48.8,67.6,48.3,68.9,48.3z M75.3,40.9H64c0.3-3.3,1.8-6.4,4.2-8.7
	c2.5-2.3,5.7-3.5,9-3.5h11.3c-0.3,3.3-1.8,6.4-4.2,8.7C81.9,39.7,78.6,40.9,75.3,40.9z"/>
</svg>
