<?xml version="1.0" encoding="utf-8"?>
<!-- Generator: Adobe Illustrator 25.0.1, SVG Export Plug-In . SVG Version: 6.00 Build 0)  -->
<svg version="1.1" xmlns="http://www.w3.org/2000/svg" xmlns:xlink="http://www.w3.org/1999/xlink" x="0px" y="0px"
	 viewBox="0 0 120 120" style="enable-background:new 0 0 120 120;" xml:space="preserve">
<style type="text/css">
	.st0{fill:#B31F24;fill-opacity:0.75;}
	.st1{fill:#FFFFFF;}
</style>
<g id="Layer_1">
	<circle class="st0" cx="60" cy="60" r="60"/>
</g>
<g id="Layer_2">
	<g>
		<path class="st1" d="M53.6,71.6c-0.3,0-0.6-0.1-0.9-0.4c-0.2-0.2-0.3-0.5-0.4-0.9c-0.1-0.3-0.2-0.9-0.4-1.5
			c-0.2-0.9-0.4-1.5-0.4-1.9l-2.7-11.1l-6.8-9c-0.4-0.5-0.7-1.1-0.7-1.7c0-0.7,0.2-1.4,0.7-1.9c0.9-1.1,2.5-1.1,3.5-0.1l7.6,7.6
			l3.8-6.3c0.7-1.2,2.2-1.6,3.4-0.9c1.2,0.7,1.6,2.3,0.9,3.6l-3.9,8.7l3.7,7.8l4.5-3.5L72.1,50c0.3-0.6,0.7-1,1.2-1.3
			c0.6-0.3,1.3-0.3,1.9-0.1c0.6,0.3,1.1,0.7,1.4,1.4c0.3,0.6,0.3,1.4,0.1,2l-4.6,10.1L68,69.3c-0.4,0.6-1.1,0.8-1.7,0.5
			c-0.6-0.4-0.8-1.2-0.4-1.8l4-7.1l4.5-9.8c0,0-0.1,0.2-0.1,0.2l-6.8,10.4c-0.1,0.1-0.2,0.2-0.3,0.3l-5.8,4.5
			c-0.3,0.2-0.7,0.3-1,0.2c-0.4-0.1-0.7-0.3-0.8-0.7l-4.6-9.7c-0.2-0.4-0.2-0.8,0-1.1l4.2-9.4l-4.7,7.7c-0.3,0.4-0.7,0.7-1.2,0.6
			c-0.4-0.1-0.8-0.4-1-0.8l-8.3-8.3c0,0,0.1,0.1,0.1,0.2l7,9.3c0.1,0.1,0.2,0.3,0.2,0.5L54,66.4c0,0,0,0.2,0,0.2
			c0.1,0.3,0.2,0.9,0.4,1.5c0.6,2.3,0.7,2.5,0.1,3.1C54.3,71.5,53.9,71.6,53.6,71.6L53.6,71.6z"/>
		<path class="st1" d="M33.5,88.8c-0.5,0-1-0.4-1.2-0.9c-0.2-0.7,0.2-1.4,0.8-1.6c6.2-1.9,15.5-3.1,25.4-3.2c0.7,0,1.2,0.6,1.2,1.3
			c0,0.7-0.5,1.3-1.2,1.3c-9.7,0.1-18.7,1.2-24.8,3.1C33.7,88.8,33.6,88.8,33.5,88.8L33.5,88.8z"/>
		<path class="st1" d="M67,85.7c-0.6,0-1.1-0.5-1.2-1.1l-2.2-13.3c-0.1-0.4,0.1-0.8,0.3-1.1l2.1-2.5c0.3-0.3,0.7-0.5,1.1-0.4
			c0.4,0.1,0.8,0.4,0.9,0.8c0.3,0.7,0.7,1.3,1.2,1.9c1.7,1.8,4.4,2.1,6.4,0.8c0.2-0.1,0.7-0.6,1-0.9c0.7-0.6,1-1,1.4-1.1l0.4-0.2
			c0.2-0.1,0.5-0.1,0.7,0c0.2,0.1,0.3,0.1,0.4,0.2c2-0.1,3.8-0.9,5.2-2.4c1.5-1.6,2.3-3.7,2.3-5.9c0-1.2-0.2-2.4-0.7-3.5
			c-0.3-0.6-0.6-1.2-1-1.8s-0.4-1.4,0.2-1.8c0.4-0.4,0.8-0.8,1-1.3c0.5-0.9,0.8-1.9,0.8-3c0-1.2-0.4-2.4-1-3.3
			c-0.5-0.7-1.2-1.3-2-1.7c-0.4-0.2-0.7-0.7-0.7-1.2c0-2.2-0.9-4.2-2.3-5.8c-1.5-1.6-3.5-2.5-5.6-2.5c-1.3,0-2.6,0.3-3.7,1
			c-0.9,0.5-1.7,1.2-2.3,2c-0.3,0.4-0.8,0.6-1.3,0.4l-0.3-0.1c-0.3-0.1-0.6-0.3-0.8-0.6c-0.2-0.3-0.2-0.7-0.2-1
			c0.1-0.5,0.3-1.3,0.3-1.7c0-2-0.7-3.9-2.1-5.3c-2.4-2.5-6.4-2.9-9.1-0.8c-0.9,1.1-1.7,2.1-2.1,2.7c-0.4,0.6-0.8,1-1.5,0.9
			c-1.5-0.3-3,0.1-4.2,1c-0.6,0.5-1,1-1.4,1.7c-0.3,0.6-1,0.9-1.6,0.5c-0.4-0.2-0.8-0.4-1.2-0.5c-3.2-1-6.7-0.1-9,2.4
			c-1.7,1.8-2.6,4.2-2.6,6.8c0,1.5,0.3,3,1,4.4c0.5,1.1,1.3,2.1,2.1,2.9c0.4,0.3,0.5,0.9,0.4,1.4c-0.1,0.2-0.1,0.4-0.1,0.6
			c-0.1,0.5-0.1,1-0.1,1.5c0,1.8,0.7,3.6,1.8,4.9c0.9,1.1,2.2,1.8,3.5,2.1c0.6,0.1,1,0.6,1,1.2c0.1,1.7,0.8,3.4,1.9,4.7
			c2.3,2.4,6.1,2.7,8.7,0.7c0.3-0.3,0.8-0.3,1.2-0.2c0.4,0.1,0.7,0.5,0.8,0.9l0.2,0.7c0,0.1,0.1,0.3,0,0.5l-1.4,14
			c-0.1,0.7-0.7,1.2-1.4,1.2c-0.7-0.1-1.2-0.7-1.1-1.4l1.3-12.4c-1.1,0.5-2.3,0.7-3.5,0.7c-2.4,0-4.7-1-6.5-2.9
			c-1.4-1.5-2.3-3.4-2.6-5.4c-1.5-0.5-2.8-1.4-3.9-2.6c-1.6-1.8-2.5-4.2-2.5-6.7c0-0.7,0.1-1.3,0.2-2c-0.9-0.9-1.6-1.9-2.2-3.1
			c-0.8-1.7-1.3-3.7-1.3-5.6c0-3.3,1.2-6.3,3.4-8.6c3-3.2,7.4-4.4,11.5-3c0.2,0.1,0.4,0.1,0.6,0.2c0.4-0.6,0.9-1.1,1.4-1.5
			c1.6-1.3,3.5-1.9,5.5-1.6c0.5-0.6,1.3-1.7,2.2-2.7c0.1-0.1,0.1-0.1,0.2-0.2c1.7-1.3,3.6-2,5.7-2c2.5,0,4.9,1.1,6.7,3
			c1.6,1.7,2.6,4,2.8,6.4c0.3-0.2,0.6-0.4,1-0.6c1.5-0.9,3.2-1.3,4.9-1.3c2.8,0,5.4,1.1,7.3,3.2c1.7,1.8,2.8,4.2,3,6.8
			c0.9,0.5,1.7,1.3,2.3,2.1c1,1.4,1.5,3.1,1.5,4.9c0,1.5-0.4,3.1-1.2,4.4c-0.2,0.4-0.5,0.7-0.7,1c0.3,0.4,0.5,0.9,0.7,1.4
			c0.6,1.4,0.9,3,0.9,4.5c0,2.9-1.1,5.6-3,7.7c-2.1,2.3-5,3.4-8,3.2c-0.1,0.1-0.2,0.2-0.4,0.4c-0.6,0.6-1,1-1.4,1.2
			c-3,1.9-7,1.4-9.5-1.2c-0.3-0.3-0.6-0.6-0.8-1l-0.5,0.6l2.1,12.6c0.1,0.7-0.3,1.4-1,1.5C67.2,85.6,67.1,85.6,67,85.7L67,85.7z"/>
		<path class="st1" d="M86.8,88.8c-0.1,0-0.2,0-0.3-0.1c-6.4-2-16-3.1-26.3-3.1h-1.5c-0.7,0-1.2-0.6-1.2-1.3c0-0.7,0.5-1.3,1.2-1.3
			h1.5c10.5,0,20.4,1.1,27,3.2c0.7,0.2,1,0.9,0.8,1.6C87.8,88.4,87.3,88.8,86.8,88.8L86.8,88.8z"/>
	</g>
</g>
</svg>
