<?xml version="1.0" encoding="utf-8"?>
<!-- Generator: Adobe Illustrator 25.0.1, SVG Export Plug-In . SVG Version: 6.00 Build 0)  -->
<svg version="1.1" id="Layer_1" xmlns="http://www.w3.org/2000/svg" xmlns:xlink="http://www.w3.org/1999/xlink" x="0px" y="0px"
	 viewBox="0 0 120 120" style="enable-background:new 0 0 120 120;" xml:space="preserve">
<style type="text/css">
	.st0{fill:#B31F24;fill-opacity:0.75;}
	.st1{fill:#FFFFFF;}
</style>
<circle class="st0" cx="60" cy="60" r="60"/>
<path class="st1" d="M58.1,86.9h9.1c0.6,0,1-0.4,1-1c0-0.6-0.4-1-1-1h-9.1c-0.6,0-1,0.4-1,1S57.6,86.9,58.1,86.9z"/>
<path class="st1" d="M58.1,36h9.1c0.6,0,1-0.4,1-1c0-0.6-0.4-1-1-1h-9.1c-0.6,0-1,0.4-1,1C57,35.6,57.6,36,58.1,36z"/>
<path class="st1" d="M78.1,29H47.2c-2.8,0-5.2,2.3-5.2,5.2v52.6c0,2.8,2.3,5.2,5.2,5.2h30.9c2.8,0,5.2-2.3,5.2-5.2V34.2
	C83.3,31.3,81,29,78.1,29L78.1,29z M44.1,41h37.1v38.9l-37.1,0V41L44.1,41z M78.1,31.1c1.7,0,3.1,1.4,3.1,3.1v4.7H44.1v-4.7
	c0-1.7,1.4-3.1,3.1-3.1H78.1z M81.2,86.7c0,1.7-1.4,3.1-3.1,3.1l-30.8,0c-1.7,0-3.1-1.4-3.1-3.1V82h37.1L81.2,86.7z"/>
<path class="st1" d="M67.7,60.3c5.2-2,8.9-7,8.9-13c0-0.6-0.4-1-1-1c-5.7,0-10.8,3.6-12.7,8.6c-2.1-5-7-8.6-12.9-8.6
	c-0.6,0-1,0.4-1,1c0,5.9,3.7,10.9,8.9,12.9c-5.2,2-8.9,7.1-8.9,13c0,0.6,0.4,1,1,1c4.9,0,9.3-2.6,11.7-6.6v5.7h2.1v-5.7
	c2.6,4.2,7,6.6,11.7,6.6c0.6,0,1-0.4,1-1C76.5,67.3,72.8,62.3,67.7,60.3L67.7,60.3z M74.4,48.5c-0.5,5.6-5,10.1-10.7,10.7
	C64.3,53.6,68.7,49.1,74.4,48.5z M51,48.5c5.6,0.5,10.1,5,10.7,10.7C56,58.6,51.5,54.1,51,48.5z M51,72.1c0.5-5.6,5-10.1,10.7-10.7
	C61,67.1,56.5,71.6,51,72.1z M63.7,61.5c5.6,0.5,10.1,5,10.7,10.7C68.7,71.6,64.3,67.1,63.7,61.5z"/>
</svg>
